<svg width="122" height="64" viewBox="0 0 122 64" fill="none" xmlns="http://www.w3.org/2000/svg">
<path d="M17.92 48.9341C12.8533 48.9341 8.69333 47.3874 5.44 44.2941C1.81333 40.9874 0 36.4541 0 30.6941C0 26.2141 0.96 22.1874 2.88 18.6141C3.14667 13.7608 4.82667 9.62743 7.92 6.21409C11.28 2.53409 15.52 0.694092 20.64 0.694092C26.2933 0.694092 31.04 2.88076 34.88 7.25409C38.6133 11.4674 40.48 16.7208 40.48 23.0141C40.48 31.1741 38.1333 37.6274 33.44 42.3741C29.2267 46.7474 24.0533 48.9341 17.92 48.9341ZM15.36 46.1341C20.8533 46.1341 25.7067 44.0541 29.92 39.8941C34.6667 35.2541 37.04 29.3341 37.04 22.1341C37.04 16.4274 35.6533 11.6808 32.88 7.89409C29.84 3.89409 25.76 1.89409 20.64 1.89409C16.96 1.89409 13.7867 3.06742 11.12 5.41409C8.82667 7.44076 7.09333 10.4808 5.92 14.5341C7.14667 13.3608 8.29333 12.4808 9.36 11.8941C10.48 11.2541 11.6533 10.8008 12.88 10.5341L13.04 10.4541C13.4133 10.4541 13.6 10.6674 13.6 11.0941C13.6 11.3608 13.4667 11.5474 13.2 11.6541C10.16 12.4541 7.6 14.1608 5.52 16.7741L5.44 17.8941V18.8541C5.44 21.8941 6.05333 24.5874 7.28 26.9341C8.56 29.4941 10.4533 31.4141 12.96 32.6941C15.4667 33.9741 18 34.6141 20.56 34.6141C24.4 34.6141 27.36 33.4141 29.44 31.0141C30.5067 29.8408 31.04 28.4808 31.04 26.9341C31.04 25.9208 30.7733 25.0674 30.24 24.3741C29.7067 23.5741 28.96 23.1474 28 23.0941C27.6267 23.0941 27.44 22.9074 27.44 22.5341C27.44 22.1074 27.6533 21.8941 28.08 21.8941C29.4133 21.9474 30.48 22.5074 31.28 23.5741C32.08 24.5874 32.48 25.8408 32.48 27.3341C32.48 28.7208 32.0533 30.1074 31.2 31.4941C30.24 33.0408 28.8533 34.3208 27.04 35.3341C25.0667 36.4008 22.8533 36.9341 20.4 36.9341C17.5733 36.9341 14.8533 36.2674 12.24 34.9341C9.62667 33.6008 7.54667 31.8674 6 29.7341C4.50667 27.5474 3.49333 24.7474 2.96 21.3341C2.32 23.2008 1.86667 24.8808 1.6 26.3741C1.33333 27.8141 1.2 29.2541 1.2 30.6941C1.2 35.6541 2.61333 39.5474 5.44 42.3741C7.94667 44.8808 11.2533 46.1341 15.36 46.1341Z" fill="white"/>
<path d="M51.4881 42.6941C49.4081 42.6941 47.6481 42.1341 46.2081 41.0141C44.6615 39.7874 43.8881 38.2408 43.8881 36.3741C43.8881 34.6141 44.2615 33.1208 45.0081 31.8941C45.7015 30.7741 46.7415 30.0008 48.1281 29.5741C47.9148 28.9874 47.8081 28.4808 47.8081 28.0541C47.8081 27.0941 48.1815 26.1608 48.9281 25.2541C49.7281 24.4008 50.7148 23.8141 51.8881 23.4941C52.1548 23.4408 52.4215 23.4141 52.6881 23.4141C52.9548 23.3608 53.2215 23.3341 53.4881 23.3341C55.6215 23.3341 57.4881 24.2941 59.0881 26.2141C60.6348 28.0808 61.4081 30.1874 61.4081 32.5341C61.4081 35.3074 60.4215 37.7074 58.4481 39.7341C56.5281 41.7074 54.2081 42.6941 51.4881 42.6941ZM51.4881 41.4941C53.5681 41.4408 55.3548 40.5341 56.8481 38.7741C58.2881 37.0674 59.0081 35.1208 59.0081 32.9341C59.0081 31.0141 58.5548 29.3874 57.6481 28.0541C56.6348 26.5608 55.3015 25.8141 53.6481 25.8141C52.4748 25.8141 51.4881 26.2141 50.6881 27.0141C49.8348 27.8674 49.4081 29.0141 49.4081 30.4541C49.4081 31.2008 49.6215 31.8674 50.0481 32.4541C50.5281 33.2541 51.1681 33.6541 51.9681 33.6541H52.1281C52.7148 33.6541 53.3548 33.3341 54.0481 32.6941L54.2081 32.6141L54.2881 32.6941C54.2881 32.8541 54.2348 32.9874 54.1281 33.0941C53.3281 34.1608 52.4481 34.6941 51.4881 34.6941C49.9415 34.6941 48.6881 33.6008 47.7281 31.4141C46.5015 32.2141 45.8881 33.5208 45.8881 35.3341C45.8881 36.9341 46.3415 38.3208 47.2481 39.4941C48.2615 40.8274 49.6748 41.4941 51.4881 41.4941Z" fill="white"/>
<path d="M66.5038 63.0141C66.2904 63.0141 66.1571 62.9874 66.1038 62.9341C64.0771 62.6674 63.0637 60.6941 63.0637 57.0141C63.0637 56.2674 63.1171 55.4408 63.2237 54.5341C63.3304 53.6808 63.4637 52.7474 63.6237 51.7341C64.1037 48.9074 64.7171 46.0274 65.4638 43.0941C66.2638 40.1074 67.1971 37.1208 68.2638 34.1341C67.7304 32.8541 67.1971 31.6808 66.6637 30.6141C66.1837 29.4941 65.6504 28.5074 65.0638 27.6541C64.7971 27.2274 64.6637 26.8808 64.6637 26.6141C64.6637 26.2408 64.8504 25.8674 65.2238 25.4941C65.6504 25.1741 65.9971 25.0141 66.2638 25.0141H66.3438C66.3438 25.0674 66.3704 25.0941 66.4238 25.0941H66.5038C67.0904 25.7874 67.6237 26.5874 68.1038 27.4941C68.6371 28.4008 69.1704 29.5474 69.7038 30.9341C71.1971 28.7474 72.6904 27.1741 74.1838 26.2141C75.7304 25.2008 77.3571 24.6941 79.0638 24.6941C81.4104 24.6941 83.0638 25.3608 84.0238 26.6941C85.0371 28.0274 85.5438 29.8141 85.5438 32.0541C85.5438 33.1741 85.3838 34.4274 85.0638 35.8141C84.5304 38.4274 83.5171 40.4808 82.0238 41.9741C80.7971 43.2008 79.3838 43.8141 77.7838 43.8141C76.6104 43.8141 75.6771 43.4674 74.9838 42.7741C74.1838 42.0274 73.7838 41.0408 73.7838 39.8141C73.7838 39.5474 73.9438 39.4141 74.2638 39.4141C74.5838 39.4141 74.7438 39.5474 74.7438 39.8141C74.9038 41.6808 75.8638 42.6141 77.6238 42.6141C78.9038 42.6141 80.0238 42.0008 80.9838 40.7741C82.2104 39.1741 82.8238 36.9874 82.8238 34.2141C82.8238 32.1874 82.4504 30.6141 81.7038 29.4941C80.8504 28.1608 79.7304 27.4941 78.3438 27.4941C75.7304 27.4941 73.1438 29.5474 70.5838 33.6541C71.1704 35.7874 71.6238 37.9474 71.9438 40.1341C72.2638 42.2674 72.4238 44.5074 72.4238 46.8541C72.4238 48.0808 72.3704 49.2541 72.2638 50.3741C72.1571 51.5474 72.0238 52.6674 71.8638 53.7341C71.4904 55.7074 70.9304 57.5474 70.1838 59.2541C69.0638 61.7608 67.8371 63.0141 66.5038 63.0141ZM66.2638 62.1341H66.4238C67.0104 62.1341 67.5437 61.8408 68.0238 61.2541C68.5038 60.5074 68.9571 59.4408 69.3838 58.0541C69.9704 56.3474 70.3704 54.6408 70.5838 52.9341C70.6904 52.1874 70.7704 51.4408 70.8238 50.6941C70.8771 50.0008 70.9038 49.2808 70.9038 48.5341C70.9038 44.8541 70.2904 40.8274 69.0638 36.4541C67.9971 38.8541 67.1171 41.3074 66.4238 43.8141C65.7838 46.3208 65.2504 49.0141 64.8238 51.8941C64.6637 53.1741 64.5304 54.2941 64.4238 55.2541C64.3171 56.2141 64.2638 56.9874 64.2638 57.5741C64.2638 58.9074 64.3971 59.9741 64.6637 60.7741C64.9837 61.5741 65.5171 62.0274 66.2638 62.1341Z" fill="white"/>
<path d="M93.1394 47.4941C91.7527 47.4941 90.606 47.0674 89.6994 46.2141C88.846 45.3608 88.4194 44.2408 88.4194 42.8541C88.4194 41.4674 88.766 40.2408 89.4594 39.1741C90.206 38.1074 91.1927 37.5741 92.4194 37.5741C92.846 37.5741 93.0594 37.7608 93.0594 38.1341C93.0594 38.4008 92.7927 38.5341 92.2594 38.5341C91.5127 38.5341 90.8994 38.9874 90.4194 39.8941C89.9394 40.8008 89.6994 41.6008 89.6994 42.2941C89.6994 43.2008 90.046 43.9208 90.7394 44.4541C91.4327 45.0408 92.206 45.3341 93.0594 45.3341C94.8194 45.3341 96.046 44.7741 96.7394 43.6541C97.4327 42.4808 97.7794 41.0941 97.7794 39.4941C97.7794 38.6408 97.6994 37.7874 97.5394 36.9341C97.4327 36.0808 97.246 35.2274 96.9794 34.3741C96.8194 33.7341 96.4994 32.9874 96.0194 32.1341C95.5394 31.2274 95.0061 30.3474 94.4194 29.4941C93.886 28.6408 93.406 28.0008 92.9794 27.5741C92.3394 29.1208 91.6727 30.6941 90.9794 32.2941C90.3394 33.8408 89.646 35.3074 88.8994 36.6941C88.846 36.8541 88.7127 36.9341 88.4994 36.9341C88.0727 36.9341 87.9394 36.7208 88.0994 36.2941C88.3127 35.9208 88.4994 35.5474 88.6594 35.1741C88.8727 34.7474 89.1127 34.2408 89.3794 33.6541L91.1394 29.8941C91.4061 29.3074 91.646 28.7208 91.8594 28.1341C92.126 27.5474 92.366 26.9874 92.5794 26.4541C91.726 25.3874 91.2994 24.0541 91.2994 22.4541C91.2994 21.7608 91.4327 21.1741 91.6994 20.6941C92.0194 20.1608 92.526 19.8941 93.2194 19.8941C93.5927 19.8941 93.966 20.1341 94.3394 20.6141C94.766 21.1474 94.8994 22.0274 94.7394 23.2541C94.686 23.5208 94.5527 24.0008 94.3394 24.6941C94.1794 25.3341 94.046 25.7874 93.9394 26.0541C93.9394 26.2674 94.1527 26.7208 94.5794 27.4141C95.0594 28.0541 95.566 28.7208 96.0994 29.4141C96.6327 30.1074 97.006 30.5874 97.2194 30.8541C98.126 32.0808 98.8727 33.5208 99.4594 35.1741C100.046 36.7741 100.339 38.3474 100.339 39.8941C100.339 41.8674 99.806 43.6274 98.7394 45.1741C97.6727 46.7208 95.806 47.4941 93.1394 47.4941Z" fill="white"/>
<path d="M110.509 35.3341C110.083 35.3341 109.869 35.1474 109.869 34.7741C109.869 34.6141 109.896 34.5074 109.949 34.4541C110.323 33.8674 110.723 33.0941 111.149 32.1341C111.576 31.1208 112.056 29.9208 112.589 28.5341C113.123 27.1474 113.683 25.5741 114.269 23.8141C114.909 22.0541 115.603 20.0808 116.349 17.8941L118.029 12.8541C118.669 10.7741 118.989 8.98743 118.989 7.49409L118.909 6.05409L118.829 5.89409C118.829 5.41409 119.123 5.17409 119.709 5.17409C120.616 5.17409 121.176 5.60076 121.389 6.45409C121.656 7.25409 121.789 8.13409 121.789 9.09409C121.789 11.3341 120.803 14.6941 118.829 19.1741C118.083 20.8274 117.069 22.9608 115.789 25.5741C114.509 28.1874 112.909 31.3341 110.989 35.0141C110.936 35.2274 110.776 35.3341 110.509 35.3341ZM108.109 42.2141C107.469 42.2141 106.909 42.0008 106.429 41.5741C106.003 41.0941 105.789 40.5608 105.789 39.9741C105.789 39.3874 106.003 38.8808 106.429 38.4541C106.909 37.9741 107.443 37.7341 108.029 37.7341C108.669 37.7341 109.203 37.9741 109.629 38.4541C110.109 38.8808 110.349 39.3874 110.349 39.9741C110.349 40.5608 110.109 41.0941 109.629 41.5741C109.203 42.0008 108.696 42.2141 108.109 42.2141Z" fill="white"/>
</svg>
