<svg width="280" height="394" viewBox="0 0 280 394" fill="none" xmlns="http://www.w3.org/2000/svg">
<rect width="280" height="394" rx="20" fill="#F2F2F2"/>
<path d="M110.5 109.75V126H47V112.25L76.25 81.5C78.8333 78.5417 80.9167 75.8958 82.5 73.5625C84.0833 71.1875 85.2292 69.0417 85.9375 67.125C86.6875 65.2083 87.0625 63.4792 87.0625 61.9375C87.0625 59.3125 86.6667 57.125 85.875 55.375C85.125 53.5833 84 52.2292 82.5 51.3125C81.0417 50.3958 79.2292 49.9375 77.0625 49.9375C74.8958 49.9375 73 50.5625 71.375 51.8125C69.75 53.0625 68.4792 54.7708 67.5625 56.9375C66.6875 59.1042 66.25 61.5417 66.25 64.25H45.125C45.125 58.6667 46.4792 53.5625 49.1875 48.9375C51.9375 44.3125 55.75 40.625 60.625 37.875C65.5 35.0833 71.1458 33.6875 77.5625 33.6875C84.2708 33.6875 89.8958 34.7292 94.4375 36.8125C98.9792 38.8958 102.396 41.9167 104.687 45.875C107.021 49.7917 108.187 54.5208 108.187 60.0625C108.187 63.2292 107.687 66.2708 106.687 69.1875C105.687 72.1042 104.25 75 102.375 77.875C100.5 80.7083 98.2083 83.625 95.5 86.625C92.8333 89.625 89.7917 92.8125 86.375 96.1875L74.625 109.75H110.5Z" fill="#050505"/>
<path fill-rule="evenodd" clip-rule="evenodd" d="M194.99 231.632C188.728 231.632 182.762 232.998 177.32 235.464C182.429 227.396 185.428 217.622 185.428 207.081C185.428 179.422 164.827 157 139.417 157C114.007 157 93.407 179.422 93.407 207.081C93.407 217.117 96.1295 226.455 100.799 234.291C96.1562 232.576 91.1851 231.632 86.01 231.632C60.5987 231.632 40 254.054 40 281.713C40 309.372 60.5987 331.794 86.01 331.794C91.7488 331.794 97.2382 330.641 102.305 328.551C102.304 328.562 123.717 322.268 137.794 294.381V311.172C137.794 311.172 130.576 364.101 79.695 369.895H71.5749V378.144H210.146V369.895H202.027C151.146 364.101 143.928 311.172 143.928 311.172V295.511C146.55 301.795 161.045 332.522 193.623 331.759C194.078 331.771 194.531 331.794 194.99 331.794C220.401 331.794 241 309.372 241 281.713C241 254.054 220.401 231.632 194.99 231.632Z" fill="#1A1919"/>
<path fill-rule="evenodd" clip-rule="evenodd" d="M234.109 64.1301C230.994 64.1301 228.026 64.8101 225.319 66.037C227.86 62.0231 229.352 57.1603 229.352 51.9161C229.352 38.1554 219.103 27 206.461 27C193.819 27 183.571 38.1554 183.571 51.9161C183.571 56.9091 184.925 61.5548 187.248 65.453C184.938 64.5999 182.465 64.1301 179.891 64.1301C167.248 64.1301 157 75.2856 157 89.0462C157 102.807 167.248 113.962 179.891 113.962C182.746 113.962 185.477 113.388 187.997 112.349C187.997 112.354 198.65 109.223 205.654 95.3486V103.702C205.654 103.702 202.063 130.036 176.749 132.918H172.709V137.022H241.65V132.918H237.611C212.296 130.036 208.705 103.702 208.705 103.702V95.9109C210.01 99.0375 217.222 114.325 233.429 113.945C233.656 113.951 233.881 113.962 234.109 113.962C246.752 113.962 257 102.807 257 89.0462C257 75.2856 246.752 64.1301 234.109 64.1301Z" fill="#1A1919"/>
</svg>
