<svg width="280" height="394" viewBox="0 0 280 394" fill="none" xmlns="http://www.w3.org/2000/svg">
<rect width="280" height="394" rx="20" fill="#F2F2F2"/>
<path d="M110.5 109.75V126H47V112.25L76.25 81.5C78.8333 78.5417 80.9167 75.8958 82.5 73.5625C84.0833 71.1875 85.2292 69.0417 85.9375 67.125C86.6875 65.2083 87.0625 63.4792 87.0625 61.9375C87.0625 59.3125 86.6667 57.125 85.875 55.375C85.125 53.5833 84 52.2292 82.5 51.3125C81.0417 50.3958 79.2292 49.9375 77.0625 49.9375C74.8958 49.9375 73 50.5625 71.375 51.8125C69.75 53.0625 68.4792 54.7708 67.5625 56.9375C66.6875 59.1042 66.25 61.5417 66.25 64.25H45.125C45.125 58.6667 46.4792 53.5625 49.1875 48.9375C51.9375 44.3125 55.75 40.625 60.625 37.875C65.5 35.0833 71.1458 33.6875 77.5625 33.6875C84.2708 33.6875 89.8958 34.7292 94.4375 36.8125C98.9792 38.8958 102.396 41.9167 104.687 45.875C107.021 49.7917 108.187 54.5208 108.187 60.0625C108.187 63.2292 107.687 66.2708 106.687 69.1875C105.687 72.1042 104.25 75 102.375 77.875C100.5 80.7083 98.2083 83.625 95.5 86.625C92.8333 89.625 89.7917 92.8125 86.375 96.1875L74.625 109.75H110.5Z" fill="#F24822"/>
<path fill-rule="evenodd" clip-rule="evenodd" d="M40 262L140.5 366L241 262L140.5 158L40 262Z" fill="#F24822"/>
<path fill-rule="evenodd" clip-rule="evenodd" d="M153 82.4997L208.5 140L264 82.4997L208.5 25L153 82.4997Z" fill="#F24822"/>
</svg>
