<svg width="280" height="394" viewBox="0 0 280 394" fill="none" xmlns="http://www.w3.org/2000/svg">
<rect x="0.5" y="0.5" width="279" height="393" rx="19.5" fill="#F2F2F2" stroke="#D2D2D2"/>
<path d="M40.5469 137V120.828L77.3437 81.6875C80.8333 77.6771 83.5937 74.1875 85.625 71.2187C87.7083 68.1979 89.1927 65.4635 90.0781 63.0156C90.9635 60.5156 91.4062 58.0417 91.4062 55.5937C91.4062 51.5312 90.2604 48.0937 87.9687 45.2812C85.7292 42.4167 82.3698 40.9844 77.8906 40.9844C73.099 40.9844 69.4792 42.599 67.0312 45.8281C64.6354 49.0573 63.4375 53.4844 63.4375 59.1094H39.0625L38.9062 58.6406C38.75 51.6615 40.2344 45.3854 43.3594 39.8125C46.5365 34.2396 51.0937 29.8125 57.0312 26.5312C62.9687 23.25 69.974 21.6094 78.0469 21.6094C86.0677 21.6094 92.9167 23.0156 98.5937 25.8281C104.323 28.6406 108.724 32.5729 111.797 37.625C114.922 42.6771 116.484 48.5625 116.484 55.2812C116.484 59.8646 115.677 64.1615 114.062 68.1719C112.448 72.1302 109.87 76.349 106.328 80.8281C102.839 85.2552 98.2292 90.4896 92.5 96.5312L72.7344 117.625L72.8906 118.016H99.0625L100.234 107.781H119.297V137H40.5469Z" fill="#F24822"/>
<path fill-rule="evenodd" clip-rule="evenodd" d="M60 279.539L140 362.08L220 279.539L140 197L60 279.539Z" fill="#F24822"/>
<path fill-rule="evenodd" clip-rule="evenodd" d="M190 60.9522L220 91.9048L250 60.9522L220 30L190 60.9522Z" fill="#F24822"/>
</svg>
