<svg width="283" height="396" viewBox="0 0 283 396" fill="none" xmlns="http://www.w3.org/2000/svg">
<rect x="2.12329" width="280" height="394" rx="20" transform="rotate(0.308765 2.12329 0)" fill="#F2F2F2"/>
<path d="M112.03 110.344L111.943 126.594L48.4437 126.251L48.5178 112.502L77.933 81.9097C80.5323 78.9654 82.6298 76.3308 84.2257 74.006C85.8218 71.6396 86.9792 69.5 87.6979 67.5871C88.4582 65.6745 88.8425 63.9474 88.8508 62.4058C88.8649 59.7808 88.4809 57.5912 87.6987 55.837C86.9583 54.0413 85.8407 52.6811 84.3456 51.7563C82.8923 50.8318 81.0822 50.3637 78.9156 50.3521C76.749 50.3404 74.8498 50.9552 73.2181 52.1964C71.5864 53.4376 70.3064 55.1391 69.378 57.3008C68.4914 59.4627 68.0407 61.8978 68.0261 64.6061L46.9014 64.4922C46.9315 58.909 48.3132 53.8122 51.0464 49.2019C53.8213 44.5917 57.6536 40.9248 62.5434 38.2012C67.4333 35.4358 73.0866 34.0704 79.5032 34.105C86.2114 34.1411 91.8307 35.2131 96.3611 37.3209C100.891 39.4287 104.292 42.4679 106.562 46.4385C108.874 50.3677 110.015 55.1031 109.986 60.6446C109.969 63.8113 109.452 66.8502 108.436 69.7614C107.421 72.6727 105.968 75.5607 104.077 78.4256C102.187 81.2488 99.8796 84.153 97.1551 87.1384C94.4723 90.124 91.4135 93.295 87.9787 96.6516L76.1558 110.151L112.03 110.344Z" fill="#F24822"/>
<path fill-rule="evenodd" clip-rule="evenodd" d="M188.998 158.017C150.121 158.405 142.155 202.621 142.155 202.621C142.155 202.621 133.423 158.315 94.5525 157.508C55.6812 156.7 31.5745 190.661 44.5391 226.616C57.5027 262.57 70.5688 270.715 91.0861 296.841C111.602 322.969 141.413 368.135 141.206 378.749C141.114 368.133 170.165 323.284 190.963 297.379C211.76 271.475 224.913 263.472 238.264 227.66C251.614 191.847 227.876 157.628 188.998 158.017Z" fill="#F24822"/>
<path fill-rule="evenodd" clip-rule="evenodd" d="M241.469 28.2941C222.127 28.4871 218.163 50.4848 218.163 50.4848C218.163 50.4848 213.819 28.4424 194.481 28.0409C175.142 27.6389 163.148 44.5347 169.598 62.4227C176.048 80.3103 182.549 84.3625 192.756 97.3608C202.963 110.36 217.794 132.83 217.691 138.111C217.646 132.83 232.099 110.517 242.446 97.6286C252.793 84.741 259.337 80.7591 265.979 62.9421C272.621 45.1247 260.811 28.1006 241.469 28.2941Z" fill="#F24822"/>
</svg>
