<svg width="280" height="394" viewBox="0 0 280 394" fill="none" xmlns="http://www.w3.org/2000/svg">
<rect width="280" height="394" rx="20" fill="#F2F2F2"/>
<path d="M110.5 109.75V126H47V112.25L76.25 81.5C78.8333 78.5417 80.9167 75.8958 82.5 73.5625C84.0833 71.1875 85.2292 69.0417 85.9375 67.125C86.6875 65.2083 87.0625 63.4792 87.0625 61.9375C87.0625 59.3125 86.6667 57.125 85.875 55.375C85.125 53.5833 84 52.2292 82.5 51.3125C81.0417 50.3958 79.2292 49.9375 77.0625 49.9375C74.8958 49.9375 73 50.5625 71.375 51.8125C69.75 53.0625 68.4792 54.7708 67.5625 56.9375C66.6875 59.1042 66.25 61.5417 66.25 64.25H45.125C45.125 58.6667 46.4792 53.5625 49.1875 48.9375C51.9375 44.3125 55.75 40.625 60.625 37.875C65.5 35.0833 71.1458 33.6875 77.5625 33.6875C84.2708 33.6875 89.8958 34.7292 94.4375 36.8125C98.9792 38.8958 102.396 41.9167 104.688 45.875C107.021 49.7917 108.188 54.5208 108.188 60.0625C108.188 63.2292 107.688 66.2708 106.688 69.1875C105.688 72.1042 104.25 75 102.375 77.875C100.5 80.7083 98.2083 83.625 95.5 86.625C92.8333 89.625 89.7917 92.8125 86.375 96.1875L74.625 109.75H110.5Z" fill="black"/>
<path fill-rule="evenodd" clip-rule="evenodd" d="M186.987 328.534C225.674 329.033 249.473 300.566 236.382 270.601C223.292 240.636 210.241 233.894 189.692 212.17C169.133 190.445 139.238 152.864 139.379 144C139.53 152.864 110.866 190.445 90.3069 212.17C69.7577 233.894 56.7176 240.636 43.6169 270.601C30.5264 300.566 54.3356 329.033 93.0118 328.534C119.566 328.19 131.516 310.67 136.391 299.716L136.391 314.052C136.391 314.052 127.913 365.765 68.0822 371.426L58.5444 371.426L58.5444 379.484L221.465 379.484L221.465 371.426L211.917 371.426C152.096 365.765 143.608 314.052 143.608 314.052L143.608 301.598C149.351 312.564 161.906 328.209 186.987 328.534Z" fill="#1A1919"/>
<path fill-rule="evenodd" clip-rule="evenodd" d="M236.614 112.633C254.41 112.862 265.357 99.8057 259.336 86.0632C253.314 72.3202 247.311 69.2281 237.858 59.2646C228.401 49.3011 214.649 32.0655 214.714 28C214.784 32.0655 201.598 49.3011 192.141 59.2646C182.689 69.2281 176.69 72.3202 170.664 86.0632C164.642 99.8057 175.594 112.862 193.385 112.633C205.601 112.475 211.098 104.44 213.34 99.4159L213.34 105.991C213.34 105.991 209.44 129.708 181.918 132.304L177.53 132.304L177.53 136L252.474 136L252.474 132.304L248.082 132.304C220.564 129.708 216.66 105.991 216.66 105.991L216.66 100.279C219.301 105.309 225.077 112.484 236.614 112.633Z" fill="#1A1919"/>
</svg>
