<svg width="280" height="394" viewBox="0 0 280 394" fill="none" xmlns="http://www.w3.org/2000/svg">
<rect x="0.5" y="0.5" width="279" height="393" rx="19.5" fill="#F2F2F2" stroke="#D2D2D2"/>
<path d="M40.5469 137V120.828L77.3438 81.6875C80.8333 77.6771 83.5938 74.1875 85.625 71.2188C87.7083 68.1979 89.1927 65.4635 90.0781 63.0156C90.9635 60.5156 91.4062 58.0417 91.4062 55.5938C91.4062 51.5312 90.2604 48.0938 87.9688 45.2812C85.7292 42.4167 82.3698 40.9844 77.8906 40.9844C73.099 40.9844 69.4792 42.599 67.0312 45.8281C64.6354 49.0573 63.4375 53.4844 63.4375 59.1094H39.0625L38.9062 58.6406C38.75 51.6615 40.2344 45.3854 43.3594 39.8125C46.5365 34.2396 51.0938 29.8125 57.0312 26.5312C62.9688 23.25 69.974 21.6094 78.0469 21.6094C86.0677 21.6094 92.9167 23.0156 98.5938 25.8281C104.323 28.6406 108.724 32.5729 111.797 37.625C114.922 42.6771 116.484 48.5625 116.484 55.2812C116.484 59.8646 115.677 64.1615 114.062 68.1719C112.448 72.1302 109.87 76.349 106.328 80.8281C102.839 85.2552 98.2292 90.4896 92.5 96.5312L72.7344 117.625L72.8906 118.016H99.0625L100.234 107.781H119.297V137H40.5469Z" fill="black"/>
<path fill-rule="evenodd" clip-rule="evenodd" d="M177.59 323.627C208.539 324.026 227.578 301.253 217.106 277.281C206.633 253.309 196.193 247.915 179.754 230.536C163.306 213.156 139.39 183.091 139.503 176C139.624 183.091 116.693 213.156 100.246 230.536C83.8061 247.915 73.3741 253.309 62.8935 277.281C52.4211 301.253 71.4685 324.026 102.409 323.627C123.653 323.352 133.213 309.336 137.113 300.573L137.113 312.042C137.113 312.042 130.331 353.412 82.4658 357.941L74.8355 357.941L74.8355 364.387L205.172 364.387L205.172 357.941L197.534 357.941C149.677 353.412 142.886 312.042 142.886 312.042L142.886 302.079C147.481 310.851 157.525 323.368 177.59 323.627Z" fill="#1A1919"/>
<path fill-rule="evenodd" clip-rule="evenodd" d="M234.096 85.3601C245.702 85.5099 252.842 76.9697 248.915 67.9804C244.987 58.9908 241.072 56.9682 234.908 50.4509C228.74 43.9335 219.771 32.6593 219.814 30C219.859 32.6593 211.26 43.9335 205.092 50.4509C198.927 56.9682 195.015 58.9908 191.085 67.9804C187.158 76.9697 194.301 85.5099 205.904 85.3601C213.87 85.2571 217.455 80.0009 218.917 76.7147L218.917 81.0156C218.917 81.0156 216.374 96.5294 198.425 98.2277L195.563 98.2277L195.563 100.645L244.439 100.645L244.439 98.2277L241.575 98.2277C223.629 96.5294 221.082 81.0156 221.082 81.0156L221.082 77.2794C222.805 80.5692 226.572 85.2628 234.096 85.3601Z" fill="#1A1919"/>
</svg>
