<svg width="280" height="394" viewBox="0 0 280 394" fill="none" xmlns="http://www.w3.org/2000/svg">
<rect x="0.5" y="0.5" width="279" height="393" rx="19.5" fill="#F2F2F2" stroke="#D2D2D2"/>
<path d="M78.8281 138.641C71.4844 138.641 64.7656 137.365 58.6719 134.812C52.5781 132.208 47.7344 128.458 44.1406 123.562C40.599 118.615 38.9062 112.599 39.0625 105.516L39.1406 105.047H63.4375C63.4375 107.755 64.0625 110.229 65.3125 112.469C66.5625 114.656 68.3333 116.401 70.625 117.703C72.9687 118.953 75.7031 119.578 78.8281 119.578C83.724 119.578 87.5781 118.172 90.3906 115.359C93.2552 112.547 94.6875 108.797 94.6875 104.109C94.6875 99.2656 93.2031 95.4375 90.2344 92.625C87.3177 89.7604 82.9687 88.3281 77.1875 88.3281H65.1562V69.7344H77.8125C81.1458 69.7344 83.9323 69.1354 86.1719 67.9375C88.4115 66.6875 90.0781 64.9948 91.1719 62.8594C92.3177 60.6719 92.8906 58.0937 92.8906 55.125C92.8906 50.8542 91.6927 47.3906 89.2969 44.7344C86.901 42.0781 83.4115 40.75 78.8281 40.75C76.1719 40.75 73.8021 41.2969 71.7187 42.3906C69.6354 43.4323 67.9948 44.9167 66.7969 46.8437C65.651 48.7187 65.0781 50.9323 65.0781 53.4844H40.7812L40.625 53.0156C40.4167 46.8698 41.9271 41.4271 45.1562 36.6875C48.3854 31.9479 52.8906 28.25 58.6719 25.5937C64.5052 22.9375 71.1458 21.6094 78.5937 21.6094C90.4687 21.6094 99.974 24.4219 107.109 30.0469C114.297 35.6198 117.891 43.5365 117.891 53.7969C117.891 59.2656 116.406 64.0833 113.437 68.25C110.521 72.4167 106.12 75.8802 100.234 78.6406C106.38 80.8802 111.146 84.2917 114.531 88.875C117.969 93.4583 119.687 98.875 119.687 105.125C119.687 112.052 117.917 118.016 114.375 123.016C110.833 128.016 105.99 131.87 99.8437 134.578C93.6979 137.286 86.6927 138.641 78.8281 138.641Z" fill="#050505"/>
<path fill-rule="evenodd" clip-rule="evenodd" d="M183.375 239.408C178.391 239.408 173.641 240.496 169.31 242.459C173.377 236.037 175.764 228.257 175.764 219.866C175.764 197.849 159.365 180 139.138 180C118.911 180 102.513 197.849 102.513 219.866C102.513 227.854 104.68 235.288 108.397 241.525C104.701 240.16 100.744 239.408 96.6249 239.408C76.397 239.408 60 257.257 60 279.274C60 301.291 76.397 319.14 96.6249 319.14C101.193 319.14 105.563 318.221 109.596 316.558C109.595 316.567 126.641 311.557 137.846 289.358V302.724C137.846 302.724 132.101 344.857 91.598 349.469H85.1342V356.035H195.44V349.469H188.977C148.474 344.857 142.729 302.724 142.729 302.724V290.257C144.816 295.26 156.354 319.719 182.287 319.112C182.649 319.121 183.01 319.14 183.375 319.14C203.603 319.14 220 301.291 220 279.274C220 257.257 203.603 239.408 183.375 239.408Z" fill="#1A1919"/>
<path fill-rule="evenodd" clip-rule="evenodd" d="M236.266 52.2781C234.397 52.2781 232.615 52.6861 230.991 53.4222C232.516 51.0139 233.411 48.0962 233.411 44.9497C233.411 36.6933 227.262 30 219.677 30C212.092 30 205.942 36.6933 205.942 44.9497C205.942 47.9454 206.755 50.7329 208.149 53.0718C206.763 52.5599 205.279 52.2781 203.734 52.2781C196.149 52.2781 190 58.9713 190 67.2277C190 75.4841 196.149 82.1774 203.734 82.1774C205.447 82.1774 207.086 81.8331 208.598 81.2092C208.598 81.2127 214.99 79.3338 219.192 71.0091V76.0215C219.192 76.0215 217.038 91.8213 201.849 93.5508H199.425V96.013H240.79V93.5508H238.366C223.178 91.8213 221.023 76.0215 221.023 76.0215V71.3465C221.806 73.2225 226.133 82.3947 235.858 82.167C235.993 82.1705 236.129 82.1774 236.266 82.1774C243.851 82.1774 250 75.4841 250 67.2277C250 58.9713 243.851 52.2781 236.266 52.2781Z" fill="#1A1919"/>
</svg>
