<svg width="280" height="394" viewBox="0 0 280 394" fill="none" xmlns="http://www.w3.org/2000/svg">
<rect width="280" height="394" rx="20" fill="#F2F2F2"/>
<path d="M66.1875 71.6875H76.4375C79.0625 71.6875 81.2083 71.2292 82.875 70.3125C84.5833 69.3542 85.8542 68.0208 86.6875 66.3125C87.5208 64.5625 87.9375 62.5 87.9375 60.125C87.9375 58.2917 87.5417 56.6042 86.75 55.0625C86 53.5208 84.8333 52.2917 83.25 51.375C81.6667 50.4167 79.6458 49.9375 77.1875 49.9375C75.5208 49.9375 73.8958 50.2917 72.3125 51C70.7292 51.6667 69.4167 52.625 68.375 53.875C67.375 55.125 66.875 56.6458 66.875 58.4375H45.75C45.75 53.2708 47.1667 48.8542 50 45.1875C52.875 41.4792 56.6458 38.6458 61.3125 36.6875C66.0208 34.6875 71.0833 33.6875 76.5 33.6875C82.9583 33.6875 88.625 34.6875 93.5 36.6875C98.375 38.6458 102.167 41.5625 104.875 45.4375C107.625 49.2708 109 54.0208 109 59.6875C109 62.8125 108.271 65.75 106.812 68.5C105.354 71.25 103.312 73.6667 100.687 75.75C98.0625 77.8333 94.9792 79.4792 91.4375 80.6875C87.9375 81.8542 84.1042 82.4375 79.9375 82.4375H66.1875V71.6875ZM66.1875 87.375V76.875H79.9375C84.4792 76.875 88.625 77.3958 92.375 78.4375C96.125 79.4375 99.3542 80.9375 102.062 82.9375C104.771 84.9375 106.854 87.4167 108.312 90.375C109.771 93.2917 110.5 96.6458 110.5 100.437C110.5 104.687 109.646 108.479 107.937 111.812C106.229 115.146 103.833 117.958 100.75 120.25C97.6667 122.542 94.0625 124.292 89.9375 125.5C85.8125 126.667 81.3333 127.25 76.5 127.25C72.7083 127.25 68.9167 126.75 65.125 125.75C61.3333 124.708 57.875 123.125 54.75 121C51.625 118.833 49.1042 116.083 47.1875 112.75C45.3125 109.375 44.375 105.354 44.375 100.687H65.5C65.5 102.604 66.0208 104.354 67.0625 105.937C68.1458 107.479 69.5833 108.708 71.375 109.625C73.1667 110.542 75.1042 111 77.1875 111C79.7708 111 81.9583 110.521 83.75 109.562C85.5833 108.562 86.9792 107.229 87.9375 105.562C88.8958 103.896 89.375 102.042 89.375 100C89.375 96.9167 88.8542 94.4583 87.8125 92.625C86.8125 90.7917 85.3333 89.4583 83.375 88.625C81.4583 87.7917 79.1458 87.375 76.4375 87.375H66.1875Z" fill="#050505"/>
<path fill-rule="evenodd" clip-rule="evenodd" d="M194.99 231.632C188.728 231.632 182.762 232.998 177.32 235.464C182.429 227.396 185.428 217.622 185.428 207.081C185.428 179.422 164.827 157 139.417 157C114.007 157 93.407 179.422 93.407 207.081C93.407 217.117 96.1295 226.455 100.799 234.291C96.1562 232.576 91.1851 231.632 86.01 231.632C60.5987 231.632 40 254.054 40 281.713C40 309.372 60.5987 331.794 86.01 331.794C91.7488 331.794 97.2382 330.641 102.305 328.551C102.304 328.562 123.717 322.268 137.794 294.381V311.172C137.794 311.172 130.576 364.101 79.695 369.895H71.5749V378.144H210.146V369.895H202.027C151.146 364.101 143.928 311.172 143.928 311.172V295.511C146.55 301.795 161.045 332.522 193.623 331.759C194.078 331.771 194.531 331.794 194.99 331.794C220.401 331.794 241 309.372 241 281.713C241 254.054 220.401 231.632 194.99 231.632Z" fill="#1A1919"/>
<path fill-rule="evenodd" clip-rule="evenodd" d="M234.109 64.1301C230.994 64.1301 228.026 64.8101 225.319 66.037C227.86 62.0231 229.352 57.1603 229.352 51.9161C229.352 38.1554 219.103 27 206.461 27C193.819 27 183.571 38.1554 183.571 51.9161C183.571 56.9091 184.925 61.5548 187.248 65.453C184.938 64.5999 182.465 64.1301 179.891 64.1301C167.248 64.1301 157 75.2856 157 89.0462C157 102.807 167.248 113.962 179.891 113.962C182.746 113.962 185.477 113.388 187.997 112.349C187.997 112.354 198.65 109.223 205.654 95.3486V103.702C205.654 103.702 202.063 130.036 176.749 132.918H172.709V137.022H241.65V132.918H237.611C212.296 130.036 208.705 103.702 208.705 103.702V95.9109C210.01 99.0375 217.222 114.325 233.429 113.945C233.656 113.951 233.881 113.962 234.109 113.962C246.752 113.962 257 102.807 257 89.0462C257 75.2856 246.752 64.1301 234.109 64.1301Z" fill="#1A1919"/>
</svg>
