<svg width="280" height="394" viewBox="0 0 280 394" fill="none" xmlns="http://www.w3.org/2000/svg">
<rect width="280" height="394" rx="20" fill="#F2F2F2"/>
<path d="M66.1875 71.6875H76.4375C79.0625 71.6875 81.2083 71.2292 82.875 70.3125C84.5833 69.3542 85.8542 68.0208 86.6875 66.3125C87.5208 64.5625 87.9375 62.5 87.9375 60.125C87.9375 58.2917 87.5417 56.6042 86.75 55.0625C86 53.5208 84.8333 52.2917 83.25 51.375C81.6667 50.4167 79.6458 49.9375 77.1875 49.9375C75.5208 49.9375 73.8958 50.2917 72.3125 51C70.7292 51.6667 69.4167 52.625 68.375 53.875C67.375 55.125 66.875 56.6458 66.875 58.4375H45.75C45.75 53.2708 47.1667 48.8542 50 45.1875C52.875 41.4792 56.6458 38.6458 61.3125 36.6875C66.0208 34.6875 71.0833 33.6875 76.5 33.6875C82.9583 33.6875 88.625 34.6875 93.5 36.6875C98.375 38.6458 102.167 41.5625 104.875 45.4375C107.625 49.2708 109 54.0208 109 59.6875C109 62.8125 108.271 65.75 106.812 68.5C105.354 71.25 103.312 73.6667 100.687 75.75C98.0625 77.8333 94.9792 79.4792 91.4375 80.6875C87.9375 81.8542 84.1042 82.4375 79.9375 82.4375H66.1875V71.6875ZM66.1875 87.375V76.875H79.9375C84.4792 76.875 88.625 77.3958 92.375 78.4375C96.125 79.4375 99.3542 80.9375 102.062 82.9375C104.771 84.9375 106.854 87.4167 108.312 90.375C109.771 93.2917 110.5 96.6458 110.5 100.437C110.5 104.687 109.646 108.479 107.937 111.812C106.229 115.146 103.833 117.958 100.75 120.25C97.6667 122.542 94.0625 124.292 89.9375 125.5C85.8125 126.667 81.3333 127.25 76.5 127.25C72.7083 127.25 68.9167 126.75 65.125 125.75C61.3333 124.708 57.875 123.125 54.75 121C51.625 118.833 49.1042 116.083 47.1875 112.75C45.3125 109.375 44.375 105.354 44.375 100.687H65.5C65.5 102.604 66.0208 104.354 67.0625 105.937C68.1458 107.479 69.5833 108.708 71.375 109.625C73.1667 110.542 75.1042 111 77.1875 111C79.7708 111 81.9583 110.521 83.75 109.562C85.5833 108.562 86.9792 107.229 87.9375 105.562C88.8958 103.896 89.375 102.042 89.375 100C89.375 96.9167 88.8542 94.4583 87.8125 92.625C86.8125 90.7917 85.3333 89.4583 83.375 88.625C81.4583 87.7917 79.1458 87.375 76.4375 87.375H66.1875Z" fill="#F24822"/>
<path fill-rule="evenodd" clip-rule="evenodd" d="M40 262L140.5 366L241 262L140.5 158L40 262Z" fill="#F24822"/>
<path fill-rule="evenodd" clip-rule="evenodd" d="M153 82.4997L208.5 140L264 82.4997L208.5 25L153 82.4997Z" fill="#F24822"/>
</svg>
