<svg width="280" height="394" viewBox="0 0 280 394" fill="none" xmlns="http://www.w3.org/2000/svg">
<rect x="0.5" y="0.5" width="279" height="393" rx="19.5" fill="#F2F2F2" stroke="#D2D2D2"/>
<path d="M78.8281 138.641C71.4844 138.641 64.7656 137.365 58.6719 134.812C52.5781 132.208 47.7344 128.458 44.1406 123.562C40.599 118.615 38.9062 112.599 39.0625 105.516L39.1406 105.047H63.4375C63.4375 107.755 64.0625 110.229 65.3125 112.469C66.5625 114.656 68.3333 116.401 70.625 117.703C72.9687 118.953 75.7031 119.578 78.8281 119.578C83.724 119.578 87.5781 118.172 90.3906 115.359C93.2552 112.547 94.6875 108.797 94.6875 104.109C94.6875 99.2656 93.2031 95.4375 90.2344 92.625C87.3177 89.7604 82.9687 88.3281 77.1875 88.3281H65.1562V69.7344H77.8125C81.1458 69.7344 83.9323 69.1354 86.1719 67.9375C88.4115 66.6875 90.0781 64.9948 91.1719 62.8594C92.3177 60.6719 92.8906 58.0937 92.8906 55.125C92.8906 50.8542 91.6927 47.3906 89.2969 44.7344C86.901 42.0781 83.4115 40.75 78.8281 40.75C76.1719 40.75 73.8021 41.2969 71.7187 42.3906C69.6354 43.4323 67.9948 44.9167 66.7969 46.8437C65.651 48.7187 65.0781 50.9323 65.0781 53.4844H40.7812L40.625 53.0156C40.4167 46.8698 41.9271 41.4271 45.1562 36.6875C48.3854 31.9479 52.8906 28.25 58.6719 25.5937C64.5052 22.9375 71.1458 21.6094 78.5937 21.6094C90.4687 21.6094 99.974 24.4219 107.109 30.0469C114.297 35.6198 117.891 43.5365 117.891 53.7969C117.891 59.2656 116.406 64.0833 113.437 68.25C110.521 72.4167 106.12 75.8802 100.234 78.6406C106.38 80.8802 111.146 84.2917 114.531 88.875C117.969 93.4583 119.687 98.875 119.687 105.125C119.687 112.052 117.917 118.016 114.375 123.016C110.833 128.016 105.99 131.87 99.8437 134.578C93.6979 137.286 86.6927 138.641 78.8281 138.641Z" fill="#F24822"/>
<path fill-rule="evenodd" clip-rule="evenodd" d="M60 279.539L140 362.08L220 279.539L140 197L60 279.539Z" fill="#F24822"/>
<path fill-rule="evenodd" clip-rule="evenodd" d="M190 60.9522L220 91.9048L250 60.9522L220 30L190 60.9522Z" fill="#F24822"/>
</svg>
