<svg width="283" height="396" viewBox="0 0 283 396" fill="none" xmlns="http://www.w3.org/2000/svg">
<rect x="2.12329" width="280" height="394" rx="20" transform="rotate(0.308765 2.12329 0)" fill="#F2F2F2"/>
<path d="M67.9236 72.0431L78.1734 72.0984C80.7984 72.1125 82.9466 71.6658 84.6182 70.7581C86.3317 69.809 87.6097 68.4825 88.4522 66.7787C89.295 65.0332 89.7228 62.973 89.7356 60.598C89.7454 58.7647 89.3587 57.0751 88.5754 55.5292C87.8337 53.9835 86.6736 52.7481 85.0953 51.8229C83.5171 50.856 81.4989 50.366 79.0406 50.3527C77.374 50.3438 75.7471 50.6892 74.16 51.3889C72.5731 52.0471 71.2554 52.9983 70.207 54.2427C69.2003 55.4873 68.6921 57.0054 68.6825 58.797L47.5578 58.6832C47.5856 53.5166 49.0261 49.1076 51.8791 45.4563C54.774 41.7635 58.5601 38.9505 63.2372 37.0174C67.9563 35.0428 73.0241 34.0701 78.4407 34.0993C84.8989 34.1341 90.5601 35.1646 95.4243 37.1908C100.289 39.1754 104.065 42.1125 106.752 46.002C109.481 49.8501 110.831 54.6074 110.8 60.274C110.783 63.399 110.038 66.3325 108.565 69.0746C107.092 71.8167 105.037 74.2223 102.401 76.2915C99.765 78.3607 96.6728 79.9899 93.1247 81.1791C89.6185 82.3269 85.782 82.8895 81.6154 82.8671L67.8656 82.793L67.9236 72.0431ZM67.839 87.7304L67.8956 77.2306L81.6454 77.3047C86.187 77.3291 90.33 77.8723 94.0743 78.9342C97.8189 79.9544 101.04 81.4717 103.737 83.4863C106.435 85.5009 108.505 87.9912 109.947 90.9574C111.39 93.8819 112.101 97.2399 112.08 101.032C112.058 105.281 111.183 109.068 109.457 112.393C107.73 115.717 105.319 118.516 102.224 120.791C99.1282 123.066 95.5147 124.797 91.3832 125.983C87.252 127.127 82.7698 127.686 77.9365 127.66C74.1449 127.64 70.356 127.12 66.5697 126.099C62.7837 125.037 59.334 123.435 56.2205 121.293C53.1072 119.11 50.6012 116.346 48.7026 113.003C46.8458 109.618 45.9299 105.592 45.9551 100.925L67.0798 101.039C67.0695 102.956 67.5809 104.708 68.614 106.297C69.689 107.845 71.1198 109.082 72.9065 110.008C74.6932 110.934 76.6282 111.403 78.7115 111.414C81.2948 111.428 83.4849 110.961 85.2817 110.012C87.1204 109.022 88.5234 107.696 89.4907 106.035C90.458 104.373 90.9471 102.522 90.9582 100.48C90.9748 97.3969 90.4672 94.9358 89.4354 93.0969C88.4453 91.2582 86.9734 89.9169 85.0195 89.073C83.1074 88.2294 80.7972 87.8002 78.0889 87.7857L67.839 87.7304Z" fill="#F24822"/>
<path fill-rule="evenodd" clip-rule="evenodd" d="M188.998 158.017C150.121 158.405 142.155 202.621 142.155 202.621C142.155 202.621 133.423 158.315 94.5525 157.508C55.6812 156.7 31.5745 190.661 44.5391 226.616C57.5027 262.57 70.5688 270.715 91.0861 296.841C111.602 322.969 141.413 368.135 141.206 378.749C141.114 368.133 170.165 323.284 190.963 297.379C211.76 271.475 224.913 263.472 238.264 227.66C251.614 191.847 227.876 157.628 188.998 158.017Z" fill="#F24822"/>
<path fill-rule="evenodd" clip-rule="evenodd" d="M241.469 28.2941C222.127 28.4871 218.163 50.4848 218.163 50.4848C218.163 50.4848 213.819 28.4424 194.481 28.0409C175.142 27.6389 163.148 44.5347 169.598 62.4227C176.048 80.3103 182.549 84.3625 192.756 97.3608C202.963 110.36 217.794 132.83 217.691 138.111C217.646 132.83 232.099 110.517 242.446 97.6286C252.793 84.741 259.337 80.7591 265.979 62.9421C272.621 45.1247 260.811 28.1006 241.469 28.2941Z" fill="#F24822"/>
</svg>
