<svg width="283" height="396" viewBox="0 0 283 396" fill="none" xmlns="http://www.w3.org/2000/svg">
<rect x="2.62053" y="0.502687" width="279" height="393" rx="19.5" transform="rotate(0.308765 2.62053 0.502687)" fill="#F2F2F2" stroke="#D2D2D2"/>
<path d="M80.2031 139.063C72.8595 139.024 66.1477 137.712 60.0678 135.127C53.9882 132.49 49.1647 128.714 45.5974 123.799C42.0824 118.832 40.4222 112.807 40.6166 105.725L40.6972 105.256L64.9937 105.387C64.9792 108.095 65.5908 110.573 66.8287 112.819C68.0669 115.013 69.8283 116.768 72.1129 118.082C74.4499 119.345 77.1809 119.984 80.3058 120.001C85.2016 120.028 89.0633 118.642 91.8909 115.845C94.7706 113.048 96.2231 109.306 96.2483 104.618C96.2745 99.7744 94.8107 95.9384 91.8572 93.1099C88.956 90.2296 84.6148 88.7739 78.8336 88.7428L66.8026 88.678L66.9028 70.0845L79.5588 70.1527C82.8921 70.1706 85.6818 69.5867 87.9278 68.4009C90.1741 67.163 91.8498 65.4793 92.9551 63.3498C94.1127 61.1685 94.6995 58.5935 94.7155 55.6248C94.7385 51.354 93.5593 47.884 91.1778 45.2149C88.7963 42.5458 85.3139 41.1989 80.7306 41.1742C78.0744 41.1599 75.7017 41.694 73.6125 42.7765C71.5236 43.8069 69.875 45.2824 68.6667 47.203C67.5108 49.0718 66.926 51.2822 66.9122 53.8343L42.6157 53.7034L42.462 53.2338C42.2868 47.0869 43.8265 41.6524 47.0811 36.9303C50.3358 32.2082 54.8609 28.5346 60.6564 25.9095C66.5039 23.2848 73.1516 21.9924 80.5994 22.0326C92.4742 22.0966 101.964 24.9603 109.069 30.6236C116.227 36.2352 119.778 44.1711 119.722 54.4314C119.693 59.9001 118.182 64.7097 115.191 68.8603C112.252 73.0112 107.833 76.451 101.932 79.1796C108.066 81.4523 112.813 84.8894 116.174 89.4909C119.587 94.0927 121.276 99.5185 121.243 105.768C121.205 112.695 119.402 118.649 115.834 123.63C112.265 128.611 107.401 132.439 101.24 135.114C95.08 137.789 88.0676 139.106 80.2031 139.063Z" fill="#F24822"/>
<path fill-rule="evenodd" clip-rule="evenodd" d="M178.742 180.961C147.795 181.269 141.453 216.466 141.453 216.466C141.453 216.466 134.503 181.198 103.561 180.555C72.6187 179.912 53.4293 206.946 63.7493 235.566C74.0687 264.187 84.4695 270.67 100.802 291.467C117.133 312.265 140.863 348.219 140.698 356.668C140.625 348.217 163.75 312.517 180.305 291.896C196.861 271.276 207.331 264.905 217.958 236.397C228.585 207.89 209.689 180.651 178.742 180.961Z" fill="#F24822"/>
<path fill-rule="evenodd" clip-rule="evenodd" d="M236.055 31.2634C224.45 31.3792 222.072 44.5778 222.072 44.5778C222.072 44.5778 219.465 31.3524 207.862 31.1115C196.259 30.8703 189.063 41.0078 192.933 51.7406C196.802 62.4731 200.703 64.9044 206.827 72.7034C212.952 80.5027 221.85 93.9852 221.788 97.1536C221.761 93.9847 230.433 80.5969 236.641 72.8641C242.849 65.1315 246.776 62.7424 250.761 52.0522C254.746 41.3617 247.66 31.1473 236.055 31.2634Z" fill="#F24822"/>
</svg>
