<svg width="280" height="394" viewBox="0 0 280 394" fill="none" xmlns="http://www.w3.org/2000/svg">
<rect width="280" height="394" rx="20" fill="#F2F2F2"/>
<path d="M66.1875 71.6875H76.4375C79.0625 71.6875 81.2083 71.2292 82.875 70.3125C84.5833 69.3542 85.8542 68.0208 86.6875 66.3125C87.5208 64.5625 87.9375 62.5 87.9375 60.125C87.9375 58.2917 87.5417 56.6042 86.75 55.0625C86 53.5208 84.8333 52.2917 83.25 51.375C81.6667 50.4167 79.6458 49.9375 77.1875 49.9375C75.5208 49.9375 73.8958 50.2917 72.3125 51C70.7292 51.6667 69.4167 52.625 68.375 53.875C67.375 55.125 66.875 56.6458 66.875 58.4375H45.75C45.75 53.2708 47.1667 48.8542 50 45.1875C52.875 41.4792 56.6458 38.6458 61.3125 36.6875C66.0208 34.6875 71.0833 33.6875 76.5 33.6875C82.9583 33.6875 88.625 34.6875 93.5 36.6875C98.375 38.6458 102.167 41.5625 104.875 45.4375C107.625 49.2708 109 54.0208 109 59.6875C109 62.8125 108.271 65.75 106.812 68.5C105.354 71.25 103.312 73.6667 100.688 75.75C98.0625 77.8333 94.9792 79.4792 91.4375 80.6875C87.9375 81.8542 84.1042 82.4375 79.9375 82.4375H66.1875V71.6875ZM66.1875 87.375V76.875H79.9375C84.4792 76.875 88.625 77.3958 92.375 78.4375C96.125 79.4375 99.3542 80.9375 102.062 82.9375C104.771 84.9375 106.854 87.4167 108.312 90.375C109.771 93.2917 110.5 96.6458 110.5 100.438C110.5 104.688 109.646 108.479 107.938 111.812C106.229 115.146 103.833 117.958 100.75 120.25C97.6667 122.542 94.0625 124.292 89.9375 125.5C85.8125 126.667 81.3333 127.25 76.5 127.25C72.7083 127.25 68.9167 126.75 65.125 125.75C61.3333 124.708 57.875 123.125 54.75 121C51.625 118.833 49.1042 116.083 47.1875 112.75C45.3125 109.375 44.375 105.354 44.375 100.688H65.5C65.5 102.604 66.0208 104.354 67.0625 105.938C68.1458 107.479 69.5833 108.708 71.375 109.625C73.1667 110.542 75.1042 111 77.1875 111C79.7708 111 81.9583 110.521 83.75 109.562C85.5833 108.562 86.9792 107.229 87.9375 105.562C88.8958 103.896 89.375 102.042 89.375 100C89.375 96.9167 88.8542 94.4583 87.8125 92.625C86.8125 90.7917 85.3333 89.4583 83.375 88.625C81.4583 87.7917 79.1458 87.375 76.4375 87.375H66.1875Z" fill="black"/>
<path fill-rule="evenodd" clip-rule="evenodd" d="M186.987 328.534C225.674 329.033 249.473 300.566 236.382 270.601C223.292 240.636 210.241 233.894 189.692 212.17C169.133 190.445 139.238 152.864 139.379 144C139.53 152.864 110.866 190.445 90.3069 212.17C69.7577 233.894 56.7176 240.636 43.6169 270.601C30.5264 300.566 54.3356 329.033 93.0118 328.534C119.566 328.19 131.516 310.67 136.391 299.716L136.391 314.052C136.391 314.052 127.913 365.765 68.0822 371.426L58.5444 371.426L58.5444 379.484L221.465 379.484L221.465 371.426L211.917 371.426C152.096 365.765 143.608 314.052 143.608 314.052L143.608 301.598C149.351 312.564 161.906 328.209 186.987 328.534Z" fill="#1A1919"/>
<path fill-rule="evenodd" clip-rule="evenodd" d="M236.614 112.633C254.41 112.862 265.357 99.8057 259.336 86.0632C253.314 72.3202 247.311 69.2281 237.858 59.2646C228.401 49.3011 214.649 32.0655 214.714 28C214.784 32.0655 201.598 49.3011 192.141 59.2646C182.689 69.2281 176.69 72.3202 170.664 86.0632C164.642 99.8057 175.594 112.862 193.385 112.633C205.601 112.475 211.098 104.44 213.34 99.4159L213.34 105.991C213.34 105.991 209.44 129.708 181.918 132.304L177.53 132.304L177.53 136L252.474 136L252.474 132.304L248.082 132.304C220.564 129.708 216.66 105.991 216.66 105.991L216.66 100.279C219.301 105.309 225.077 112.484 236.614 112.633Z" fill="#1A1919"/>
</svg>
