<svg width="283" height="396" viewBox="0 0 283 396" fill="none" xmlns="http://www.w3.org/2000/svg">
<rect x="2.62059" y="0.502687" width="279" height="393" rx="19.5" transform="rotate(0.308765 2.62059 0.502687)" fill="#F2F2F2" stroke="#D2D2D2"/>
<path d="M73.3371 137.386L73.4166 122.62L85.5389 120.264L85.594 110.03L40.5166 109.787L39.1747 97.8261L85.9811 23.7022L110.981 23.837L110.602 94.0703L122.555 94.1347L122.468 110.228L110.516 110.164L110.46 120.398L122.322 122.884L122.243 137.649L73.3371 137.386ZM61.9311 93.808L85.6808 93.936L85.882 56.5928L85.4141 56.434L83.3669 59.3918L61.9311 93.808Z" fill="#F24822"/>
<path fill-rule="evenodd" clip-rule="evenodd" d="M178.742 180.961C147.795 181.269 141.454 216.466 141.454 216.466C141.454 216.466 134.503 181.198 103.561 180.555C72.6188 179.912 53.4294 206.946 63.7495 235.566C74.0688 264.187 84.4696 270.67 100.802 291.467C117.133 312.265 140.863 348.219 140.698 356.668C140.625 348.217 163.75 312.517 180.306 291.896C196.861 271.276 207.331 264.905 217.958 236.397C228.585 207.89 209.689 180.651 178.742 180.961Z" fill="#F24822"/>
<path fill-rule="evenodd" clip-rule="evenodd" d="M236.055 31.2634C224.45 31.3792 222.072 44.5778 222.072 44.5778C222.072 44.5778 219.465 31.3524 207.862 31.1115C196.259 30.8703 189.063 41.0078 192.933 51.7406C196.802 62.4731 200.703 64.9044 206.827 72.7034C212.952 80.5027 221.85 93.9852 221.788 97.1536C221.761 93.9847 230.433 80.5969 236.641 72.8641C242.85 65.1315 246.776 62.7424 250.761 52.0522C254.746 41.3617 247.66 31.1473 236.055 31.2634Z" fill="#F24822"/>
</svg>
