<svg width="280" height="394" viewBox="0 0 280 394" fill="none" xmlns="http://www.w3.org/2000/svg">
<rect width="280" height="394" rx="20" fill="#F2F2F2"/>
<path d="M65 85.4375L48.25 81.5L53.75 35H106.937V51.375H70.9375L68.875 69.4375C69.875 68.8542 71.5625 68.1667 73.9375 67.375C76.3542 66.5417 79.0208 66.125 81.9375 66.125C86.4375 66.125 90.4167 66.8125 93.875 68.1875C97.375 69.5208 100.333 71.5 102.75 74.125C105.167 76.7083 106.979 79.8958 108.187 83.6875C109.437 87.4792 110.062 91.8125 110.062 96.6875C110.062 100.604 109.417 104.396 108.125 108.062C106.875 111.687 104.937 114.958 102.312 117.875C99.7292 120.75 96.4583 123.042 92.5 124.75C88.5417 126.417 83.8542 127.25 78.4375 127.25C74.3958 127.25 70.4583 126.625 66.625 125.375C62.7917 124.125 59.3333 122.333 56.25 120C53.2083 117.625 50.7917 114.771 49 111.437C47.25 108.062 46.3958 104.292 46.4375 100.125H67.625C67.75 102.333 68.2708 104.25 69.1875 105.875C70.1042 107.5 71.3333 108.771 72.875 109.687C74.4583 110.562 76.2708 111 78.3125 111C80.3958 111 82.125 110.583 83.5 109.75C84.875 108.917 85.9583 107.771 86.75 106.312C87.5417 104.854 88.1042 103.187 88.4375 101.312C88.7708 99.3958 88.9375 97.375 88.9375 95.25C88.9375 93 88.6875 90.9792 88.1875 89.1875C87.7292 87.3958 86.9792 85.875 85.9375 84.625C84.8958 83.3333 83.5417 82.3542 81.875 81.6875C80.25 81.0208 78.2917 80.6875 76 80.6875C72.9583 80.6875 70.5625 81.2083 68.8125 82.25C67.0625 83.2917 65.7917 84.3542 65 85.4375Z" fill="#050505"/>
<path fill-rule="evenodd" clip-rule="evenodd" d="M194.99 231.632C188.728 231.632 182.762 232.998 177.32 235.464C182.429 227.396 185.428 217.622 185.428 207.081C185.428 179.422 164.827 157 139.417 157C114.007 157 93.407 179.422 93.407 207.081C93.407 217.117 96.1295 226.455 100.799 234.291C96.1562 232.576 91.1851 231.632 86.01 231.632C60.5987 231.632 40 254.054 40 281.713C40 309.372 60.5987 331.794 86.01 331.794C91.7488 331.794 97.2382 330.641 102.305 328.551C102.304 328.562 123.717 322.268 137.794 294.381V311.172C137.794 311.172 130.576 364.101 79.695 369.895H71.5749V378.144H210.146V369.895H202.027C151.146 364.101 143.928 311.172 143.928 311.172V295.511C146.55 301.795 161.045 332.522 193.623 331.759C194.078 331.771 194.531 331.794 194.99 331.794C220.401 331.794 241 309.372 241 281.713C241 254.054 220.401 231.632 194.99 231.632Z" fill="#1A1919"/>
<path fill-rule="evenodd" clip-rule="evenodd" d="M234.109 64.1301C230.994 64.1301 228.026 64.8101 225.319 66.037C227.86 62.0231 229.352 57.1603 229.352 51.9161C229.352 38.1554 219.103 27 206.461 27C193.819 27 183.571 38.1554 183.571 51.9161C183.571 56.9091 184.925 61.5548 187.248 65.453C184.938 64.5999 182.465 64.1301 179.891 64.1301C167.248 64.1301 157 75.2856 157 89.0462C157 102.807 167.248 113.962 179.891 113.962C182.746 113.962 185.477 113.388 187.997 112.349C187.997 112.354 198.65 109.223 205.654 95.3486V103.702C205.654 103.702 202.063 130.036 176.749 132.918H172.709V137.022H241.65V132.918H237.611C212.296 130.036 208.705 103.702 208.705 103.702V95.9109C210.01 99.0375 217.222 114.325 233.429 113.945C233.656 113.951 233.881 113.962 234.109 113.962C246.752 113.962 257 102.807 257 89.0462C257 75.2856 246.752 64.1301 234.109 64.1301Z" fill="#1A1919"/>
</svg>
