<svg width="280" height="394" viewBox="0 0 280 394" fill="none" xmlns="http://www.w3.org/2000/svg">
<rect x="0.5" y="0.5" width="279" height="393" rx="19.5" fill="#F2F2F2" stroke="#D2D2D2"/>
<path d="M78.4375 138.641C71.3542 138.641 64.8177 137.339 58.8281 134.734C52.8385 132.078 48.0729 128.328 44.5312 123.484C41.0417 118.589 39.375 112.833 39.5312 106.219L39.6875 105.906L63.9062 104.422C63.9062 109.161 65.2344 112.885 67.8906 115.594C70.5469 118.25 74.0625 119.578 78.4375 119.578C83.3854 119.578 86.9792 117.781 89.2187 114.187C91.4583 110.594 92.5781 106.062 92.5781 100.594C92.5781 94.2917 91.3542 89.2656 88.9062 85.5156C86.5104 81.7135 82.7604 79.8125 77.6562 79.8125C73.8542 79.8125 70.8594 80.5937 68.6719 82.1562C66.4844 83.7187 64.9219 85.724 63.9844 88.1719L41.6406 86.8437L48.2031 23.25H115.312V50.2031H100.469L98.2812 42.9375H68.6719L65.5469 67.4687C66.9531 66.4792 68.5417 65.5937 70.3125 64.8125C72.1354 64.0312 74.1146 63.4062 76.25 62.9375C78.3854 62.4687 80.599 62.2344 82.8906 62.2344C90.2865 62.0781 96.5625 63.5104 101.719 66.5312C106.875 69.5 110.781 73.875 113.437 79.6562C116.094 85.3854 117.422 92.3125 117.422 100.437C117.422 107.625 115.911 114.109 112.891 119.891C109.922 125.672 105.521 130.255 99.6875 133.641C93.9062 136.974 86.8229 138.641 78.4375 138.641Z" fill="#050505"/>
<path fill-rule="evenodd" clip-rule="evenodd" d="M183.375 239.408C178.391 239.408 173.641 240.496 169.31 242.459C173.377 236.037 175.764 228.257 175.764 219.866C175.764 197.849 159.365 180 139.138 180C118.911 180 102.513 197.849 102.513 219.866C102.513 227.854 104.68 235.288 108.397 241.525C104.701 240.16 100.744 239.408 96.6249 239.408C76.397 239.408 60 257.257 60 279.274C60 301.291 76.397 319.14 96.6249 319.14C101.193 319.14 105.563 318.221 109.596 316.558C109.595 316.567 126.641 311.557 137.846 289.358V302.724C137.846 302.724 132.101 344.857 91.598 349.469H85.1342V356.035H195.44V349.469H188.977C148.474 344.857 142.729 302.724 142.729 302.724V290.257C144.816 295.26 156.354 319.719 182.287 319.112C182.649 319.121 183.01 319.14 183.375 319.14C203.603 319.14 220 301.291 220 279.274C220 257.257 203.603 239.408 183.375 239.408Z" fill="#1A1919"/>
<path fill-rule="evenodd" clip-rule="evenodd" d="M236.266 52.2781C234.397 52.2781 232.615 52.6861 230.991 53.4222C232.516 51.0139 233.411 48.0962 233.411 44.9497C233.411 36.6933 227.262 30 219.677 30C212.092 30 205.942 36.6933 205.942 44.9497C205.942 47.9454 206.755 50.7329 208.149 53.0718C206.763 52.5599 205.279 52.2781 203.734 52.2781C196.149 52.2781 190 58.9713 190 67.2277C190 75.4841 196.149 82.1774 203.734 82.1774C205.447 82.1774 207.086 81.8331 208.598 81.2092C208.598 81.2127 214.99 79.3338 219.192 71.0091V76.0215C219.192 76.0215 217.038 91.8213 201.849 93.5508H199.425V96.013H240.79V93.5508H238.366C223.178 91.8213 221.023 76.0215 221.023 76.0215V71.3465C221.806 73.2225 226.133 82.3947 235.858 82.167C235.993 82.1705 236.129 82.1774 236.266 82.1774C243.851 82.1774 250 75.4841 250 67.2277C250 58.9713 243.851 52.2781 236.266 52.2781Z" fill="#1A1919"/>
</svg>
