<svg width="280" height="394" viewBox="0 0 280 394" fill="none" xmlns="http://www.w3.org/2000/svg">
<rect width="280" height="394" rx="20" fill="#F2F2F2"/>
<path d="M65 85.4375L48.25 81.5L53.75 35H106.937V51.375H70.9375L68.875 69.4375C69.875 68.8542 71.5625 68.1667 73.9375 67.375C76.3542 66.5417 79.0208 66.125 81.9375 66.125C86.4375 66.125 90.4167 66.8125 93.875 68.1875C97.375 69.5208 100.333 71.5 102.75 74.125C105.167 76.7083 106.979 79.8958 108.187 83.6875C109.437 87.4792 110.062 91.8125 110.062 96.6875C110.062 100.604 109.417 104.396 108.125 108.062C106.875 111.687 104.937 114.958 102.312 117.875C99.7292 120.75 96.4583 123.042 92.5 124.75C88.5417 126.417 83.8542 127.25 78.4375 127.25C74.3958 127.25 70.4583 126.625 66.625 125.375C62.7917 124.125 59.3333 122.333 56.25 120C53.2083 117.625 50.7917 114.771 49 111.437C47.25 108.062 46.3958 104.292 46.4375 100.125H67.625C67.75 102.333 68.2708 104.25 69.1875 105.875C70.1042 107.5 71.3333 108.771 72.875 109.687C74.4583 110.562 76.2708 111 78.3125 111C80.3958 111 82.125 110.583 83.5 109.75C84.875 108.917 85.9583 107.771 86.75 106.312C87.5417 104.854 88.1042 103.187 88.4375 101.312C88.7708 99.3958 88.9375 97.375 88.9375 95.25C88.9375 93 88.6875 90.9792 88.1875 89.1875C87.7292 87.3958 86.9792 85.875 85.9375 84.625C84.8958 83.3333 83.5417 82.3542 81.875 81.6875C80.25 81.0208 78.2917 80.6875 76 80.6875C72.9583 80.6875 70.5625 81.2083 68.8125 82.25C67.0625 83.2917 65.7917 84.3542 65 85.4375Z" fill="#F24822"/>
<path fill-rule="evenodd" clip-rule="evenodd" d="M40 262L140.5 366L241 262L140.5 158L40 262Z" fill="#F24822"/>
<path fill-rule="evenodd" clip-rule="evenodd" d="M153 82.4997L208.5 140L264 82.4997L208.5 25L153 82.4997Z" fill="#F24822"/>
</svg>
