<svg width="283" height="396" viewBox="0 0 283 396" fill="none" xmlns="http://www.w3.org/2000/svg">
<rect x="2.12329" width="280" height="394" rx="20" transform="rotate(0.308765 2.12329 0)" fill="#F2F2F2"/>
<path d="M66.6619 85.7865L49.9334 81.7588L55.6839 35.2891L108.871 35.5758L108.782 51.9505L72.7829 51.7565L70.6231 69.8077C71.6262 69.2297 73.3174 68.5513 75.6966 67.7725C78.1178 66.9522 80.7866 66.5499 83.7032 66.5656C88.2032 66.5898 92.1786 67.2988 95.6295 68.6924C99.1222 70.0446 102.07 72.0397 104.472 74.6776C106.875 77.274 108.67 80.4712 109.858 84.2693C111.088 88.0677 111.689 92.4043 111.663 97.2792C111.642 101.196 110.976 104.984 109.664 108.644C108.395 112.262 106.44 115.522 103.799 118.425C101.2 121.286 97.9172 123.56 93.9497 125.247C89.9824 126.892 85.2905 127.7 79.8739 127.671C75.8323 127.649 71.8982 127.003 68.0717 125.732C64.2451 124.462 60.7965 122.651 57.7258 120.301C54.697 117.91 52.2957 115.043 50.522 111.7C48.7903 108.316 47.9564 104.54 48.0205 100.374L69.2077 100.488C69.3208 102.697 69.8313 104.616 70.7392 106.246C71.6471 107.876 72.8694 109.154 74.4061 110.079C75.9847 110.962 77.7948 111.409 79.8365 111.42C81.9198 111.432 83.6512 111.024 85.0306 110.198C86.4101 109.372 87.4996 108.232 88.2991 106.778C89.0986 105.324 89.6701 103.661 90.0135 101.788C90.3572 99.8728 90.5347 97.8529 90.5462 95.7279C90.5583 93.4779 90.3192 91.4558 89.8289 89.6614C89.3802 87.8673 88.6384 86.3425 87.6035 85.0869C86.5688 83.7896 85.2199 82.8032 83.5569 82.1275C81.9355 81.4521 79.979 81.1082 77.6874 81.0959C74.6457 81.0795 72.2471 81.5874 70.4915 82.6196C68.736 83.6519 67.4594 84.7075 66.6619 85.7865Z" fill="#F24822"/>
<path fill-rule="evenodd" clip-rule="evenodd" d="M188.998 158.017C150.121 158.405 142.155 202.621 142.155 202.621C142.155 202.621 133.423 158.315 94.5525 157.508C55.6812 156.7 31.5745 190.661 44.5391 226.616C57.5028 262.57 70.5689 270.715 91.0861 296.841C111.602 322.969 141.413 368.135 141.206 378.749C141.114 368.133 170.165 323.284 190.963 297.379C211.76 271.475 224.913 263.472 238.264 227.66C251.614 191.847 227.876 157.628 188.998 158.017Z" fill="#F24822"/>
<path fill-rule="evenodd" clip-rule="evenodd" d="M241.469 28.2941C222.127 28.4871 218.164 50.4848 218.164 50.4848C218.164 50.4848 213.819 28.4424 194.481 28.0409C175.142 27.6389 163.148 44.5347 169.599 62.4227C176.048 80.3103 182.549 84.3625 192.756 97.3608C202.963 110.36 217.794 132.83 217.691 138.111C217.646 132.83 232.099 110.517 242.446 97.6286C252.793 84.741 259.337 80.7591 265.979 62.9421C272.621 45.1247 260.811 28.1006 241.469 28.2941Z" fill="#F24822"/>
</svg>
