<svg width="280" height="394" viewBox="0 0 280 394" fill="none" xmlns="http://www.w3.org/2000/svg">
<rect x="0.5" y="0.5" width="279" height="393" rx="19.5" fill="#F2F2F2" stroke="#D2D2D2"/>
<path d="M78.4375 138.641C71.3542 138.641 64.8177 137.339 58.8281 134.734C52.8385 132.078 48.0729 128.328 44.5312 123.484C41.0417 118.589 39.375 112.833 39.5312 106.219L39.6875 105.906L63.9062 104.422C63.9062 109.161 65.2344 112.885 67.8906 115.594C70.5469 118.25 74.0625 119.578 78.4375 119.578C83.3854 119.578 86.9792 117.781 89.2188 114.188C91.4583 110.594 92.5781 106.062 92.5781 100.594C92.5781 94.2917 91.3542 89.2656 88.9062 85.5156C86.5104 81.7135 82.7604 79.8125 77.6562 79.8125C73.8542 79.8125 70.8594 80.5938 68.6719 82.1562C66.4844 83.7188 64.9219 85.724 63.9844 88.1719L41.6406 86.8438L48.2031 23.25H115.312V50.2031H100.469L98.2812 42.9375H68.6719L65.5469 67.4688C66.9531 66.4792 68.5417 65.5938 70.3125 64.8125C72.1354 64.0312 74.1146 63.4062 76.25 62.9375C78.3854 62.4688 80.599 62.2344 82.8906 62.2344C90.2865 62.0781 96.5625 63.5104 101.719 66.5312C106.875 69.5 110.781 73.875 113.438 79.6562C116.094 85.3854 117.422 92.3125 117.422 100.438C117.422 107.625 115.911 114.109 112.891 119.891C109.922 125.672 105.521 130.255 99.6875 133.641C93.9062 136.974 86.8229 138.641 78.4375 138.641Z" fill="black"/>
<path fill-rule="evenodd" clip-rule="evenodd" d="M177.59 323.627C208.539 324.026 227.578 301.253 217.106 277.281C206.633 253.309 196.193 247.915 179.754 230.536C163.306 213.156 139.39 183.091 139.503 176C139.624 183.091 116.693 213.156 100.246 230.536C83.8061 247.915 73.3741 253.309 62.8935 277.281C52.4211 301.253 71.4685 324.026 102.409 323.627C123.653 323.352 133.213 309.336 137.113 300.573L137.113 312.042C137.113 312.042 130.331 353.412 82.4658 357.941L74.8355 357.941L74.8355 364.387L205.172 364.387L205.172 357.941L197.534 357.941C149.677 353.412 142.886 312.042 142.886 312.042L142.886 302.079C147.481 310.851 157.525 323.368 177.59 323.627Z" fill="#1A1919"/>
<path fill-rule="evenodd" clip-rule="evenodd" d="M234.096 85.3601C245.702 85.5099 252.842 76.9697 248.915 67.9804C244.987 58.9908 241.072 56.9682 234.908 50.4509C228.74 43.9335 219.771 32.6593 219.814 30C219.859 32.6593 211.26 43.9335 205.092 50.4509C198.927 56.9682 195.015 58.9908 191.085 67.9804C187.158 76.9697 194.301 85.5099 205.904 85.3601C213.87 85.2571 217.455 80.0009 218.917 76.7147L218.917 81.0156C218.917 81.0156 216.374 96.5294 198.425 98.2277L195.563 98.2277L195.563 100.645L244.439 100.645L244.439 98.2277L241.575 98.2277C223.629 96.5294 221.082 81.0156 221.082 81.0156L221.082 77.2794C222.805 80.5692 226.572 85.2628 234.096 85.3601Z" fill="#1A1919"/>
</svg>
