<svg width="280" height="394" viewBox="0 0 280 394" fill="none" xmlns="http://www.w3.org/2000/svg">
<rect width="280" height="394" rx="20" fill="#F2F2F2"/>
<path d="M65 85.4375L48.25 81.5L53.75 35H106.938V51.375H70.9375L68.875 69.4375C69.875 68.8542 71.5625 68.1667 73.9375 67.375C76.3542 66.5417 79.0208 66.125 81.9375 66.125C86.4375 66.125 90.4167 66.8125 93.875 68.1875C97.375 69.5208 100.333 71.5 102.75 74.125C105.167 76.7083 106.979 79.8958 108.188 83.6875C109.438 87.4792 110.062 91.8125 110.062 96.6875C110.062 100.604 109.417 104.396 108.125 108.062C106.875 111.688 104.938 114.958 102.312 117.875C99.7292 120.75 96.4583 123.042 92.5 124.75C88.5417 126.417 83.8542 127.25 78.4375 127.25C74.3958 127.25 70.4583 126.625 66.625 125.375C62.7917 124.125 59.3333 122.333 56.25 120C53.2083 117.625 50.7917 114.771 49 111.438C47.25 108.062 46.3958 104.292 46.4375 100.125H67.625C67.75 102.333 68.2708 104.25 69.1875 105.875C70.1042 107.5 71.3333 108.771 72.875 109.688C74.4583 110.562 76.2708 111 78.3125 111C80.3958 111 82.125 110.583 83.5 109.75C84.875 108.917 85.9583 107.771 86.75 106.312C87.5417 104.854 88.1042 103.188 88.4375 101.312C88.7708 99.3958 88.9375 97.375 88.9375 95.25C88.9375 93 88.6875 90.9792 88.1875 89.1875C87.7292 87.3958 86.9792 85.875 85.9375 84.625C84.8958 83.3333 83.5417 82.3542 81.875 81.6875C80.25 81.0208 78.2917 80.6875 76 80.6875C72.9583 80.6875 70.5625 81.2083 68.8125 82.25C67.0625 83.2917 65.7917 84.3542 65 85.4375Z" fill="black"/>
<path fill-rule="evenodd" clip-rule="evenodd" d="M186.987 328.534C225.674 329.033 249.473 300.566 236.382 270.601C223.292 240.636 210.241 233.894 189.692 212.17C169.133 190.445 139.238 152.864 139.379 144C139.53 152.864 110.866 190.445 90.3069 212.17C69.7577 233.894 56.7176 240.636 43.6169 270.601C30.5264 300.566 54.3356 329.033 93.0118 328.534C119.566 328.19 131.516 310.67 136.391 299.716L136.391 314.052C136.391 314.052 127.913 365.765 68.0822 371.426L58.5444 371.426L58.5444 379.484L221.465 379.484L221.465 371.426L211.917 371.426C152.096 365.765 143.608 314.052 143.608 314.052L143.608 301.598C149.351 312.564 161.906 328.209 186.987 328.534Z" fill="#1A1919"/>
<path fill-rule="evenodd" clip-rule="evenodd" d="M236.614 112.633C254.41 112.862 265.357 99.8057 259.336 86.0632C253.314 72.3202 247.311 69.2281 237.858 59.2646C228.401 49.3011 214.649 32.0655 214.714 28C214.784 32.0655 201.598 49.3011 192.141 59.2646C182.689 69.2281 176.69 72.3202 170.664 86.0632C164.642 99.8057 175.594 112.862 193.385 112.633C205.601 112.475 211.098 104.44 213.34 99.4159L213.34 105.991C213.34 105.991 209.44 129.708 181.918 132.304L177.53 132.304L177.53 136L252.474 136L252.474 132.304L248.082 132.304C220.564 129.708 216.66 105.991 216.66 105.991L216.66 100.279C219.301 105.309 225.077 112.484 236.614 112.633Z" fill="#1A1919"/>
</svg>
