<svg width="280" height="394" viewBox="0 0 280 394" fill="none" xmlns="http://www.w3.org/2000/svg">
<rect width="280" height="394" rx="20" fill="#F2F2F2"/>
<path d="M94.4375 33.6875H97.8125V50.25H96.6875C92.6458 50.25 88.8542 50.8125 85.3125 51.9375C81.8125 53.0625 78.7292 54.7708 76.0625 57.0625C73.4375 59.3125 71.375 62.1667 69.875 65.625C68.4167 69.0833 67.6875 73.1458 67.6875 77.8125V93.75C67.6875 96.6667 67.9375 99.2083 68.4375 101.375C68.9375 103.542 69.6875 105.333 70.6875 106.75C71.6875 108.167 72.9167 109.229 74.375 109.937C75.875 110.646 77.6042 111 79.5625 111C81.1875 111 82.6875 110.625 84.0625 109.875C85.4375 109.125 86.625 108.062 87.625 106.687C88.6667 105.312 89.4583 103.708 90 101.875C90.5417 100.042 90.8125 98.0417 90.8125 95.875C90.8125 93.5417 90.5208 91.4375 89.9375 89.5625C89.3542 87.6875 88.5208 86.1042 87.4375 84.8125C86.3958 83.4792 85.125 82.4792 83.625 81.8125C82.1667 81.1042 80.5625 80.75 78.8125 80.75C76.1458 80.75 73.875 81.3542 72 82.5625C70.1667 83.7292 68.7708 85.2292 67.8125 87.0625C66.8958 88.8958 66.4375 90.75 66.4375 92.625L61.375 87.5C61.2917 85 61.7708 82.4167 62.8125 79.75C63.8542 77.0833 65.4167 74.6042 67.5 72.3125C69.5833 70.0208 72.1875 68.1667 75.3125 66.75C78.4375 65.3333 82.0625 64.625 86.1875 64.625C90.3542 64.625 94.0208 65.4167 97.1875 67C100.396 68.5833 103.083 70.7917 105.25 73.625C107.458 76.4583 109.125 79.7708 110.25 83.5625C111.375 87.3542 111.937 91.4583 111.937 95.875C111.937 100.333 111.146 104.479 109.562 108.312C108.021 112.104 105.833 115.417 103 118.25C100.167 121.083 96.8125 123.292 92.9375 124.875C89.0625 126.458 84.7917 127.25 80.125 127.25C75.3333 127.25 70.8958 126.437 66.8125 124.812C62.7708 123.146 59.2292 120.75 56.1875 117.625C53.1875 114.458 50.8333 110.604 49.125 106.062C47.4583 101.521 46.625 96.375 46.625 90.625V82.9375C46.625 75.1458 47.8958 68.2083 50.4375 62.125C53.0208 56.0417 56.5208 50.8958 60.9375 46.6875C65.3958 42.4375 70.5 39.2083 76.25 37C82 34.7917 88.0625 33.6875 94.4375 33.6875Z" fill="#050505"/>
<path fill-rule="evenodd" clip-rule="evenodd" d="M194.99 231.632C188.728 231.632 182.762 232.998 177.32 235.464C182.429 227.396 185.428 217.622 185.428 207.081C185.428 179.422 164.827 157 139.417 157C114.007 157 93.407 179.422 93.407 207.081C93.407 217.117 96.1295 226.455 100.799 234.291C96.1562 232.576 91.1851 231.632 86.01 231.632C60.5987 231.632 40 254.054 40 281.713C40 309.372 60.5987 331.794 86.01 331.794C91.7488 331.794 97.2382 330.641 102.305 328.551C102.304 328.562 123.717 322.268 137.794 294.381V311.172C137.794 311.172 130.576 364.101 79.695 369.895H71.5749V378.144H210.146V369.895H202.027C151.146 364.101 143.928 311.172 143.928 311.172V295.511C146.55 301.795 161.045 332.522 193.623 331.759C194.078 331.771 194.531 331.794 194.99 331.794C220.401 331.794 241 309.372 241 281.713C241 254.054 220.401 231.632 194.99 231.632Z" fill="#1A1919"/>
<path fill-rule="evenodd" clip-rule="evenodd" d="M234.109 64.1301C230.994 64.1301 228.026 64.8101 225.319 66.037C227.86 62.0231 229.352 57.1603 229.352 51.9161C229.352 38.1554 219.103 27 206.461 27C193.819 27 183.571 38.1554 183.571 51.9161C183.571 56.9091 184.925 61.5548 187.248 65.453C184.938 64.5999 182.465 64.1301 179.891 64.1301C167.248 64.1301 157 75.2856 157 89.0462C157 102.807 167.248 113.962 179.891 113.962C182.746 113.962 185.477 113.388 187.997 112.349C187.997 112.354 198.65 109.223 205.654 95.3486V103.702C205.654 103.702 202.063 130.036 176.749 132.918H172.709V137.022H241.65V132.918H237.611C212.296 130.036 208.705 103.702 208.705 103.702V95.9109C210.01 99.0375 217.222 114.325 233.429 113.945C233.656 113.951 233.881 113.962 234.109 113.962C246.752 113.962 257 102.807 257 89.0462C257 75.2856 246.752 64.1301 234.109 64.1301Z" fill="#1A1919"/>
</svg>
