<svg width="280" height="394" viewBox="0 0 280 394" fill="none" xmlns="http://www.w3.org/2000/svg">
<rect x="0.5" y="0.5" width="279" height="393" rx="19.5" fill="#F2F2F2" stroke="#D2D2D2"/>
<path d="M82.6562 138.641C74.5312 138.641 67.3437 136.818 61.0937 133.172C54.8958 129.474 50.0521 124.187 46.5625 117.312C43.125 110.385 41.4062 102.156 41.4062 92.625V71.2187C41.4062 60.8542 43.3854 51.974 47.3437 44.5781C51.3021 37.1823 56.7708 31.5052 63.75 27.5469C70.7812 23.5885 78.8542 21.6094 87.9687 21.6094C92.3958 21.6094 96.3802 22 99.9219 22.7812C103.464 23.5625 107.214 24.7865 111.172 26.4531L106.953 44.5781C104.036 43.6406 101.042 42.8594 97.9687 42.2344C94.8958 41.5573 91.8229 41.2187 88.75 41.2187C81.4062 41.2187 75.9115 43.5365 72.2656 48.1719C68.6719 52.8073 66.875 59.5781 66.875 68.4844L67.1094 68.875C69.5052 66.2187 72.6302 64.1615 76.4844 62.7031C80.3385 61.1927 84.6094 60.4375 89.2969 60.4375C96.1719 60.4375 102.031 62.1042 106.875 65.4375C111.771 68.7187 115.495 73.276 118.047 79.1094C120.651 84.9427 121.953 91.6354 121.953 99.1875C121.953 106.74 120.26 113.484 116.875 119.422C113.542 125.359 108.906 130.047 102.969 133.484C97.0833 136.922 90.3125 138.641 82.6562 138.641ZM82.1094 119.578C85.1302 119.578 87.7344 118.641 89.9219 116.766C92.1094 114.891 93.8281 112.391 95.0781 109.266C96.3281 106.089 96.9531 102.573 96.9531 98.7187C96.9531 92.9896 95.5729 88.3542 92.8125 84.8125C90.0521 81.2187 86.0677 79.4219 80.8594 79.4219C78.8802 79.4219 76.9792 79.6823 75.1562 80.2031C73.3333 80.6719 71.6667 81.375 70.1562 82.3125C68.6458 83.25 67.3698 84.3958 66.3281 85.75V92.9375C66.3281 101.427 67.7604 107.99 70.625 112.625C73.5417 117.26 77.3698 119.578 82.1094 119.578Z" fill="#050505"/>
<path fill-rule="evenodd" clip-rule="evenodd" d="M183.375 239.408C178.391 239.408 173.641 240.496 169.31 242.459C173.377 236.037 175.764 228.257 175.764 219.866C175.764 197.849 159.365 180 139.138 180C118.911 180 102.513 197.849 102.513 219.866C102.513 227.854 104.68 235.288 108.397 241.525C104.701 240.16 100.744 239.408 96.6249 239.408C76.397 239.408 60 257.257 60 279.274C60 301.291 76.397 319.14 96.6249 319.14C101.193 319.14 105.563 318.221 109.596 316.558C109.595 316.567 126.641 311.557 137.846 289.358V302.724C137.846 302.724 132.101 344.857 91.598 349.469H85.1342V356.035H195.44V349.469H188.977C148.474 344.857 142.729 302.724 142.729 302.724V290.257C144.816 295.26 156.354 319.719 182.287 319.112C182.649 319.121 183.01 319.14 183.375 319.14C203.603 319.14 220 301.291 220 279.274C220 257.257 203.603 239.408 183.375 239.408Z" fill="#1A1919"/>
<path fill-rule="evenodd" clip-rule="evenodd" d="M236.266 52.2781C234.397 52.2781 232.615 52.6861 230.991 53.4222C232.516 51.0139 233.411 48.0962 233.411 44.9497C233.411 36.6933 227.262 30 219.677 30C212.092 30 205.942 36.6933 205.942 44.9497C205.942 47.9454 206.755 50.7329 208.149 53.0718C206.763 52.5599 205.279 52.2781 203.734 52.2781C196.149 52.2781 190 58.9713 190 67.2277C190 75.4841 196.149 82.1774 203.734 82.1774C205.447 82.1774 207.086 81.8331 208.598 81.2092C208.598 81.2127 214.99 79.3338 219.192 71.0091V76.0215C219.192 76.0215 217.038 91.8213 201.849 93.5508H199.425V96.013H240.79V93.5508H238.366C223.178 91.8213 221.023 76.0215 221.023 76.0215V71.3465C221.806 73.2225 226.133 82.3947 235.858 82.167C235.993 82.1705 236.129 82.1774 236.266 82.1774C243.851 82.1774 250 75.4841 250 67.2277C250 58.9713 243.851 52.2781 236.266 52.2781Z" fill="#1A1919"/>
</svg>
