<svg width="283" height="396" viewBox="0 0 283 396" fill="none" xmlns="http://www.w3.org/2000/svg">
<rect x="2.12329" width="280" height="394" rx="20" transform="rotate(0.308765 2.12329 0)" fill="#F2F2F2"/>
<path d="M96.3779 34.1959L99.7528 34.2141L99.6636 50.7764L98.5386 50.7703C94.497 50.7485 90.7023 51.2906 87.1547 52.3965C83.6486 53.5026 80.5561 55.1943 77.8772 57.4716C75.2401 59.7074 73.1622 62.5504 71.6436 66.0006C70.1667 69.451 69.4156 73.5095 69.3905 78.1761L69.3046 94.1134C69.2889 97.03 69.5252 99.573 70.0135 101.742C70.5018 103.912 71.2421 105.707 72.2345 107.129C73.2268 108.551 74.4503 109.621 75.9048 110.337C77.4009 111.053 79.1281 111.417 81.0865 111.427C82.7114 111.436 84.2134 111.069 85.5925 110.326C86.9715 109.584 88.1647 108.528 89.1721 107.158C90.2211 105.789 91.0214 104.189 91.573 102.359C92.1245 100.528 92.4061 98.5296 92.4178 96.363C92.4304 94.0297 92.15 91.924 91.5768 90.0459C91.0036 88.1678 90.1788 86.58 89.1025 85.2825C88.068 83.9435 86.8026 82.9367 85.3062 82.262C83.8517 81.5458 82.2495 81.183 80.4995 81.1735C77.8329 81.1592 75.5588 81.7511 73.6773 82.9493C71.8377 84.1061 70.4338 85.5985 69.4656 87.4267C68.5391 89.255 68.0708 91.1067 68.0607 92.9817L63.0259 87.8295C62.956 85.3291 63.4491 82.7484 64.5051 80.0873C65.5611 77.4263 67.137 74.9556 69.2326 72.6752C71.3283 70.3948 73.9424 68.5547 77.075 67.1549C80.2076 65.7551 83.8363 65.0663 87.9613 65.0885C92.1279 65.111 95.7902 65.9224 98.9483 67.5228C102.148 69.1234 104.824 71.3462 106.975 74.1911C109.168 77.0363 110.817 80.3577 111.921 84.1554C113.026 87.9531 113.566 92.0602 113.542 96.4768C113.518 100.935 112.704 105.077 111.101 108.901C109.538 112.685 107.333 115.985 104.485 118.803C101.636 121.621 98.27 123.812 94.3865 125.374C90.503 126.936 86.228 127.705 81.5614 127.68C76.7698 127.654 72.3367 126.818 68.2622 125.171C64.2296 123.482 60.7009 121.067 57.6761 117.926C54.6932 114.743 52.3598 110.877 50.676 106.326C49.0338 101.775 48.2282 96.6249 48.2592 90.8749L48.3007 83.1876C48.3426 75.396 49.6508 68.4655 52.2253 62.3959C54.8413 56.3266 58.369 51.1997 62.8083 47.0152C67.2895 42.7893 72.411 39.5877 78.1728 37.4104C83.9346 35.2331 90.003 34.1616 96.3779 34.1959Z" fill="#F24822"/>
<path fill-rule="evenodd" clip-rule="evenodd" d="M188.998 158.017C150.121 158.405 142.155 202.621 142.155 202.621C142.155 202.621 133.423 158.315 94.5525 157.508C55.6812 156.7 31.5745 190.661 44.5391 226.616C57.5028 262.57 70.5688 270.715 91.0861 296.841C111.602 322.969 141.413 368.135 141.206 378.749C141.114 368.133 170.165 323.284 190.963 297.379C211.76 271.475 224.913 263.472 238.264 227.66C251.614 191.847 227.876 157.628 188.998 158.017Z" fill="#F24822"/>
<path fill-rule="evenodd" clip-rule="evenodd" d="M241.469 28.2941C222.127 28.4871 218.164 50.4848 218.164 50.4848C218.164 50.4848 213.819 28.4424 194.481 28.0409C175.142 27.6389 163.148 44.5347 169.598 62.4227C176.048 80.3103 182.549 84.3625 192.756 97.3608C202.963 110.36 217.794 132.83 217.691 138.111C217.646 132.83 232.099 110.517 242.446 97.6286C252.793 84.741 259.337 80.7591 265.979 62.9421C272.621 45.1247 260.811 28.1006 241.469 28.2941Z" fill="#F24822"/>
</svg>
