<svg width="280" height="394" viewBox="0 0 280 394" fill="none" xmlns="http://www.w3.org/2000/svg">
<rect width="280" height="394" rx="20" fill="#F2F2F2"/>
<path d="M94.4375 33.6875H97.8125V50.25H96.6875C92.6458 50.25 88.8542 50.8125 85.3125 51.9375C81.8125 53.0625 78.7292 54.7708 76.0625 57.0625C73.4375 59.3125 71.375 62.1667 69.875 65.625C68.4167 69.0833 67.6875 73.1458 67.6875 77.8125V93.75C67.6875 96.6667 67.9375 99.2083 68.4375 101.375C68.9375 103.542 69.6875 105.333 70.6875 106.75C71.6875 108.167 72.9167 109.229 74.375 109.938C75.875 110.646 77.6042 111 79.5625 111C81.1875 111 82.6875 110.625 84.0625 109.875C85.4375 109.125 86.625 108.062 87.625 106.688C88.6667 105.312 89.4583 103.708 90 101.875C90.5417 100.042 90.8125 98.0417 90.8125 95.875C90.8125 93.5417 90.5208 91.4375 89.9375 89.5625C89.3542 87.6875 88.5208 86.1042 87.4375 84.8125C86.3958 83.4792 85.125 82.4792 83.625 81.8125C82.1667 81.1042 80.5625 80.75 78.8125 80.75C76.1458 80.75 73.875 81.3542 72 82.5625C70.1667 83.7292 68.7708 85.2292 67.8125 87.0625C66.8958 88.8958 66.4375 90.75 66.4375 92.625L61.375 87.5C61.2917 85 61.7708 82.4167 62.8125 79.75C63.8542 77.0833 65.4167 74.6042 67.5 72.3125C69.5833 70.0208 72.1875 68.1667 75.3125 66.75C78.4375 65.3333 82.0625 64.625 86.1875 64.625C90.3542 64.625 94.0208 65.4167 97.1875 67C100.396 68.5833 103.083 70.7917 105.25 73.625C107.458 76.4583 109.125 79.7708 110.25 83.5625C111.375 87.3542 111.938 91.4583 111.938 95.875C111.938 100.333 111.146 104.479 109.562 108.312C108.021 112.104 105.833 115.417 103 118.25C100.167 121.083 96.8125 123.292 92.9375 124.875C89.0625 126.458 84.7917 127.25 80.125 127.25C75.3333 127.25 70.8958 126.438 66.8125 124.812C62.7708 123.146 59.2292 120.75 56.1875 117.625C53.1875 114.458 50.8333 110.604 49.125 106.062C47.4583 101.521 46.625 96.375 46.625 90.625V82.9375C46.625 75.1458 47.8958 68.2083 50.4375 62.125C53.0208 56.0417 56.5208 50.8958 60.9375 46.6875C65.3958 42.4375 70.5 39.2083 76.25 37C82 34.7917 88.0625 33.6875 94.4375 33.6875Z" fill="black"/>
<path fill-rule="evenodd" clip-rule="evenodd" d="M186.987 328.534C225.674 329.033 249.473 300.566 236.382 270.601C223.292 240.636 210.241 233.894 189.692 212.17C169.133 190.445 139.238 152.864 139.379 144C139.53 152.864 110.866 190.445 90.3069 212.17C69.7577 233.894 56.7176 240.636 43.6169 270.601C30.5264 300.566 54.3356 329.033 93.0118 328.534C119.566 328.19 131.516 310.67 136.391 299.716L136.391 314.052C136.391 314.052 127.913 365.765 68.0822 371.426L58.5444 371.426L58.5444 379.484L221.465 379.484L221.465 371.426L211.917 371.426C152.096 365.765 143.608 314.052 143.608 314.052L143.608 301.598C149.351 312.564 161.906 328.209 186.987 328.534Z" fill="#1A1919"/>
<path fill-rule="evenodd" clip-rule="evenodd" d="M236.614 112.633C254.41 112.862 265.357 99.8057 259.336 86.0632C253.314 72.3202 247.311 69.2281 237.858 59.2646C228.401 49.3011 214.649 32.0655 214.714 28C214.784 32.0655 201.598 49.3011 192.141 59.2646C182.689 69.2281 176.69 72.3202 170.664 86.0632C164.642 99.8057 175.594 112.862 193.385 112.633C205.601 112.475 211.098 104.44 213.34 99.4159L213.34 105.991C213.34 105.991 209.44 129.708 181.918 132.304L177.53 132.304L177.53 136L252.474 136L252.474 132.304L248.082 132.304C220.564 129.708 216.66 105.991 216.66 105.991L216.66 100.279C219.301 105.309 225.077 112.484 236.614 112.633Z" fill="#1A1919"/>
</svg>
