<svg width="280" height="394" viewBox="0 0 280 394" fill="none" xmlns="http://www.w3.org/2000/svg">
<rect x="0.5" y="0.5" width="279" height="393" rx="19.5" fill="#F2F2F2" stroke="#D2D2D2"/>
<path d="M60.1562 137L61.1719 125.672C62.3177 114.734 64.3229 104.344 67.1875 94.5C70.1042 84.6562 73.9323 75.3854 78.6719 66.6875C83.4115 57.9896 89.0885 49.8906 95.7031 42.3906H57.8125L57.0312 53.1719H38.2031V23.25H119.609V42.3906C113.724 49.2656 108.828 55.8542 104.922 62.1562C101.068 68.4583 97.9167 74.8646 95.4687 81.375C93.0729 87.8333 91.1458 94.6562 89.6875 101.844C88.2812 109.031 87.1094 116.974 86.1719 125.672L85.1562 137H60.1562Z" fill="#050505"/>
<path fill-rule="evenodd" clip-rule="evenodd" d="M183.375 239.408C178.391 239.408 173.641 240.496 169.31 242.459C173.377 236.037 175.764 228.257 175.764 219.866C175.764 197.849 159.365 180 139.138 180C118.911 180 102.513 197.849 102.513 219.866C102.513 227.854 104.68 235.288 108.397 241.525C104.701 240.16 100.744 239.408 96.6249 239.408C76.397 239.408 60 257.257 60 279.274C60 301.291 76.397 319.14 96.6249 319.14C101.193 319.14 105.563 318.221 109.596 316.558C109.595 316.567 126.641 311.557 137.846 289.358V302.724C137.846 302.724 132.101 344.857 91.598 349.469H85.1342V356.035H195.44V349.469H188.977C148.474 344.857 142.729 302.724 142.729 302.724V290.257C144.816 295.26 156.354 319.719 182.287 319.112C182.649 319.121 183.01 319.14 183.375 319.14C203.603 319.14 220 301.291 220 279.274C220 257.257 203.603 239.408 183.375 239.408Z" fill="#1A1919"/>
<path fill-rule="evenodd" clip-rule="evenodd" d="M236.266 52.2781C234.397 52.2781 232.615 52.6861 230.991 53.4222C232.516 51.0139 233.411 48.0962 233.411 44.9497C233.411 36.6933 227.262 30 219.677 30C212.092 30 205.942 36.6933 205.942 44.9497C205.942 47.9454 206.755 50.7329 208.149 53.0718C206.763 52.5599 205.279 52.2781 203.734 52.2781C196.149 52.2781 190 58.9713 190 67.2277C190 75.4841 196.149 82.1774 203.734 82.1774C205.447 82.1774 207.086 81.8331 208.598 81.2092C208.598 81.2127 214.99 79.3338 219.192 71.0091V76.0215C219.192 76.0215 217.038 91.8213 201.849 93.5508H199.425V96.013H240.79V93.5508H238.366C223.178 91.8213 221.023 76.0215 221.023 76.0215V71.3465C221.806 73.2225 226.133 82.3947 235.858 82.167C235.993 82.1705 236.129 82.1774 236.266 82.1774C243.851 82.1774 250 75.4841 250 67.2277C250 58.9713 243.851 52.2781 236.266 52.2781Z" fill="#1A1919"/>
</svg>
