<svg width="280" height="394" viewBox="0 0 280 394" fill="none" xmlns="http://www.w3.org/2000/svg">
<rect x="0.5" y="0.5" width="279" height="393" rx="19.5" fill="#F2F2F2" stroke="#D2D2D2"/>
<path d="M60.1562 137L61.1719 125.672C62.3177 114.734 64.3229 104.344 67.1875 94.5C70.1042 84.6562 73.9323 75.3854 78.6719 66.6875C83.4115 57.9896 89.0885 49.8906 95.7031 42.3906H57.8125L57.0312 53.1719H38.2031V23.25H119.609V42.3906C113.724 49.2656 108.828 55.8542 104.922 62.1562C101.068 68.4583 97.9167 74.8646 95.4687 81.375C93.0729 87.8333 91.1458 94.6562 89.6875 101.844C88.2812 109.031 87.1094 116.974 86.1719 125.672L85.1562 137H60.1562Z" fill="#F24822"/>
<path fill-rule="evenodd" clip-rule="evenodd" d="M60 279.539L140 362.08L220 279.539L140 197L60 279.539Z" fill="#F24822"/>
<path fill-rule="evenodd" clip-rule="evenodd" d="M190 60.9522L220 91.9048L250 60.9522L220 30L190 60.9522Z" fill="#F24822"/>
</svg>
