<svg width="283" height="396" viewBox="0 0 283 396" fill="none" xmlns="http://www.w3.org/2000/svg">
<rect x="2.62059" y="0.502687" width="279" height="393" rx="19.5" transform="rotate(0.308765 2.62059 0.502687)" fill="#F2F2F2" stroke="#D2D2D2"/>
<path d="M61.5405 137.322L62.6171 126C63.8219 115.069 65.8831 104.689 68.8007 94.8607C71.7703 85.0328 75.6484 75.7827 80.4347 67.1105C85.2211 58.4382 90.9418 50.37 97.5967 42.9057L59.7066 42.7015L58.8673 53.4784L40.0394 53.377L40.2007 23.4555L121.606 23.8942L121.503 43.0346C115.58 49.8777 110.649 56.4398 106.709 62.7207C102.821 69.002 99.6352 75.3911 97.1522 81.8883C94.7216 88.3336 92.7578 95.146 91.2608 102.326C89.8158 109.505 88.6011 117.442 87.6168 126.134L86.5401 137.457L61.5405 137.322Z" fill="#F24822"/>
<path fill-rule="evenodd" clip-rule="evenodd" d="M178.742 180.961C147.795 181.269 141.453 216.466 141.453 216.466C141.453 216.466 134.503 181.198 103.561 180.555C72.6187 179.912 53.4293 206.946 63.7493 235.566C74.0687 264.187 84.4695 270.67 100.802 291.467C117.133 312.265 140.863 348.219 140.698 356.668C140.625 348.217 163.75 312.517 180.305 291.896C196.861 271.276 207.331 264.905 217.958 236.397C228.585 207.89 209.689 180.651 178.742 180.961Z" fill="#F24822"/>
<path fill-rule="evenodd" clip-rule="evenodd" d="M236.055 31.2634C224.45 31.3792 222.072 44.5778 222.072 44.5778C222.072 44.5778 219.465 31.3524 207.862 31.1115C196.259 30.8703 189.063 41.0078 192.933 51.7406C196.803 62.4731 200.703 64.9044 206.827 72.7034C212.952 80.5027 221.85 93.9852 221.789 97.1536C221.761 93.9847 230.433 80.5969 236.641 72.8641C242.85 65.1315 246.776 62.7424 250.761 52.0522C254.746 41.3617 247.66 31.1473 236.055 31.2634Z" fill="#F24822"/>
</svg>
