<svg width="280" height="394" viewBox="0 0 280 394" fill="none" xmlns="http://www.w3.org/2000/svg">
<rect width="280" height="394" rx="20" fill="#F2F2F2"/>
<path d="M110.187 100.937C110.187 106.729 108.812 111.583 106.062 115.5C103.354 119.417 99.6042 122.354 94.8125 124.312C90.0625 126.271 84.6458 127.25 78.5625 127.25C72.5208 127.25 67.0833 126.271 62.25 124.312C57.4583 122.354 53.6667 119.417 50.875 115.5C48.0833 111.583 46.6875 106.729 46.6875 100.937C46.6875 96.9792 47.4792 93.4375 49.0625 90.3125C50.6875 87.1458 52.9375 84.4583 55.8125 82.25C58.6875 80.0417 62.0417 78.3542 65.875 77.1875C69.75 76.0208 73.9375 75.4375 78.4375 75.4375C84.5208 75.4375 89.9583 76.4792 94.75 78.5625C99.5417 80.6042 103.312 83.5208 106.062 87.3125C108.812 91.1042 110.187 95.6458 110.187 100.937ZM89 99.25C89 96.75 88.5625 94.6458 87.6875 92.9375C86.8125 91.1875 85.5833 89.8542 84 88.9375C82.4167 88.0208 80.5625 87.5625 78.4375 87.5625C76.3542 87.5625 74.5 88.0208 72.875 88.9375C71.2917 89.8542 70.0417 91.1875 69.125 92.9375C68.25 94.6458 67.8125 96.75 67.8125 99.25C67.8125 101.667 68.2708 103.771 69.1875 105.562C70.1042 107.312 71.3542 108.667 72.9375 109.625C74.5625 110.542 76.4375 111 78.5625 111C80.6875 111 82.5208 110.542 84.0625 109.625C85.6458 108.667 86.8542 107.312 87.6875 105.562C88.5625 103.771 89 101.667 89 99.25ZM108.312 59.3125C108.312 64.0625 107.042 68.2292 104.5 71.8125C102 75.3542 98.5 78.125 94 80.125C89.5417 82.0833 84.3958 83.0625 78.5625 83.0625C72.7708 83.0625 67.6042 82.0833 63.0625 80.125C58.5625 78.125 55.0208 75.3542 52.4375 71.8125C49.8958 68.2292 48.625 64.0625 48.625 59.3125C48.625 53.7292 49.8958 49.0417 52.4375 45.25C55.0208 41.4583 58.5625 38.5833 63.0625 36.625C67.5625 34.6667 72.6875 33.6875 78.4375 33.6875C84.2708 33.6875 89.4375 34.6667 93.9375 36.625C98.4375 38.5833 101.958 41.4583 104.5 45.25C107.042 49.0417 108.312 53.7292 108.312 59.3125ZM87.25 60.4375C87.25 58.2708 86.9167 56.4167 86.25 54.875C85.5833 53.2917 84.6042 52.0833 83.3125 51.25C82.0208 50.375 80.3958 49.9375 78.4375 49.9375C76.5625 49.9375 74.9792 50.3542 73.6875 51.1875C72.3958 52.0208 71.4167 53.2292 70.75 54.8125C70.0833 56.3542 69.75 58.2292 69.75 60.4375C69.75 62.6042 70.0833 64.5 70.75 66.125C71.4167 67.75 72.3958 69.0208 73.6875 69.9375C75.0208 70.8542 76.6458 71.3125 78.5625 71.3125C80.5208 71.3125 82.125 70.8542 83.375 69.9375C84.6667 69.0208 85.625 67.75 86.25 66.125C86.9167 64.5 87.25 62.6042 87.25 60.4375Z" fill="#F24822"/>
<path fill-rule="evenodd" clip-rule="evenodd" d="M40 262L140.5 366L241 262L140.5 158L40 262Z" fill="#F24822"/>
<path fill-rule="evenodd" clip-rule="evenodd" d="M153 82.4997L208.5 140L264 82.4997L208.5 25L153 82.4997Z" fill="#F24822"/>
</svg>
