<svg width="283" height="396" viewBox="0 0 283 396" fill="none" xmlns="http://www.w3.org/2000/svg">
<rect x="2.62059" y="0.502687" width="279" height="393" rx="19.5" transform="rotate(0.308765 2.62059 0.502687)" fill="#F2F2F2" stroke="#D2D2D2"/>
<path d="M80.4376 139.065C72.6252 139.023 65.7571 137.736 59.8331 135.204C53.9615 132.62 49.3723 128.871 46.0654 123.957C42.7588 118.992 41.1243 113.019 41.1619 106.04C41.1947 99.9464 42.9163 94.591 46.3267 89.9739C49.7373 85.3047 54.3662 81.6837 60.2135 79.1111C55.0708 76.5833 51.0528 73.1501 48.1595 68.8116C45.3185 64.4212 43.9132 59.4136 43.9435 53.7886C43.98 47.0179 45.5214 41.2709 48.5677 36.5477C51.6664 31.7726 55.9829 28.15 61.5171 25.6798C67.1034 23.2099 73.5684 21.9947 80.912 22.0343C88.2557 22.0738 94.6811 23.3585 100.188 25.8882C105.748 28.4182 110.051 32.0873 113.098 36.8954C116.145 41.6515 117.651 47.4149 117.614 54.1856C117.584 59.8106 116.073 64.8025 113.08 69.1614C110.14 73.4686 106.112 76.8584 100.994 79.3308C106.865 81.9667 111.455 85.6373 114.763 90.3427C118.123 95.0484 119.787 100.422 119.754 106.464C119.717 113.443 118.044 119.397 114.736 124.327C111.429 129.205 106.825 132.905 100.926 135.425C95.0275 137.893 88.1979 139.106 80.4376 139.065ZM80.5403 120.002C83.3528 120.018 85.8301 119.406 87.9722 118.167C90.1146 116.877 91.7911 115.063 93.0016 112.726C94.2121 110.388 94.8261 107.605 94.8435 104.376C94.8606 101.199 94.2504 98.4614 93.0127 96.1631C91.8275 93.8129 90.1445 92.0069 87.9637 90.7451C85.8351 89.4837 83.3645 88.8453 80.5521 88.8302C77.6875 88.8147 75.1842 89.4263 73.0421 90.6647C70.9 91.9032 69.2236 93.6911 68.0131 96.0283C66.8029 98.3135 66.1892 101.045 66.172 104.222C66.1459 109.065 67.4274 112.9 70.0163 115.727C72.6574 118.554 76.1654 119.979 80.5403 120.002ZM80.8123 69.5344C83.2602 69.5476 85.3466 68.9859 87.0715 67.8494C88.8487 66.661 90.2119 65.0017 91.1609 62.8713C92.1099 60.741 92.5924 58.1915 92.6084 55.2228C92.6235 52.4103 92.168 49.9599 91.2417 47.8716C90.3157 45.7311 88.9704 44.0832 87.2058 42.9279C85.4412 41.7725 83.3089 41.1881 80.8089 41.1746C77.0069 41.1541 74.0835 42.3884 72.0388 44.8774C69.9941 47.3664 68.9601 50.7724 68.9368 55.0952C68.9127 59.5743 69.9094 63.0954 71.9268 65.6584C73.9964 68.2216 76.9582 69.5136 80.8123 69.5344Z" fill="#F24822"/>
<path fill-rule="evenodd" clip-rule="evenodd" d="M178.742 180.961C147.795 181.269 141.453 216.466 141.453 216.466C141.453 216.466 134.503 181.198 103.561 180.555C72.6187 179.912 53.4293 206.946 63.7493 235.566C74.0687 264.187 84.4695 270.67 100.802 291.467C117.133 312.265 140.863 348.219 140.698 356.668C140.625 348.217 163.75 312.517 180.305 291.896C196.861 271.276 207.331 264.905 217.958 236.397C228.585 207.89 209.689 180.651 178.742 180.961Z" fill="#F24822"/>
<path fill-rule="evenodd" clip-rule="evenodd" d="M236.055 31.2634C224.45 31.3792 222.072 44.5778 222.072 44.5778C222.072 44.5778 219.465 31.3524 207.862 31.1115C196.259 30.8703 189.063 41.0078 192.933 51.7406C196.803 62.4731 200.703 64.9044 206.827 72.7034C212.952 80.5027 221.85 93.9852 221.789 97.1536C221.761 93.9847 230.433 80.5969 236.641 72.8641C242.85 65.1315 246.776 62.7424 250.761 52.0522C254.746 41.3617 247.66 31.1473 236.055 31.2634Z" fill="#F24822"/>
</svg>
