<svg width="283" height="396" viewBox="0 0 283 396" fill="none" xmlns="http://www.w3.org/2000/svg">
<rect x="2.12329" width="280" height="394" rx="20" transform="rotate(0.308765 2.12329 0)" fill="#F2F2F2"/>
<path d="M111.765 101.53C111.734 107.321 110.333 112.168 107.562 116.07C104.832 119.972 101.067 122.889 96.2645 124.822C91.504 126.754 86.0822 127.704 79.9989 127.672C73.9573 127.639 68.5252 126.631 63.7025 124.646C58.9214 122.662 55.1457 119.704 52.3751 115.772C49.6046 111.841 48.235 106.979 48.2662 101.188C48.2875 97.2294 49.0982 93.692 50.6984 90.5756C52.3404 87.4177 54.6049 84.7424 57.4917 82.5496C60.3786 80.3568 63.7418 78.6874 67.5814 77.5414C71.4626 76.3956 75.6532 75.8349 80.1531 75.8591C86.2364 75.8919 91.6682 76.9628 96.4486 79.072C101.229 81.1394 104.984 84.0764 107.714 87.8828C110.443 91.6892 111.794 96.2382 111.765 101.53ZM90.5872 99.7282C90.6006 97.2282 90.1745 95.1217 89.3087 93.4087C88.4431 91.654 87.2212 90.3141 85.6428 89.3889C84.0644 88.4637 82.2128 87.9954 80.0878 87.9839C78.0045 87.9727 76.1479 88.421 74.518 89.3289C72.9297 90.2371 71.6725 91.5636 70.7465 93.3087C69.8623 95.0123 69.4134 97.114 69.4 99.614C69.3869 102.031 69.8339 104.137 70.7409 105.934C71.6481 107.689 72.8908 109.05 74.469 110.016C76.089 110.942 77.9615 111.41 80.0865 111.422C82.2115 111.433 84.0472 110.985 85.5938 110.076C87.1823 109.127 88.3979 107.779 89.2407 106.034C90.1253 104.247 90.5741 102.145 90.5872 99.7282ZM110.115 59.8953C110.089 64.6453 108.796 68.805 106.235 72.3746C103.716 75.9027 100.201 78.6547 95.6901 80.6304C91.2213 82.5647 86.0703 83.5161 80.237 83.4847C74.4455 83.4535 69.2841 82.4465 64.7531 80.4637C60.2639 78.4395 56.7373 75.6496 54.173 72.094C51.6507 68.4971 50.4024 64.3236 50.428 59.5737C50.458 53.9904 51.7541 49.3098 54.3162 45.5319C56.9199 41.7542 60.477 38.8984 64.9875 36.9643C69.498 35.0303 74.6282 34.0787 80.3781 34.1097C86.2114 34.1411 91.3727 35.1481 95.8621 37.1307C100.351 39.1132 103.857 42.0072 106.378 45.8125C108.899 49.6178 110.145 54.3121 110.115 59.8953ZM89.0463 60.9068C89.058 58.7402 88.7347 56.8842 88.0763 55.339C87.4182 53.7521 86.4456 52.5385 85.1584 51.6982C83.8715 50.8163 82.2489 50.37 80.2905 50.3595C78.4156 50.3494 76.83 50.7575 75.5339 51.5839C74.2377 52.4102 73.2521 53.6133 72.5769 55.193C71.9019 56.731 71.5585 58.6042 71.5466 60.8125C71.5349 62.9791 71.858 64.8767 72.5159 66.5053C73.1738 68.1339 74.1461 69.41 75.4328 70.3336C76.7612 71.2574 78.3837 71.7245 80.3004 71.7348C82.2587 71.7454 83.8653 71.2957 85.1202 70.3858C86.4168 69.4761 87.382 68.2104 88.0157 66.5888C88.6911 64.9675 89.0347 63.0734 89.0463 60.9068Z" fill="#F24822"/>
<path fill-rule="evenodd" clip-rule="evenodd" d="M188.998 158.017C150.121 158.405 142.155 202.621 142.155 202.621C142.155 202.621 133.423 158.315 94.5525 157.508C55.6812 156.7 31.5745 190.661 44.5391 226.616C57.5028 262.57 70.5688 270.715 91.0861 296.841C111.602 322.969 141.413 368.135 141.206 378.749C141.114 368.133 170.165 323.284 190.963 297.379C211.76 271.475 224.913 263.472 238.264 227.66C251.614 191.847 227.876 157.628 188.998 158.017Z" fill="#F24822"/>
<path fill-rule="evenodd" clip-rule="evenodd" d="M241.469 28.2941C222.127 28.4871 218.164 50.4848 218.164 50.4848C218.164 50.4848 213.819 28.4424 194.481 28.0409C175.142 27.6389 163.148 44.5347 169.598 62.4227C176.048 80.3103 182.549 84.3625 192.756 97.3608C202.963 110.36 217.794 132.83 217.691 138.111C217.646 132.83 232.099 110.517 242.446 97.6286C252.793 84.741 259.337 80.7591 265.979 62.9421C272.621 45.1247 260.811 28.1006 241.469 28.2941Z" fill="#F24822"/>
</svg>
