<svg width="280" height="394" viewBox="0 0 280 394" fill="none" xmlns="http://www.w3.org/2000/svg">
<rect x="0.5" y="0.5" width="279" height="393" rx="19.5" fill="#F2F2F2" stroke="#D2D2D2"/>
<path d="M79.0625 138.641C71.25 138.641 64.375 137.391 58.4375 134.891C52.5521 132.339 47.9427 128.615 44.6094 123.719C41.276 118.771 39.6094 112.807 39.6094 105.828C39.6094 99.7344 41.3021 94.3698 44.6875 89.7344C48.0729 85.0469 52.6823 81.401 58.5156 78.7969C53.3594 76.2969 49.3229 72.8854 46.4062 68.5625C43.5417 64.1875 42.1094 59.1875 42.1094 53.5625C42.1094 46.7917 43.6198 41.0365 46.6406 36.2969C49.7135 31.5052 54.0104 27.8594 59.5312 25.3594C65.1042 22.8594 71.5625 21.6094 78.9062 21.6094C86.25 21.6094 92.6823 22.8594 98.2031 25.3594C103.776 27.8594 108.099 31.5052 111.172 36.2969C114.245 41.0365 115.781 46.7917 115.781 53.5625C115.781 59.1875 114.297 64.1875 111.328 68.5625C108.411 72.8854 104.401 76.2969 99.2969 78.7969C105.182 81.401 109.792 85.0469 113.125 89.7344C116.51 94.4219 118.203 99.7865 118.203 105.828C118.203 112.807 116.562 118.771 113.281 123.719C110 128.615 105.417 132.339 99.5312 134.891C93.6458 137.391 86.8229 138.641 79.0625 138.641ZM79.0625 119.578C81.875 119.578 84.349 118.953 86.4844 117.703C88.6198 116.401 90.2865 114.578 91.4844 112.234C92.6823 109.891 93.2812 107.104 93.2812 103.875C93.2812 100.698 92.6562 97.9635 91.4062 95.6719C90.2083 93.3281 88.5156 91.5312 86.3281 90.2812C84.1927 89.0312 81.7188 88.4062 78.9062 88.4062C76.0417 88.4062 73.5417 89.0312 71.4062 90.2812C69.2708 91.5312 67.6042 93.3281 66.4062 95.6719C65.2083 97.9635 64.6094 100.698 64.6094 103.875C64.6094 108.719 65.9115 112.547 68.5156 115.359C71.1719 118.172 74.6875 119.578 79.0625 119.578ZM79.0625 69.1094C81.5104 69.1094 83.5938 68.5365 85.3125 67.3906C87.0833 66.1927 88.4375 64.526 89.375 62.3906C90.3125 60.2552 90.7812 57.7031 90.7812 54.7344C90.7812 51.9219 90.3125 49.474 89.375 47.3906C88.4375 45.2552 87.0833 43.6146 85.3125 42.4688C83.5417 41.3229 81.4062 40.75 78.9062 40.75C75.1042 40.75 72.1875 42 70.1562 44.5C68.125 47 67.1094 50.4115 67.1094 54.7344C67.1094 59.2135 68.125 62.7292 70.1562 65.2812C72.2396 67.8333 75.2083 69.1094 79.0625 69.1094Z" fill="black"/>
<path fill-rule="evenodd" clip-rule="evenodd" d="M177.59 323.627C208.539 324.026 227.578 301.253 217.106 277.281C206.633 253.309 196.193 247.915 179.754 230.536C163.306 213.156 139.39 183.091 139.503 176C139.624 183.091 116.693 213.156 100.246 230.536C83.8061 247.915 73.3741 253.309 62.8935 277.281C52.4211 301.253 71.4685 324.026 102.409 323.627C123.653 323.352 133.213 309.336 137.113 300.573L137.113 312.042C137.113 312.042 130.331 353.412 82.4658 357.941L74.8355 357.941L74.8355 364.387L205.172 364.387L205.172 357.941L197.534 357.941C149.677 353.412 142.886 312.042 142.886 312.042L142.886 302.079C147.481 310.851 157.525 323.368 177.59 323.627Z" fill="#1A1919"/>
<path fill-rule="evenodd" clip-rule="evenodd" d="M234.096 85.3601C245.702 85.5099 252.842 76.9697 248.915 67.9804C244.987 58.9908 241.072 56.9682 234.908 50.4509C228.74 43.9335 219.771 32.6593 219.814 30C219.859 32.6593 211.26 43.9335 205.092 50.4509C198.927 56.9682 195.015 58.9908 191.085 67.9804C187.158 76.9697 194.301 85.5099 205.904 85.3601C213.87 85.2571 217.455 80.0009 218.917 76.7147L218.917 81.0156C218.917 81.0156 216.374 96.5294 198.425 98.2277L195.563 98.2277L195.563 100.645L244.439 100.645L244.439 98.2277L241.575 98.2277C223.629 96.5294 221.082 81.0156 221.082 81.0156L221.082 77.2794C222.805 80.5692 226.572 85.2628 234.096 85.3601Z" fill="#1A1919"/>
</svg>
