<svg width="280" height="394" viewBox="0 0 280 394" fill="none" xmlns="http://www.w3.org/2000/svg">
<rect width="280" height="394" rx="20" fill="#F2F2F2"/>
<path d="M60.3125 110.375H61.5625C65.7292 110.375 69.4792 109.917 72.8125 109C76.1458 108.083 79 106.667 81.375 104.75C83.75 102.792 85.5625 100.271 86.8125 97.1875C88.1042 94.0625 88.75 90.2917 88.75 85.875V67.0625C88.75 64.1458 88.5 61.625 88 59.5C87.5 57.3333 86.7708 55.5417 85.8125 54.125C84.8542 52.7083 83.7083 51.6667 82.375 51C81.0417 50.2917 79.5417 49.9375 77.875 49.9375C76.2083 49.9375 74.7292 50.4167 73.4375 51.375C72.1875 52.2917 71.1042 53.5417 70.1875 55.125C69.3125 56.6667 68.6458 58.4167 68.1875 60.375C67.7292 62.2917 67.5 64.2292 67.5 66.1875C67.5 68.3958 67.7292 70.4583 68.1875 72.375C68.6875 74.25 69.3958 75.8958 70.3125 77.3125C71.2708 78.6875 72.4583 79.7708 73.875 80.5625C75.3333 81.3542 77.0208 81.75 78.9375 81.75C80.8542 81.75 82.5 81.4167 83.875 80.75C85.2917 80.0417 86.4583 79.125 87.375 78C88.2917 76.8333 88.9583 75.5833 89.375 74.25C89.8333 72.9167 90.0417 71.6042 90 70.3125L96.125 75.125C96.125 77.7917 95.5208 80.4167 94.3125 83C93.1042 85.5833 91.4375 87.9375 89.3125 90.0625C87.1875 92.1458 84.7292 93.8125 81.9375 95.0625C79.1875 96.3125 76.2708 96.9375 73.1875 96.9375C69.0625 96.9375 65.3333 96.2083 62 94.75C58.7083 93.2917 55.8958 91.2083 53.5625 88.5C51.2292 85.7917 49.4375 82.5625 48.1875 78.8125C46.9792 75.0208 46.375 70.8125 46.375 66.1875C46.375 61.7292 47.1458 57.5417 48.6875 53.625C50.2292 49.7083 52.4167 46.2708 55.25 43.3125C58.0833 40.3125 61.4375 37.9583 65.3125 36.25C69.1875 34.5417 73.4375 33.6875 78.0625 33.6875C82.4375 33.6875 86.5417 34.5208 90.375 36.1875C94.2083 37.8125 97.5833 40.2083 100.5 43.375C103.417 46.5417 105.708 50.4375 107.375 55.0625C109.042 59.6875 109.875 64.9792 109.875 70.9375V78.1875C109.875 84.6458 109.083 90.4792 107.5 95.6875C105.917 100.896 103.667 105.479 100.75 109.437C97.8333 113.354 94.375 116.646 90.375 119.312C86.4167 121.937 82.0208 123.917 77.1875 125.25C72.3958 126.583 67.3125 127.25 61.9375 127.25H60.3125V110.375Z" fill="#050505"/>
<path fill-rule="evenodd" clip-rule="evenodd" d="M194.99 231.632C188.728 231.632 182.762 232.998 177.32 235.464C182.429 227.396 185.428 217.622 185.428 207.081C185.428 179.422 164.827 157 139.417 157C114.007 157 93.407 179.422 93.407 207.081C93.407 217.117 96.1295 226.455 100.799 234.291C96.1562 232.576 91.1851 231.632 86.01 231.632C60.5987 231.632 40 254.054 40 281.713C40 309.372 60.5987 331.794 86.01 331.794C91.7488 331.794 97.2382 330.641 102.305 328.551C102.304 328.562 123.717 322.268 137.794 294.381V311.172C137.794 311.172 130.576 364.101 79.695 369.895H71.5749V378.144H210.146V369.895H202.027C151.146 364.101 143.928 311.172 143.928 311.172V295.511C146.55 301.795 161.045 332.522 193.623 331.759C194.078 331.771 194.531 331.794 194.99 331.794C220.401 331.794 241 309.372 241 281.713C241 254.054 220.401 231.632 194.99 231.632Z" fill="#1A1919"/>
<path fill-rule="evenodd" clip-rule="evenodd" d="M234.109 64.1301C230.994 64.1301 228.026 64.8101 225.319 66.037C227.86 62.0231 229.352 57.1603 229.352 51.9161C229.352 38.1554 219.103 27 206.461 27C193.819 27 183.571 38.1554 183.571 51.9161C183.571 56.9091 184.925 61.5548 187.248 65.453C184.938 64.5999 182.465 64.1301 179.891 64.1301C167.248 64.1301 157 75.2856 157 89.0462C157 102.807 167.248 113.962 179.891 113.962C182.746 113.962 185.477 113.388 187.997 112.349C187.997 112.354 198.65 109.223 205.654 95.3486V103.702C205.654 103.702 202.063 130.036 176.749 132.918H172.709V137.022H241.65V132.918H237.611C212.296 130.036 208.705 103.702 208.705 103.702V95.9109C210.01 99.0375 217.222 114.325 233.429 113.945C233.656 113.951 233.881 113.962 234.109 113.962C246.752 113.962 257 102.807 257 89.0462C257 75.2856 246.752 64.1301 234.109 64.1301Z" fill="#1A1919"/>
</svg>
