<svg width="280" height="394" viewBox="0 0 280 394" fill="none" xmlns="http://www.w3.org/2000/svg">
<rect x="0.5" y="0.5" width="279" height="393" rx="19.5" fill="#F2F2F2" stroke="#D2D2D2"/>
<path d="M73.9062 138.641C69.9479 138.641 65.8594 138.224 61.6406 137.391C57.4219 136.609 53.5156 135.437 49.9219 133.875L52.5781 115.906C55.8594 117.052 59.2448 117.964 62.7344 118.641C66.276 119.266 69.5833 119.578 72.6562 119.578C79.0625 119.578 84.0885 117.469 87.7344 113.25C91.4323 109.031 93.3073 102.573 93.3594 93.875L93.2812 91.7656C90.5729 94.9948 87.4479 97.4167 83.9062 99.0312C80.4167 100.646 76.5885 101.453 72.4219 101.453C65.9115 101.453 60.1562 99.8906 55.1562 96.7656C50.2083 93.5885 46.3542 89.0833 43.5937 83.25C40.8333 77.3646 39.4531 70.3854 39.4531 62.3125C39.4531 54.6562 41.1198 47.7812 44.4531 41.6875C47.7865 35.5417 52.3958 30.6719 58.2812 27.0781C64.2187 23.4323 70.9635 21.6094 78.5156 21.6094C86.224 21.6094 93.0469 23.4583 98.9844 27.1562C104.922 30.8021 109.557 36.0885 112.891 43.0156C116.224 49.8906 117.891 58.1458 117.891 67.7812V93.7187C117.891 102.937 115.99 110.906 112.187 117.625C108.437 124.344 103.255 129.526 96.6406 133.172C90.026 136.818 82.4479 138.641 73.9062 138.641ZM78.8281 83.4844C81.6406 83.4844 84.2969 82.9115 86.7969 81.7656C89.2969 80.6198 91.3542 79.0573 92.9687 77.0781V64.8125C92.9687 56.9479 91.6406 50.9844 88.9844 46.9219C86.3281 42.8073 82.8646 40.75 78.5937 40.75C75.7292 40.75 73.2292 41.7396 71.0937 43.7187C69.0104 45.6979 67.3698 48.3281 66.1719 51.6094C65.026 54.8385 64.4531 58.4062 64.4531 62.3125C64.4531 66.5833 64.974 70.3073 66.0156 73.4844C67.0573 76.6615 68.6198 79.1354 70.7031 80.9062C72.8385 82.625 75.5469 83.4844 78.8281 83.4844Z" fill="#F24822"/>
<path fill-rule="evenodd" clip-rule="evenodd" d="M60 279.539L140 362.08L220 279.539L140 197L60 279.539Z" fill="#F24822"/>
<path fill-rule="evenodd" clip-rule="evenodd" d="M190 60.9522L220 91.9048L250 60.9522L220 30L190 60.9522Z" fill="#F24822"/>
</svg>
