<svg width="280" height="394" viewBox="0 0 280 394" fill="none" xmlns="http://www.w3.org/2000/svg">
<rect width="280" height="394" rx="20" fill="#F2F2F2"/>
<path d="M60.3125 110.375H61.5625C65.7292 110.375 69.4792 109.917 72.8125 109C76.1458 108.083 79 106.667 81.375 104.75C83.75 102.792 85.5625 100.271 86.8125 97.1875C88.1042 94.0625 88.75 90.2917 88.75 85.875V67.0625C88.75 64.1458 88.5 61.625 88 59.5C87.5 57.3333 86.7708 55.5417 85.8125 54.125C84.8542 52.7083 83.7083 51.6667 82.375 51C81.0417 50.2917 79.5417 49.9375 77.875 49.9375C76.2083 49.9375 74.7292 50.4167 73.4375 51.375C72.1875 52.2917 71.1042 53.5417 70.1875 55.125C69.3125 56.6667 68.6458 58.4167 68.1875 60.375C67.7292 62.2917 67.5 64.2292 67.5 66.1875C67.5 68.3958 67.7292 70.4583 68.1875 72.375C68.6875 74.25 69.3958 75.8958 70.3125 77.3125C71.2708 78.6875 72.4583 79.7708 73.875 80.5625C75.3333 81.3542 77.0208 81.75 78.9375 81.75C80.8542 81.75 82.5 81.4167 83.875 80.75C85.2917 80.0417 86.4583 79.125 87.375 78C88.2917 76.8333 88.9583 75.5833 89.375 74.25C89.8333 72.9167 90.0417 71.6042 90 70.3125L96.125 75.125C96.125 77.7917 95.5208 80.4167 94.3125 83C93.1042 85.5833 91.4375 87.9375 89.3125 90.0625C87.1875 92.1458 84.7292 93.8125 81.9375 95.0625C79.1875 96.3125 76.2708 96.9375 73.1875 96.9375C69.0625 96.9375 65.3333 96.2083 62 94.75C58.7083 93.2917 55.8958 91.2083 53.5625 88.5C51.2292 85.7917 49.4375 82.5625 48.1875 78.8125C46.9792 75.0208 46.375 70.8125 46.375 66.1875C46.375 61.7292 47.1458 57.5417 48.6875 53.625C50.2292 49.7083 52.4167 46.2708 55.25 43.3125C58.0833 40.3125 61.4375 37.9583 65.3125 36.25C69.1875 34.5417 73.4375 33.6875 78.0625 33.6875C82.4375 33.6875 86.5417 34.5208 90.375 36.1875C94.2083 37.8125 97.5833 40.2083 100.5 43.375C103.417 46.5417 105.708 50.4375 107.375 55.0625C109.042 59.6875 109.875 64.9792 109.875 70.9375V78.1875C109.875 84.6458 109.083 90.4792 107.5 95.6875C105.917 100.896 103.667 105.479 100.75 109.437C97.8333 113.354 94.375 116.646 90.375 119.312C86.4167 121.937 82.0208 123.917 77.1875 125.25C72.3958 126.583 67.3125 127.25 61.9375 127.25H60.3125V110.375Z" fill="#F24822"/>
<path fill-rule="evenodd" clip-rule="evenodd" d="M40 262L140.5 366L241 262L140.5 158L40 262Z" fill="#F24822"/>
<path fill-rule="evenodd" clip-rule="evenodd" d="M153 82.4997L208.5 140L264 82.4997L208.5 25L153 82.4997Z" fill="#F24822"/>
</svg>
