<svg width="283" height="396" viewBox="0 0 283 396" fill="none" xmlns="http://www.w3.org/2000/svg">
<rect x="2.62059" y="0.502687" width="279" height="393" rx="19.5" transform="rotate(0.308765 2.62059 0.502687)" fill="#F2F2F2" stroke="#D2D2D2"/>
<path d="M75.2814 139.037C71.3232 139.016 67.2369 138.577 63.0227 137.721C58.8082 136.917 54.9084 135.724 51.3231 134.142L54.0761 116.188C57.3512 117.351 60.7316 118.281 64.2175 118.977C67.7557 119.621 71.0613 119.951 74.1342 119.968C80.5403 120.002 85.5777 117.92 89.2462 113.721C92.9668 109.522 94.8766 103.074 94.9755 94.3767L94.9088 92.267C92.1831 95.4815 89.0451 97.8865 85.4947 99.482C81.9965 101.078 78.1641 101.864 73.9975 101.842C67.4872 101.807 61.7405 100.213 56.7574 97.0614C51.8266 93.8577 47.9968 89.3318 45.2679 83.4837C42.5392 77.5835 41.1966 70.597 41.2401 62.5242C41.2814 54.8681 42.9851 48.0021 46.3512 41.9264C49.7176 35.7987 54.3532 30.9538 60.2579 27.3918C66.2149 23.778 72.9694 21.9915 80.5214 22.0322C88.2296 22.0737 95.0425 23.9594 100.96 27.6893C106.878 31.367 111.485 36.6784 114.781 43.6233C118.077 50.5162 119.699 58.7803 119.647 68.4156L119.507 94.3527C119.458 103.571 117.514 111.53 113.675 118.228C109.889 124.926 104.679 130.081 98.045 133.691C91.4108 137.301 83.823 139.083 75.2814 139.037ZM80.5005 83.9079C83.3129 83.9231 85.9722 83.3645 88.4784 82.2322C90.9845 81.0998 93.0502 79.5484 94.6754 77.578L94.7415 65.3125C94.7839 57.4481 93.4879 51.4775 90.8536 47.4007C88.2196 43.2719 84.7672 41.1959 80.4964 41.1729C77.6319 41.1575 75.1266 42.1336 72.9805 44.1012C70.8865 46.0691 69.2318 48.6905 68.0162 51.9652C66.853 55.1882 66.2608 58.7527 66.2398 62.6589C66.2168 66.9297 66.7175 70.6564 67.742 73.839C68.7666 77.0217 70.3157 79.504 72.3895 81.2861C74.5156 83.0163 77.2193 83.8903 80.5005 83.9079Z" fill="#F24822"/>
<path fill-rule="evenodd" clip-rule="evenodd" d="M178.742 180.961C147.795 181.269 141.453 216.466 141.453 216.466C141.453 216.466 134.503 181.198 103.561 180.555C72.6187 179.912 53.4293 206.946 63.7493 235.566C74.0687 264.187 84.4695 270.67 100.802 291.467C117.133 312.265 140.863 348.219 140.698 356.668C140.625 348.217 163.75 312.517 180.305 291.896C196.861 271.276 207.331 264.905 217.958 236.397C228.585 207.89 209.689 180.651 178.742 180.961Z" fill="#F24822"/>
<path fill-rule="evenodd" clip-rule="evenodd" d="M236.055 31.2634C224.45 31.3792 222.072 44.5778 222.072 44.5778C222.072 44.5778 219.465 31.3524 207.862 31.1115C196.259 30.8703 189.063 41.0078 192.933 51.7406C196.803 62.4731 200.703 64.9044 206.827 72.7034C212.952 80.5027 221.85 93.9852 221.789 97.1536C221.761 93.9847 230.433 80.5969 236.641 72.8641C242.85 65.1315 246.776 62.7424 250.761 52.0522C254.746 41.3617 247.66 31.1473 236.055 31.2634Z" fill="#F24822"/>
</svg>
