<svg width="283" height="396" viewBox="0 0 283 396" fill="none" xmlns="http://www.w3.org/2000/svg">
<rect x="2.12329" width="280" height="394" rx="20" transform="rotate(0.308765 2.12329 0)" fill="#F2F2F2"/>
<path d="M61.8401 110.698L63.0901 110.705C67.2567 110.728 71.0091 110.289 74.3473 109.391C77.6856 108.492 80.5473 107.091 82.9326 105.187C85.3181 103.242 87.1442 100.73 88.4108 97.6539C89.7193 94.5359 90.3854 90.7686 90.4092 86.352L90.5106 67.5398C90.5263 64.6232 90.2899 62.101 89.8014 59.9734C89.313 57.804 88.5935 56.0085 87.6429 54.5867C86.6922 53.1648 85.552 52.117 84.2222 51.4432C82.8928 50.7277 81.3947 50.3654 79.728 50.3564C78.0614 50.3475 76.5797 50.8186 75.2829 51.77C74.0279 52.6799 72.9379 53.9241 72.0127 55.5024C71.1294 57.0394 70.4533 58.7857 69.9844 60.7416C69.5158 62.6558 69.2762 64.592 69.2656 66.5503C69.2537 68.7586 69.4718 70.8223 69.9198 72.7414C70.4097 74.6191 71.1091 76.2687 72.0181 77.6903C72.969 79.0704 74.1507 80.1602 75.5631 80.9594C77.0171 81.759 78.7025 82.1639 80.6191 82.1742C82.5357 82.1845 84.1833 81.8601 85.5619 81.2008C86.9824 80.5001 88.154 79.5898 89.0767 78.4697C89.9996 77.308 90.673 76.0616 91.0969 74.7306C91.5624 73.3997 91.7778 72.0884 91.7431 70.7965L97.842 75.6419C97.8277 78.3086 97.2094 80.9303 95.9871 83.507C94.7649 86.0838 93.0856 88.429 90.9491 90.5425C88.8129 92.6143 86.3457 94.2677 83.5473 95.5027C80.7906 96.7378 77.8706 97.3471 74.7873 97.3305C70.6624 97.3083 66.9372 96.559 63.6118 95.0827C60.328 93.6067 57.5268 91.5082 55.2081 88.7874C52.8894 86.0665 51.1151 82.8277 49.8854 79.071C48.6975 75.2729 48.116 71.0614 48.1409 66.4365C48.165 61.9782 48.9583 57.7949 50.5211 53.8866C52.0838 49.9783 54.2898 46.5526 57.1391 43.6096C59.9885 40.6249 63.3553 38.2889 67.2395 36.6014C71.1236 34.914 75.3782 34.0828 80.0031 34.1077C84.378 34.1313 88.4777 34.9867 92.302 36.674C96.1265 38.3196 99.4885 40.7336 102.388 43.916C105.288 47.0983 107.558 51.0064 109.2 55.6403C110.842 60.2743 111.647 65.5703 111.614 71.5286L111.575 78.7785C111.541 85.2367 110.717 91.0657 109.106 96.2654C107.495 101.465 105.22 106.036 102.282 109.979C99.3443 113.88 95.8683 117.153 91.854 119.798C87.8816 122.401 83.4751 124.357 78.6347 125.664C73.8359 126.972 68.7491 127.611 63.3741 127.582L61.7492 127.573L61.8401 110.698Z" fill="#F24822"/>
<path fill-rule="evenodd" clip-rule="evenodd" d="M188.998 158.017C150.121 158.405 142.155 202.621 142.155 202.621C142.155 202.621 133.423 158.315 94.5525 157.508C55.6812 156.7 31.5745 190.661 44.5391 226.616C57.5028 262.57 70.5689 270.715 91.0861 296.841C111.602 322.969 141.413 368.135 141.206 378.749C141.114 368.133 170.165 323.284 190.963 297.379C211.76 271.475 224.913 263.472 238.264 227.66C251.614 191.847 227.876 157.628 188.998 158.017Z" fill="#F24822"/>
<path fill-rule="evenodd" clip-rule="evenodd" d="M241.469 28.2941C222.127 28.4871 218.164 50.4848 218.164 50.4848C218.164 50.4848 213.819 28.4424 194.481 28.0409C175.142 27.6389 163.148 44.5347 169.599 62.4227C176.048 80.3103 182.549 84.3625 192.756 97.3608C202.963 110.36 217.794 132.83 217.691 138.111C217.646 132.83 232.099 110.517 242.446 97.6286C252.793 84.741 259.337 80.7591 265.979 62.9421C272.621 45.1247 260.811 28.1006 241.469 28.2941Z" fill="#F24822"/>
</svg>
