<svg width="280" height="394" viewBox="0 0 280 394" fill="none" xmlns="http://www.w3.org/2000/svg">
<rect width="280" height="394" rx="20" fill="#F2F2F2"/>
<path d="M60.3125 110.375H61.5625C65.7292 110.375 69.4792 109.917 72.8125 109C76.1458 108.083 79 106.667 81.375 104.75C83.75 102.792 85.5625 100.271 86.8125 97.1875C88.1042 94.0625 88.75 90.2917 88.75 85.875V67.0625C88.75 64.1458 88.5 61.625 88 59.5C87.5 57.3333 86.7708 55.5417 85.8125 54.125C84.8542 52.7083 83.7083 51.6667 82.375 51C81.0417 50.2917 79.5417 49.9375 77.875 49.9375C76.2083 49.9375 74.7292 50.4167 73.4375 51.375C72.1875 52.2917 71.1042 53.5417 70.1875 55.125C69.3125 56.6667 68.6458 58.4167 68.1875 60.375C67.7292 62.2917 67.5 64.2292 67.5 66.1875C67.5 68.3958 67.7292 70.4583 68.1875 72.375C68.6875 74.25 69.3958 75.8958 70.3125 77.3125C71.2708 78.6875 72.4583 79.7708 73.875 80.5625C75.3333 81.3542 77.0208 81.75 78.9375 81.75C80.8542 81.75 82.5 81.4167 83.875 80.75C85.2917 80.0417 86.4583 79.125 87.375 78C88.2917 76.8333 88.9583 75.5833 89.375 74.25C89.8333 72.9167 90.0417 71.6042 90 70.3125L96.125 75.125C96.125 77.7917 95.5208 80.4167 94.3125 83C93.1042 85.5833 91.4375 87.9375 89.3125 90.0625C87.1875 92.1458 84.7292 93.8125 81.9375 95.0625C79.1875 96.3125 76.2708 96.9375 73.1875 96.9375C69.0625 96.9375 65.3333 96.2083 62 94.75C58.7083 93.2917 55.8958 91.2083 53.5625 88.5C51.2292 85.7917 49.4375 82.5625 48.1875 78.8125C46.9792 75.0208 46.375 70.8125 46.375 66.1875C46.375 61.7292 47.1458 57.5417 48.6875 53.625C50.2292 49.7083 52.4167 46.2708 55.25 43.3125C58.0833 40.3125 61.4375 37.9583 65.3125 36.25C69.1875 34.5417 73.4375 33.6875 78.0625 33.6875C82.4375 33.6875 86.5417 34.5208 90.375 36.1875C94.2083 37.8125 97.5833 40.2083 100.5 43.375C103.417 46.5417 105.708 50.4375 107.375 55.0625C109.042 59.6875 109.875 64.9792 109.875 70.9375V78.1875C109.875 84.6458 109.083 90.4792 107.5 95.6875C105.917 100.896 103.667 105.479 100.75 109.438C97.8333 113.354 94.375 116.646 90.375 119.312C86.4167 121.938 82.0208 123.917 77.1875 125.25C72.3958 126.583 67.3125 127.25 61.9375 127.25H60.3125V110.375Z" fill="black"/>
<path fill-rule="evenodd" clip-rule="evenodd" d="M186.987 328.534C225.674 329.033 249.473 300.566 236.382 270.601C223.292 240.636 210.241 233.894 189.692 212.17C169.133 190.445 139.238 152.864 139.379 144C139.53 152.864 110.866 190.445 90.3069 212.17C69.7577 233.894 56.7176 240.636 43.6169 270.601C30.5264 300.566 54.3356 329.033 93.0118 328.534C119.566 328.19 131.516 310.67 136.391 299.716L136.391 314.052C136.391 314.052 127.913 365.765 68.0822 371.426L58.5444 371.426L58.5444 379.484L221.465 379.484L221.465 371.426L211.917 371.426C152.096 365.765 143.608 314.052 143.608 314.052L143.608 301.598C149.351 312.564 161.906 328.209 186.987 328.534Z" fill="#1A1919"/>
<path fill-rule="evenodd" clip-rule="evenodd" d="M236.614 112.633C254.41 112.862 265.357 99.8057 259.336 86.0632C253.314 72.3202 247.311 69.2281 237.858 59.2646C228.401 49.3011 214.649 32.0655 214.714 28C214.784 32.0655 201.598 49.3011 192.141 59.2646C182.689 69.2281 176.69 72.3202 170.664 86.0632C164.642 99.8057 175.594 112.862 193.385 112.633C205.601 112.475 211.098 104.44 213.34 99.4159L213.34 105.991C213.34 105.991 209.44 129.708 181.918 132.304L177.53 132.304L177.53 136L252.474 136L252.474 132.304L248.082 132.304C220.564 129.708 216.66 105.991 216.66 105.991L216.66 100.279C219.301 105.309 225.077 112.484 236.614 112.633Z" fill="#1A1919"/>
</svg>
