<svg width="280" height="394" viewBox="0 0 280 394" fill="none" xmlns="http://www.w3.org/2000/svg">
<rect x="0.5" y="0.5" width="279" height="393" rx="19.5" fill="#F2F2F2" stroke="#D2D2D2"/>
<path d="M37.5 137V122.234L45.625 121.062L80.7031 23.25H107.031L142.031 121.062L150.078 122.234V137H109.609L109.609 122.234L117.266 120.828L112.969 106.766H74.6094L70.4688 120.828L78.125 122.234V137H37.5ZM80.2344 88.7969H107.344L95.1562 51.9219L93.9844 48.25H93.5156L92.2656 52.2344L80.2344 88.7969Z" fill="#F24822"/>
<path fill-rule="evenodd" clip-rule="evenodd" d="M60 279.54L140 362.08L220 279.54L140 197L60 279.54Z" fill="#F24822"/>
<path fill-rule="evenodd" clip-rule="evenodd" d="M190 60.9522L220 91.9048L250 60.9522L220 30L190 60.9522Z" fill="#F24822"/>
</svg>
