<svg width="280" height="395" viewBox="0 0 280 395" fill="none" xmlns="http://www.w3.org/2000/svg">
<rect x="0.5" y="1.25159" width="279" height="393" rx="19.5" fill="#F2F2F2" stroke="#D2D2D2"/>
<path d="M37.5 137.752V122.986L45.625 121.814L80.7031 24.0016H107.031L142.031 121.814L150.078 122.986V137.752H109.609V122.986L117.266 121.58L112.969 107.517H74.6094L70.4688 121.58L78.125 122.986V137.752H37.5ZM80.2344 89.5485H107.344L95.1562 52.6735L93.9844 49.0016H93.5156L92.2656 52.986L80.2344 89.5485Z" fill="#F24822"/>
<path fill-rule="evenodd" clip-rule="evenodd" d="M177.591 180.758C146.646 181.233 140.495 216.463 140.495 216.463C140.495 216.463 133.354 181.233 102.409 180.758C71.464 180.281 52.4205 207.418 62.8947 235.982C73.3681 264.547 83.8037 270.974 100.248 291.683C116.691 312.393 140.614 348.218 140.495 356.668C140.376 348.218 163.309 312.393 179.753 291.683C196.197 270.974 206.632 264.547 217.106 235.982C227.579 207.418 208.536 180.281 177.591 180.758Z" fill="#F24822"/>
<path fill-rule="evenodd" clip-rule="evenodd" d="M234.097 30.7539C222.492 30.9323 220.186 44.1435 220.186 44.1435C220.186 44.1435 217.508 30.9323 205.903 30.7539C194.299 30.5753 187.158 40.7514 191.086 51.4632C195.013 62.1747 198.926 64.5849 205.093 72.3508C211.259 80.117 220.23 93.5513 220.186 96.7201C220.141 93.5513 228.741 80.117 234.907 72.3508C241.074 64.5849 244.987 62.1747 248.915 51.4632C252.842 40.7514 245.701 30.5753 234.097 30.7539Z" fill="#F24822"/>
</svg>
