<svg width="280" height="395" viewBox="0 0 280 395" fill="none" xmlns="http://www.w3.org/2000/svg">
<rect y="0.751587" width="280" height="394" rx="20" fill="#F2F2F2"/>
<path d="M80.375 54.8766L58.1875 126.752H34.625L68.0625 35.7516H83L80.375 54.8766ZM98.75 126.752L76.5 54.8766L73.625 35.7516H88.75L122.375 126.752H98.75ZM97.875 92.8141V109.752H51.1875V92.8141H97.875Z" fill="#F24822"/>
<path fill-rule="evenodd" clip-rule="evenodd" d="M187.724 157.759C148.85 158.357 141.121 202.615 141.121 202.615C141.121 202.615 132.151 158.357 93.2767 157.759C54.4016 157.161 30.4783 191.251 43.6364 227.135C56.7936 263.019 69.9034 271.093 90.5612 297.109C111.218 323.126 141.271 368.131 141.121 378.746C140.973 368.131 169.781 323.126 190.439 297.109C211.097 271.093 224.207 263.019 237.364 227.135C250.521 191.251 226.599 157.161 187.724 157.759Z" fill="#F24822"/>
<path fill-rule="evenodd" clip-rule="evenodd" d="M239.494 27.7555C220.154 28.0527 216.309 50.0715 216.309 50.0715C216.309 50.0715 211.846 28.0527 192.506 27.7555C173.165 27.4577 161.263 44.4179 167.809 62.2709C174.355 80.1234 180.877 84.1405 191.155 97.0836C201.432 110.027 216.384 132.418 216.309 137.699C216.235 132.418 230.568 110.027 240.845 97.0836C251.123 84.1405 257.645 80.1234 264.191 62.2709C270.737 44.4179 258.835 27.4577 239.494 27.7555Z" fill="#F24822"/>
</svg>
