<svg width="280" height="394" viewBox="0 0 280 394" fill="none" xmlns="http://www.w3.org/2000/svg">
<rect x="0.5" y="0.5" width="279" height="393" rx="19.5" fill="#F2F2F2" stroke="#D2D2D2"/>
<path d="M79.375 138.641C70.9896 138.641 63.6719 137.26 57.4219 134.5C51.224 131.74 46.3542 127.547 42.8125 121.922C39.3229 116.245 37.4219 109.057 37.1094 100.359L37.2656 99.8906H60.625C61.0937 107.286 62.7344 112.365 65.5469 115.125C68.3594 117.833 72.0052 119.187 76.4844 119.187C79.2448 119.187 81.7448 118.589 83.9844 117.391C86.276 116.193 88.125 114.344 89.5312 111.844C90.9375 109.344 91.6406 106.167 91.6406 102.312V40.5156L76.25 38.0937V23.25H128.516V38.0937L116.484 40.5156V102.312C116.484 109.76 115.026 116.219 112.109 121.687C109.245 127.104 105.052 131.297 99.5312 134.266C94.0104 137.182 87.2917 138.641 79.375 138.641Z" fill="#F24822"/>
<path fill-rule="evenodd" clip-rule="evenodd" d="M60 279.539L140 362.08L220 279.539L140 197L60 279.539Z" fill="#F24822"/>
<path fill-rule="evenodd" clip-rule="evenodd" d="M190 60.9522L220 91.9048L250 60.9522L220 30L190 60.9522Z" fill="#F24822"/>
</svg>
