<svg width="280" height="394" viewBox="0 0 280 394" fill="none" xmlns="http://www.w3.org/2000/svg">
<rect width="280" height="394" rx="20" fill="#F2F2F2"/>
<path d="M85.625 97.4375V35H107.5V97.4375C107.5 103.521 106.104 108.792 103.312 113.25C100.562 117.708 96.8125 121.167 92.0625 123.625C87.3542 126.042 82.0625 127.25 76.1875 127.25C70.1042 127.25 64.6875 126.229 59.9375 124.187C55.2292 122.146 51.5208 119 48.8125 114.75C46.1458 110.5 44.8125 105.083 44.8125 98.5H66.8125C66.8125 101.583 67.1667 104 67.875 105.75C68.5833 107.458 69.625 108.667 71 109.375C72.4167 110.042 74.1458 110.375 76.1875 110.375C78.1875 110.375 79.875 109.875 81.25 108.875C82.6667 107.833 83.75 106.354 84.5 104.437C85.25 102.479 85.625 100.146 85.625 97.4375Z" fill="#F24822"/>
<path fill-rule="evenodd" clip-rule="evenodd" d="M40 262L140.5 366L241 262L140.5 158L40 262Z" fill="#F24822"/>
<path fill-rule="evenodd" clip-rule="evenodd" d="M153 82.4997L208.5 140L264 82.4997L208.5 25L153 82.4997Z" fill="#F24822"/>
</svg>
