<svg width="283" height="396" viewBox="0 0 283 396" fill="none" xmlns="http://www.w3.org/2000/svg">
<rect x="2.12329" width="280" height="394" rx="20" transform="rotate(0.308765 2.12329 0)" fill="#F2F2F2"/>
<path d="M87.222 97.8975L87.5585 35.4609L109.433 35.5788L109.097 98.0154C109.064 104.099 107.64 109.362 104.824 113.805C102.05 118.249 98.2815 121.687 93.5183 124.119C88.797 126.511 83.4989 127.69 77.624 127.659C71.5407 127.626 66.1297 126.576 61.3907 124.509C56.6935 122.442 53.0021 119.276 50.3168 115.011C47.673 110.747 46.3689 105.323 46.4044 98.7401L68.4041 98.8586C68.3874 101.942 68.7286 104.36 69.4275 106.114C70.1266 107.826 71.1617 109.04 72.5329 109.756C73.9459 110.43 75.6733 110.773 77.7149 110.784C79.7149 110.795 81.4051 110.304 82.7854 109.311C84.2077 108.277 85.299 106.804 86.0593 104.891C86.8199 102.937 87.2074 100.606 87.222 97.8975Z" fill="#F24822"/>
<path fill-rule="evenodd" clip-rule="evenodd" d="M188.998 158.017C150.121 158.405 142.155 202.621 142.155 202.621C142.155 202.621 133.423 158.315 94.5525 157.508C55.6812 156.7 31.5745 190.661 44.5391 226.616C57.5027 262.57 70.5688 270.715 91.0861 296.841C111.602 322.969 141.413 368.135 141.206 378.749C141.114 368.133 170.165 323.284 190.963 297.379C211.76 271.475 224.913 263.472 238.264 227.66C251.614 191.847 227.876 157.628 188.998 158.017Z" fill="#F24822"/>
<path fill-rule="evenodd" clip-rule="evenodd" d="M241.469 28.2941C222.127 28.4871 218.163 50.4848 218.163 50.4848C218.163 50.4848 213.819 28.4424 194.481 28.0409C175.142 27.6389 163.148 44.5347 169.598 62.4227C176.048 80.3103 182.549 84.3625 192.756 97.3608C202.963 110.36 217.794 132.83 217.691 138.111C217.646 132.83 232.099 110.517 242.446 97.6286C252.793 84.741 259.337 80.7591 265.979 62.9421C272.621 45.1247 260.811 28.1006 241.469 28.2941Z" fill="#F24822"/>
</svg>
