<svg width="280" height="394" viewBox="0 0 280 394" fill="none" xmlns="http://www.w3.org/2000/svg">
<rect width="280" height="394" rx="20" fill="#F2F2F2"/>
<path d="M85.625 97.4375V35H107.5V97.4375C107.5 103.521 106.104 108.792 103.312 113.25C100.562 117.708 96.8125 121.167 92.0625 123.625C87.3542 126.042 82.0625 127.25 76.1875 127.25C70.1042 127.25 64.6875 126.229 59.9375 124.188C55.2292 122.146 51.5208 119 48.8125 114.75C46.1458 110.5 44.8125 105.083 44.8125 98.5H66.8125C66.8125 101.583 67.1667 104 67.875 105.75C68.5833 107.458 69.625 108.667 71 109.375C72.4167 110.042 74.1458 110.375 76.1875 110.375C78.1875 110.375 79.875 109.875 81.25 108.875C82.6667 107.833 83.75 106.354 84.5 104.438C85.25 102.479 85.625 100.146 85.625 97.4375Z" fill="black"/>
<path fill-rule="evenodd" clip-rule="evenodd" d="M186.987 328.534C225.674 329.033 249.473 300.566 236.382 270.601C223.292 240.636 210.241 233.894 189.692 212.17C169.133 190.445 139.238 152.864 139.379 144C139.53 152.864 110.866 190.445 90.3069 212.17C69.7577 233.894 56.7176 240.636 43.6169 270.601C30.5264 300.566 54.3356 329.033 93.0118 328.534C119.566 328.19 131.516 310.67 136.391 299.716L136.391 314.052C136.391 314.052 127.913 365.765 68.0822 371.426L58.5444 371.426L58.5444 379.484L221.465 379.484L221.465 371.426L211.917 371.426C152.096 365.765 143.608 314.052 143.608 314.052L143.608 301.598C149.351 312.564 161.906 328.209 186.987 328.534Z" fill="#1A1919"/>
<path fill-rule="evenodd" clip-rule="evenodd" d="M236.614 112.633C254.41 112.862 265.357 99.8057 259.336 86.0632C253.314 72.3202 247.311 69.2281 237.858 59.2646C228.401 49.3011 214.649 32.0655 214.714 28C214.784 32.0655 201.598 49.3011 192.141 59.2646C182.689 69.2281 176.69 72.3202 170.664 86.0632C164.642 99.8057 175.594 112.862 193.385 112.633C205.601 112.475 211.098 104.44 213.34 99.4159L213.34 105.991C213.34 105.991 209.44 129.708 181.918 132.304L177.53 132.304L177.53 136L252.474 136L252.474 132.304L248.082 132.304C220.564 129.708 216.66 105.991 216.66 105.991L216.66 100.279C219.301 105.309 225.077 112.484 236.614 112.633Z" fill="#1A1919"/>
</svg>
