<svg width="283" height="396" viewBox="0 0 283 396" fill="none" xmlns="http://www.w3.org/2000/svg">
<rect x="2.62035" y="0.502687" width="279" height="393" rx="19.5" transform="rotate(0.308765 2.62035 0.502687)" fill="#F2F2F2" stroke="#D2D2D2"/>
<path d="M71.3699 110.969L58.6367 96.2122L115.113 39.797L115.271 39.6416L103.245 38.6392L103.325 23.7957L153.089 24.0639L153.009 38.9074L142.295 41.0372L71.3699 110.969ZM40.1343 137.207L40.2139 122.441L52.258 120.084L52.6853 40.7887L40.6673 38.302L40.7473 23.4585L88.9497 23.7182L88.8697 38.5618L77.685 40.9234L77.2576 120.219L88.4163 122.701L88.3367 137.467L40.1343 137.207ZM105.133 137.557L105.213 122.792L116.233 121.914L116.312 121.914L88.3954 83.0911L105.513 67.1675L145.301 121.055L156.697 123.069L156.617 137.835L105.133 137.557Z" fill="#F24822"/>
<path fill-rule="evenodd" clip-rule="evenodd" d="M178.742 180.961C147.795 181.269 141.453 216.466 141.453 216.466C141.453 216.466 134.503 181.198 103.561 180.555C72.6187 179.912 53.4293 206.946 63.7493 235.566C74.0687 264.187 84.4695 270.67 100.802 291.467C117.133 312.265 140.863 348.219 140.698 356.668C140.625 348.217 163.75 312.517 180.305 291.896C196.861 271.276 207.331 264.905 217.958 236.397C228.585 207.89 209.689 180.651 178.742 180.961Z" fill="#F24822"/>
<path fill-rule="evenodd" clip-rule="evenodd" d="M236.054 31.2634C224.449 31.3792 222.071 44.5778 222.071 44.5778C222.071 44.5778 219.465 31.3524 207.862 31.1115C196.258 30.8703 189.062 41.0078 192.932 51.7406C196.802 62.4731 200.702 64.9044 206.827 72.7034C212.951 80.5027 221.85 93.9852 221.788 97.1536C221.761 93.9847 230.433 80.5969 236.641 72.8641C242.849 65.1315 246.775 62.7424 250.761 52.0522C254.746 41.3617 247.66 31.1473 236.054 31.2634Z" fill="#F24822"/>
</svg>
