<svg width="283" height="396" viewBox="0 0 283 396" fill="none" xmlns="http://www.w3.org/2000/svg">
<rect x="2.12305" width="280" height="394" rx="20" transform="rotate(0.308765 2.12305 0)" fill="#F2F2F2"/>
<path d="M68.3709 35.3575L67.8805 126.356L45.9433 126.238L46.4337 35.2393L68.3709 35.3575ZM122.683 35.6502L87.1846 81.5846L66.4383 104.036L62.5468 83.8893L75.8419 63.9607L95.6205 35.5044L122.683 35.6502ZM96.2551 126.509L72.9764 85.3831L90.1063 72.9127L122.192 126.649L96.2551 126.509Z" fill="#F24822"/>
<path fill-rule="evenodd" clip-rule="evenodd" d="M188.998 158.017C150.121 158.405 142.155 202.621 142.155 202.621C142.155 202.621 133.423 158.315 94.5522 157.508C55.6809 156.7 31.5742 190.661 44.5388 226.616C57.5025 262.57 70.5686 270.715 91.0858 296.841C111.602 322.969 141.412 368.135 141.205 378.749C141.114 368.133 170.165 323.284 190.962 297.379C211.76 271.475 224.913 263.472 238.264 227.66C251.614 191.847 227.876 157.628 188.998 158.017Z" fill="#F24822"/>
<path fill-rule="evenodd" clip-rule="evenodd" d="M241.468 28.2941C222.127 28.4871 218.163 50.4848 218.163 50.4848C218.163 50.4848 213.819 28.4424 194.48 28.0409C175.142 27.6389 163.148 44.5347 169.598 62.4227C176.048 80.3103 182.548 84.3625 192.756 97.3608C202.963 110.36 217.794 132.83 217.691 138.111C217.645 132.83 232.099 110.517 242.446 97.6286C252.793 84.741 259.337 80.7591 265.979 62.9421C272.621 45.1247 260.811 28.1006 241.468 28.2941Z" fill="#F24822"/>
</svg>
