<svg width="283" height="396" viewBox="0 0 283 396" fill="none" xmlns="http://www.w3.org/2000/svg">
<rect x="2.12329" width="280" height="394" rx="20" transform="rotate(0.308765 2.12329 0)" fill="#F2F2F2"/>
<path d="M93.5238 111.494L118.79 131.756L105.103 143.182L80.2746 122.923L93.5238 111.494ZM120.135 79.3246L120.115 83.0121C120.078 89.9703 119.065 96.2149 117.077 101.746C115.13 107.236 112.355 111.929 108.751 115.826C105.188 119.682 100.985 122.639 96.1402 124.696C91.296 126.712 85.9572 127.704 80.124 127.672C74.249 127.641 68.8796 126.591 64.0157 124.523C59.1937 122.413 55.0014 119.412 51.439 115.517C47.9185 111.582 45.1939 106.859 43.2653 101.348C41.3785 95.7963 40.4539 89.5412 40.4914 82.583L40.5112 78.8955C40.5487 71.9373 41.5407 65.6925 43.4872 60.1613C45.4754 54.6303 48.2299 49.9367 51.7507 46.0806C55.3135 42.1831 59.517 39.2265 64.3612 37.2109C69.2474 35.1539 74.6279 34.1412 80.5028 34.1729C86.3361 34.2043 91.6637 35.2747 96.4858 37.3841C101.35 39.452 105.542 42.4538 109.062 46.3895C112.625 50.2837 115.37 55.0069 117.299 60.5591C119.227 66.1112 120.173 72.3664 120.135 79.3246ZM97.803 82.8918L97.8236 79.0794C97.8478 74.5794 97.4733 70.619 96.7001 67.1981C95.9687 63.7358 94.8594 60.834 93.372 58.4926C91.8846 56.1512 90.0398 54.3912 87.8378 53.2127C85.6777 51.9927 83.2018 51.3752 80.4102 51.3601C77.4936 51.3444 74.9487 51.9349 72.7755 53.1315C70.6026 54.2865 68.7807 56.0267 67.3098 58.3521C65.8389 60.6776 64.7192 63.5674 63.9506 67.0217C63.2238 70.4345 62.8483 74.3908 62.8241 78.8908L62.8035 82.7032C62.7795 87.1615 63.1123 91.1217 63.802 94.5838C64.5336 98.0044 65.6222 100.906 67.0677 103.289C68.5548 105.672 70.3785 107.474 72.5386 108.694C74.7404 109.914 77.2996 110.532 80.2162 110.547C83.0079 110.562 85.4903 109.972 87.6634 108.775C89.8365 107.578 91.6587 105.797 93.1298 103.429C94.6426 101.063 95.7832 98.1728 96.5516 94.7602C97.3618 91.3062 97.779 87.3501 97.803 82.8918Z" fill="#F24822"/>
<path fill-rule="evenodd" clip-rule="evenodd" d="M188.998 158.017C150.121 158.405 142.155 202.621 142.155 202.621C142.155 202.621 133.423 158.315 94.5525 157.508C55.6812 156.7 31.5745 190.661 44.5391 226.616C57.5027 262.57 70.5688 270.715 91.0861 296.841C111.602 322.969 141.413 368.135 141.206 378.749C141.114 368.133 170.165 323.284 190.963 297.379C211.76 271.475 224.913 263.472 238.264 227.66C251.614 191.847 227.876 157.628 188.998 158.017Z" fill="#F24822"/>
<path fill-rule="evenodd" clip-rule="evenodd" d="M241.469 28.2941C222.127 28.4871 218.163 50.4848 218.163 50.4848C218.163 50.4848 213.819 28.4424 194.481 28.0409C175.142 27.6389 163.148 44.5347 169.598 62.4227C176.048 80.3103 182.549 84.3625 192.756 97.3608C202.963 110.36 217.794 132.83 217.691 138.111C217.646 132.83 232.099 110.517 242.446 97.6286C252.793 84.741 259.337 80.7591 265.979 62.9421C272.621 45.1247 260.811 28.1006 241.469 28.2941Z" fill="#F24822"/>
</svg>
