<svg width="280" height="394" viewBox="0 0 280 394" fill="none" xmlns="http://www.w3.org/2000/svg">
<rect x="0.5" y="0.5" width="279" height="393" rx="19.5" fill="#F2F2F2" stroke="#D2D2D2"/>
<path d="M137.344 159.734L103.828 137.625C101.953 137.885 100.104 138.12 98.2812 138.328C96.4583 138.536 94.6354 138.641 92.8125 138.641C85.0521 138.641 77.9427 137.208 71.4844 134.344C65.026 131.479 59.4531 127.469 54.7656 122.312C50.0781 117.104 46.4583 111.01 43.9062 104.031C41.4062 97 40.1562 89.3177 40.1562 80.9844V79.1875C40.1562 70.9583 41.4062 63.3542 43.9062 56.375C46.4583 49.3438 50.0781 43.224 54.7656 38.0156C59.4531 32.8073 65 28.7708 71.4062 25.9062C77.8646 23.0417 84.974 21.6094 92.7344 21.6094C100.443 21.6094 107.526 23.0417 113.984 25.9062C120.443 28.7708 126.042 32.8073 130.781 38.0156C135.573 43.224 139.271 49.3438 141.875 56.375C144.531 63.3542 145.859 70.9583 145.859 79.1875V80.9844C145.859 90.724 143.906 99.6823 140 107.859C136.094 116.036 130.99 122.703 124.688 127.859L149.297 142.703L137.344 159.734ZM92.8125 119.5C99.0104 119.5 104.193 117.885 108.359 114.656C112.526 111.427 115.651 106.948 117.734 101.219C119.87 95.4375 120.938 88.6927 120.938 80.9844V79.0312C120.938 71.4792 119.844 64.8385 117.656 59.1094C115.521 53.3802 112.344 48.901 108.125 45.6719C103.958 42.4427 98.8281 40.8281 92.7344 40.8281C86.4323 40.8281 81.25 42.4427 77.1875 45.6719C73.125 48.849 70.1042 53.3021 68.125 59.0312C66.1458 64.7083 65.1562 71.375 65.1562 79.0312V80.9844C65.1562 88.6927 66.1719 95.4375 68.2031 101.219C70.2344 107 73.3073 111.505 77.4219 114.734C81.5365 117.911 86.6667 119.5 92.8125 119.5Z" fill="black"/>
<path fill-rule="evenodd" clip-rule="evenodd" d="M177.59 323.627C208.539 324.026 227.578 301.253 217.106 277.281C206.633 253.309 196.193 247.915 179.754 230.536C163.306 213.156 139.39 183.091 139.503 176C139.624 183.091 116.693 213.156 100.246 230.536C83.8061 247.915 73.3741 253.309 62.8935 277.281C52.4211 301.253 71.4685 324.026 102.409 323.627C123.653 323.352 133.213 309.336 137.113 300.573L137.113 312.042C137.113 312.042 130.331 353.412 82.4658 357.941L74.8355 357.941L74.8355 364.387L205.172 364.387L205.172 357.941L197.534 357.941C149.677 353.412 142.886 312.042 142.886 312.042L142.886 302.079C147.481 310.851 157.525 323.368 177.59 323.627Z" fill="#1A1919"/>
<path fill-rule="evenodd" clip-rule="evenodd" d="M234.096 85.3601C245.702 85.5099 252.842 76.9697 248.915 67.9804C244.987 58.9908 241.072 56.9682 234.908 50.4509C228.74 43.9335 219.771 32.6593 219.814 30C219.859 32.6593 211.26 43.9335 205.092 50.4509C198.927 56.9682 195.015 58.9908 191.085 67.9804C187.158 76.9697 194.301 85.5099 205.904 85.3601C213.87 85.2571 217.455 80.0009 218.917 76.7147L218.917 81.0156C218.917 81.0156 216.374 96.5294 198.425 98.2277L195.563 98.2277L195.563 100.645L244.439 100.645L244.439 98.2277L241.575 98.2277C223.629 96.5294 221.082 81.0156 221.082 81.0156L221.082 77.2794C222.805 80.5692 226.572 85.2628 234.096 85.3601Z" fill="#1A1919"/>
</svg>
