<svg width="280" height="394" viewBox="0 0 280 394" fill="none" xmlns="http://www.w3.org/2000/svg">
<rect width="280" height="394" rx="20" fill="#F2F2F2"/>
<path d="M92 111L117.375 131.125L103.75 142.625L78.8125 122.5L92 111ZM118.438 78.6875V82.375C118.438 89.3333 117.458 95.5833 115.5 101.125C113.583 106.625 110.833 111.333 107.25 115.25C103.708 119.125 99.5208 122.104 94.6875 124.188C89.8542 126.229 84.5208 127.25 78.6875 127.25C72.8125 127.25 67.4375 126.229 62.5625 124.188C57.7292 122.104 53.5208 119.125 49.9375 115.25C46.3958 111.333 43.6458 106.625 41.6875 101.125C39.7708 95.5833 38.8125 89.3333 38.8125 82.375V78.6875C38.8125 71.7292 39.7708 65.4792 41.6875 59.9375C43.6458 54.3958 46.375 49.6875 49.875 45.8125C53.4167 41.8958 57.6042 38.9167 62.4375 36.875C67.3125 34.7917 72.6875 33.75 78.5625 33.75C84.3958 33.75 89.7292 34.7917 94.5625 36.875C99.4375 38.9167 103.646 41.8958 107.188 45.8125C110.771 49.6875 113.542 54.3958 115.5 59.9375C117.458 65.4792 118.438 71.7292 118.438 78.6875ZM96.125 82.375V78.5625C96.125 74.0625 95.7292 70.1042 94.9375 66.6875C94.1875 63.2292 93.0625 60.3333 91.5625 58C90.0625 55.6667 88.2083 53.9167 86 52.75C83.8333 51.5417 81.3542 50.9375 78.5625 50.9375C75.6458 50.9375 73.1042 51.5417 70.9375 52.75C68.7708 53.9167 66.9583 55.6667 65.5 58C64.0417 60.3333 62.9375 63.2292 62.1875 66.6875C61.4792 70.1042 61.125 74.0625 61.125 78.5625V82.375C61.125 86.8333 61.4792 90.7917 62.1875 94.25C62.9375 97.6667 64.0417 100.562 65.5 102.938C67 105.312 68.8333 107.104 71 108.312C73.2083 109.521 75.7708 110.125 78.6875 110.125C81.4792 110.125 83.9583 109.521 86.125 108.312C88.2917 107.104 90.1042 105.312 91.5625 102.938C93.0625 100.562 94.1875 97.6667 94.9375 94.25C95.7292 90.7917 96.125 86.8333 96.125 82.375Z" fill="black"/>
<path fill-rule="evenodd" clip-rule="evenodd" d="M186.987 328.534C225.674 329.033 249.473 300.566 236.382 270.601C223.292 240.636 210.241 233.894 189.692 212.17C169.133 190.445 139.238 152.864 139.379 144C139.53 152.864 110.866 190.445 90.3069 212.17C69.7577 233.894 56.7176 240.636 43.6169 270.601C30.5264 300.566 54.3356 329.033 93.0118 328.534C119.566 328.19 131.516 310.67 136.391 299.716L136.391 314.052C136.391 314.052 127.913 365.765 68.0822 371.426L58.5444 371.426L58.5444 379.484L221.465 379.484L221.465 371.426L211.917 371.426C152.096 365.765 143.608 314.052 143.608 314.052L143.608 301.598C149.351 312.564 161.906 328.209 186.987 328.534Z" fill="#1A1919"/>
<path fill-rule="evenodd" clip-rule="evenodd" d="M236.614 112.633C254.41 112.862 265.357 99.8057 259.336 86.0632C253.314 72.3202 247.311 69.2281 237.858 59.2646C228.401 49.3011 214.649 32.0655 214.714 28C214.784 32.0655 201.598 49.3011 192.141 59.2646C182.689 69.2281 176.69 72.3202 170.664 86.0632C164.642 99.8057 175.594 112.862 193.385 112.633C205.601 112.475 211.098 104.44 213.34 99.4159L213.34 105.991C213.34 105.991 209.44 129.708 181.918 132.304L177.53 132.304L177.53 136L252.474 136L252.474 132.304L248.082 132.304C220.564 129.708 216.66 105.991 216.66 105.991L216.66 100.279C219.301 105.309 225.077 112.484 236.614 112.633Z" fill="#1A1919"/>
</svg>
