<svg width="280" height="394" viewBox="0 0 280 394" fill="none" xmlns="http://www.w3.org/2000/svg">
<rect width="280" height="394" rx="20" fill="#F2F2F2"/>
<path d="M56.5 35V126H35.4375V58.75L14.6875 64.8125V48.8125L54.5625 35H56.5ZM147.312 72.1875V88.8125C147.312 95.3542 146.542 101.042 145 105.875C143.5 110.708 141.333 114.708 138.5 117.875C135.708 121.042 132.375 123.396 128.5 124.937C124.625 126.479 120.354 127.25 115.687 127.25C111.937 127.25 108.437 126.771 105.187 125.812C101.937 124.812 99 123.312 96.375 121.312C93.7917 119.271 91.5625 116.729 89.6875 113.687C87.8125 110.646 86.375 107.062 85.375 102.937C84.375 98.7708 83.875 94.0625 83.875 88.8125V72.1875C83.875 65.6042 84.625 59.9167 86.125 55.125C87.6667 50.2917 89.8542 46.2917 92.6875 43.125C95.5208 39.9583 98.875 37.6042 102.75 36.0625C106.625 34.5208 110.896 33.75 115.562 33.75C119.312 33.75 122.792 34.25 126 35.25C129.25 36.2083 132.187 37.7083 134.812 39.75C137.437 41.75 139.667 44.2708 141.5 47.3125C143.375 50.3542 144.812 53.9583 145.812 58.125C146.812 62.25 147.312 66.9375 147.312 72.1875ZM126.25 91.375V69.5C126.25 66.5833 126.083 64.0417 125.75 61.875C125.458 59.7083 125 57.875 124.375 56.375C123.792 54.875 123.062 53.6667 122.187 52.75C121.312 51.7917 120.312 51.1042 119.187 50.6875C118.104 50.2292 116.896 50 115.562 50C113.896 50 112.396 50.3542 111.062 51.0625C109.771 51.7292 108.667 52.8125 107.75 54.3125C106.833 55.8125 106.125 57.8125 105.625 60.3125C105.167 62.8125 104.937 65.875 104.937 69.5V91.375C104.937 94.3333 105.083 96.9167 105.375 99.125C105.708 101.292 106.167 103.146 106.75 104.687C107.375 106.187 108.125 107.417 109 108.375C109.875 109.292 110.875 109.958 112 110.375C113.125 110.792 114.354 111 115.687 111C117.312 111 118.771 110.667 120.062 110C121.354 109.333 122.458 108.25 123.375 106.75C124.333 105.208 125.042 103.187 125.5 100.687C126 98.1458 126.25 95.0417 126.25 91.375Z" fill="#050505"/>
<path fill-rule="evenodd" clip-rule="evenodd" d="M194.99 231.632C188.728 231.632 182.762 232.998 177.32 235.464C182.429 227.396 185.428 217.622 185.428 207.081C185.428 179.422 164.827 157 139.417 157C114.007 157 93.407 179.422 93.407 207.081C93.407 217.117 96.1295 226.455 100.799 234.291C96.1562 232.576 91.1851 231.632 86.01 231.632C60.5987 231.632 40 254.054 40 281.713C40 309.372 60.5987 331.794 86.01 331.794C91.7488 331.794 97.2382 330.641 102.305 328.551C102.304 328.562 123.717 322.268 137.794 294.381V311.172C137.794 311.172 130.576 364.101 79.695 369.895H71.5749V378.144H210.146V369.895H202.027C151.146 364.101 143.928 311.172 143.928 311.172V295.511C146.55 301.795 161.045 332.522 193.623 331.759C194.078 331.771 194.531 331.794 194.99 331.794C220.401 331.794 241 309.372 241 281.713C241 254.054 220.401 231.632 194.99 231.632Z" fill="#1A1919"/>
<path fill-rule="evenodd" clip-rule="evenodd" d="M234.109 64.1301C230.994 64.1301 228.026 64.8101 225.319 66.037C227.86 62.0231 229.352 57.1603 229.352 51.9161C229.352 38.1554 219.103 27 206.461 27C193.819 27 183.571 38.1554 183.571 51.9161C183.571 56.9091 184.925 61.5548 187.248 65.453C184.938 64.5999 182.465 64.1301 179.891 64.1301C167.248 64.1301 157 75.2856 157 89.0462C157 102.807 167.248 113.962 179.891 113.962C182.746 113.962 185.477 113.388 187.997 112.349C187.997 112.354 198.65 109.223 205.654 95.3486V103.702C205.654 103.702 202.063 130.036 176.749 132.918H172.709V137.022H241.65V132.918H237.611C212.296 130.036 208.705 103.702 208.705 103.702V95.9109C210.01 99.0375 217.222 114.325 233.429 113.945C233.656 113.951 233.881 113.962 234.109 113.962C246.752 113.962 257 102.807 257 89.0462C257 75.2856 246.752 64.1301 234.109 64.1301Z" fill="#1A1919"/>
</svg>
