<svg width="280" height="394" viewBox="0 0 280 394" fill="none" xmlns="http://www.w3.org/2000/svg">
<rect width="280" height="394" rx="20" fill="#F2F2F2"/>
<path d="M56.5 35V126H35.4375V58.75L14.6875 64.8125V48.8125L54.5625 35H56.5ZM147.312 72.1875V88.8125C147.312 95.3542 146.542 101.042 145 105.875C143.5 110.708 141.333 114.708 138.5 117.875C135.708 121.042 132.375 123.396 128.5 124.937C124.625 126.479 120.354 127.25 115.687 127.25C111.937 127.25 108.437 126.771 105.187 125.812C101.937 124.812 99 123.312 96.375 121.312C93.7917 119.271 91.5625 116.729 89.6875 113.687C87.8125 110.646 86.375 107.062 85.375 102.937C84.375 98.7708 83.875 94.0625 83.875 88.8125V72.1875C83.875 65.6042 84.625 59.9167 86.125 55.125C87.6667 50.2917 89.8542 46.2917 92.6875 43.125C95.5208 39.9583 98.875 37.6042 102.75 36.0625C106.625 34.5208 110.896 33.75 115.562 33.75C119.312 33.75 122.792 34.25 126 35.25C129.25 36.2083 132.187 37.7083 134.812 39.75C137.437 41.75 139.667 44.2708 141.5 47.3125C143.375 50.3542 144.812 53.9583 145.812 58.125C146.812 62.25 147.312 66.9375 147.312 72.1875ZM126.25 91.375V69.5C126.25 66.5833 126.083 64.0417 125.75 61.875C125.458 59.7083 125 57.875 124.375 56.375C123.792 54.875 123.062 53.6667 122.187 52.75C121.312 51.7917 120.312 51.1042 119.187 50.6875C118.104 50.2292 116.896 50 115.562 50C113.896 50 112.396 50.3542 111.062 51.0625C109.771 51.7292 108.667 52.8125 107.75 54.3125C106.833 55.8125 106.125 57.8125 105.625 60.3125C105.167 62.8125 104.937 65.875 104.937 69.5V91.375C104.937 94.3333 105.083 96.9167 105.375 99.125C105.708 101.292 106.167 103.146 106.75 104.687C107.375 106.187 108.125 107.417 109 108.375C109.875 109.292 110.875 109.958 112 110.375C113.125 110.792 114.354 111 115.687 111C117.312 111 118.771 110.667 120.062 110C121.354 109.333 122.458 108.25 123.375 106.75C124.333 105.208 125.042 103.187 125.5 100.687C126 98.1458 126.25 95.0417 126.25 91.375Z" fill="#F24822"/>
<path fill-rule="evenodd" clip-rule="evenodd" d="M40 262L140.5 366L241 262L140.5 158L40 262Z" fill="#F24822"/>
<path fill-rule="evenodd" clip-rule="evenodd" d="M153 82.4997L208.5 140L264 82.4997L208.5 25L153 82.4997Z" fill="#F24822"/>
</svg>
