<svg width="283" height="396" viewBox="0 0 283 396" fill="none" xmlns="http://www.w3.org/2000/svg">
<rect x="2.12329" width="280" height="394" rx="20" transform="rotate(0.308765 2.12329 0)" fill="#F2F2F2"/>
<path d="M58.4338 35.304L57.9435 126.303L36.8813 126.189L37.2437 58.9401L16.4613 64.8907L16.5475 48.8909L56.4964 35.2935L58.4338 35.304ZM149.045 72.9803L148.955 89.6051C148.92 96.1466 148.118 101.83 146.551 106.655C145.025 111.48 142.836 115.468 139.986 118.62C137.177 121.771 133.831 124.107 129.948 125.628C126.065 127.149 121.79 127.897 117.123 127.872C113.373 127.851 109.876 127.353 106.631 126.378C103.387 125.36 100.457 123.844 97.8431 121.83C95.2708 119.775 93.0554 117.221 91.1968 114.169C89.3382 111.117 87.9201 107.526 86.9423 103.396C85.9648 99.2241 85.4902 94.5131 85.5185 89.2632L85.608 72.6385C85.6435 66.0552 86.4242 60.3718 87.95 55.5883C89.5177 50.7634 91.7267 46.7752 94.577 43.6239C97.4274 40.4725 100.794 38.1365 104.677 36.6157C108.561 35.0949 112.836 34.3471 117.502 34.3723C121.252 34.3925 124.729 34.9112 127.931 35.9285C131.176 36.9043 134.106 38.4201 136.72 40.4759C139.334 42.49 141.549 45.0228 143.366 48.0744C145.225 51.1261 146.643 54.7379 147.62 58.9099C148.598 63.0403 149.073 67.7304 149.045 72.9803ZM127.879 92.054L127.997 70.1793C128.013 67.2627 127.86 64.7202 127.538 62.5518C127.258 60.3836 126.81 58.5478 126.193 57.0444C125.617 55.5413 124.895 54.3291 124.025 53.4077C123.155 52.4447 122.159 51.7518 121.036 51.3291C119.955 50.8649 118.748 50.6292 117.415 50.622C115.748 50.6131 114.246 50.9591 112.909 51.6603C111.614 52.32 110.504 53.3973 109.579 54.8924C108.654 56.3874 107.935 58.3836 107.422 60.8808C106.95 63.3783 106.704 66.4395 106.685 70.0645L106.567 91.9392C106.551 94.8975 106.683 97.4816 106.963 99.6914C107.284 101.86 107.733 103.716 108.308 105.261C108.924 106.765 109.668 107.998 110.538 108.961C111.408 109.882 112.404 110.554 113.527 110.977C114.65 111.4 115.878 111.615 117.211 111.622C118.836 111.631 120.296 111.305 121.591 110.645C122.886 109.986 123.996 108.908 124.921 107.413C125.888 105.877 126.607 103.86 127.079 101.362C127.593 98.8234 127.859 95.7206 127.879 92.054Z" fill="#F24822"/>
<path fill-rule="evenodd" clip-rule="evenodd" d="M188.998 158.017C150.121 158.405 142.155 202.621 142.155 202.621C142.155 202.621 133.423 158.315 94.5525 157.508C55.6812 156.7 31.5745 190.661 44.5391 226.616C57.5028 262.57 70.5689 270.715 91.0861 296.841C111.602 322.969 141.413 368.135 141.206 378.749C141.114 368.133 170.165 323.284 190.963 297.379C211.76 271.475 224.913 263.472 238.264 227.66C251.614 191.847 227.876 157.628 188.998 158.017Z" fill="#F24822"/>
<path fill-rule="evenodd" clip-rule="evenodd" d="M241.469 28.2941C222.127 28.4871 218.163 50.4848 218.163 50.4848C218.163 50.4848 213.819 28.4424 194.481 28.0409C175.142 27.6389 163.148 44.5347 169.598 62.4227C176.048 80.3103 182.549 84.3625 192.756 97.3608C202.963 110.36 217.794 132.83 217.691 138.111C217.646 132.83 232.099 110.517 242.446 97.6286C252.793 84.741 259.337 80.7591 265.979 62.9421C272.621 45.1247 260.811 28.1006 241.469 28.2941Z" fill="#F24822"/>
</svg>
