<svg width="283" height="396" viewBox="0 0 283 396" fill="none" xmlns="http://www.w3.org/2000/svg">
<rect x="3.4973" y="0.502687" width="279" height="393" rx="19.5" transform="rotate(0.308765 3.4973 0.502687)" fill="#F2F2F2" stroke="#D2D2D2"/>
<path d="M42.808 137.217L42.8952 121.045L79.9024 82.1031C83.4136 78.1115 86.1927 74.6369 88.24 71.6791C90.3395 68.6696 91.8386 65.9432 92.7372 63.5001C93.6361 61.0049 94.0921 58.5334 94.1053 56.0855C94.1272 52.0231 92.9999 48.5794 90.7235 45.7546C88.4993 42.878 85.1477 41.4276 80.6686 41.4035C75.877 41.3777 72.2486 42.9727 69.7833 46.1887C67.3701 49.4049 66.1484 53.8254 66.118 59.4504L41.7434 59.319L41.5897 58.8494C41.471 51.8695 42.9892 45.6016 46.1442 40.0456C49.3513 34.4899 53.9324 30.0874 59.8874 26.8382C65.8425 23.589 72.8565 21.9861 80.9293 22.0296C88.95 22.0729 95.7913 23.516 101.453 26.359C107.167 29.2024 111.547 33.1583 114.592 38.2269C117.69 43.2958 119.221 49.1895 119.185 55.9082C119.16 60.4914 118.33 64.7839 116.693 68.7855C115.058 72.7351 112.457 76.9399 108.891 81.3999C105.378 85.8081 100.74 91.0176 94.9785 97.0283L75.0994 118.015L75.2536 118.407L101.425 118.548L102.652 108.32L121.714 108.423L121.557 137.641L42.808 137.217Z" fill="#F24822"/>
<path fill-rule="evenodd" clip-rule="evenodd" d="M179.618 180.961C148.672 181.269 142.33 216.466 142.33 216.466C142.33 216.466 135.379 181.198 104.438 180.555C73.4954 179.912 54.306 206.946 64.6261 235.566C74.9454 264.187 85.3463 270.67 101.678 291.467C118.01 312.265 141.739 348.219 141.575 356.668C141.502 348.217 164.627 312.517 181.182 291.896C197.737 271.276 208.208 264.905 218.835 236.397C229.462 207.89 210.566 180.651 179.618 180.961Z" fill="#F24822"/>
<path fill-rule="evenodd" clip-rule="evenodd" d="M236.932 31.2634C225.327 31.3792 222.948 44.5778 222.948 44.5778C222.948 44.5778 220.342 31.3524 208.739 31.1115C197.135 30.8703 189.939 41.0078 193.809 51.7406C197.679 62.4731 201.58 64.9044 207.704 72.7034C213.828 80.5027 222.727 93.9852 222.665 97.1536C222.638 93.9847 231.31 80.5969 237.518 72.8641C243.726 65.1315 247.653 62.7424 251.638 52.0522C255.623 41.3617 248.537 31.1473 236.932 31.2634Z" fill="#F24822"/>
</svg>
