<svg width="280" height="394" viewBox="0 0 280 394" fill="none" xmlns="http://www.w3.org/2000/svg">
<rect x="0.5" y="0.5" width="279" height="393" rx="19.5" fill="#F2F2F2" stroke="#D2D2D2"/>
<path d="M78.8281 138.641C71.4844 138.641 64.7656 137.365 58.6719 134.812C52.5781 132.208 47.7344 128.458 44.1406 123.562C40.599 118.615 38.9062 112.599 39.0625 105.516L39.1406 105.047H63.4375C63.4375 107.755 64.0625 110.229 65.3125 112.469C66.5625 114.656 68.3333 116.401 70.625 117.703C72.9688 118.953 75.7031 119.578 78.8281 119.578C83.724 119.578 87.5781 118.172 90.3906 115.359C93.2552 112.547 94.6875 108.797 94.6875 104.109C94.6875 99.2656 93.2031 95.4375 90.2344 92.625C87.3177 89.7604 82.9688 88.3281 77.1875 88.3281H65.1562V69.7344H77.8125C81.1458 69.7344 83.9323 69.1354 86.1719 67.9375C88.4115 66.6875 90.0781 64.9948 91.1719 62.8594C92.3177 60.6719 92.8906 58.0938 92.8906 55.125C92.8906 50.8542 91.6927 47.3906 89.2969 44.7344C86.901 42.0781 83.4115 40.75 78.8281 40.75C76.1719 40.75 73.8021 41.2969 71.7188 42.3906C69.6354 43.4323 67.9948 44.9167 66.7969 46.8438C65.651 48.7188 65.0781 50.9323 65.0781 53.4844H40.7812L40.625 53.0156C40.4167 46.8698 41.9271 41.4271 45.1562 36.6875C48.3854 31.9479 52.8906 28.25 58.6719 25.5938C64.5052 22.9375 71.1458 21.6094 78.5938 21.6094C90.4688 21.6094 99.974 24.4219 107.109 30.0469C114.297 35.6198 117.891 43.5365 117.891 53.7969C117.891 59.2656 116.406 64.0833 113.438 68.25C110.521 72.4167 106.12 75.8802 100.234 78.6406C106.38 80.8802 111.146 84.2917 114.531 88.875C117.969 93.4583 119.688 98.875 119.688 105.125C119.688 112.052 117.917 118.016 114.375 123.016C110.833 128.016 105.99 131.87 99.8438 134.578C93.6979 137.286 86.6927 138.641 78.8281 138.641Z" fill="black"/>
<path fill-rule="evenodd" clip-rule="evenodd" d="M177.59 323.627C208.539 324.026 227.578 301.253 217.106 277.281C206.633 253.309 196.193 247.915 179.754 230.536C163.306 213.156 139.39 183.091 139.503 176C139.624 183.091 116.693 213.156 100.246 230.536C83.8061 247.915 73.3741 253.309 62.8935 277.281C52.4211 301.253 71.4685 324.026 102.409 323.627C123.653 323.352 133.213 309.336 137.113 300.573L137.113 312.042C137.113 312.042 130.331 353.412 82.4658 357.941L74.8355 357.941L74.8355 364.387L205.172 364.387L205.172 357.941L197.534 357.941C149.677 353.412 142.886 312.042 142.886 312.042L142.886 302.079C147.481 310.851 157.525 323.368 177.59 323.627Z" fill="#1A1919"/>
<path fill-rule="evenodd" clip-rule="evenodd" d="M234.096 85.3601C245.702 85.5099 252.842 76.9697 248.915 67.9804C244.987 58.9908 241.072 56.9682 234.908 50.4509C228.74 43.9335 219.771 32.6593 219.814 30C219.859 32.6593 211.26 43.9335 205.092 50.4509C198.927 56.9682 195.015 58.9908 191.085 67.9804C187.158 76.9697 194.301 85.5099 205.904 85.3601C213.87 85.2571 217.455 80.0009 218.917 76.7147L218.917 81.0156C218.917 81.0156 216.374 96.5294 198.425 98.2277L195.563 98.2277L195.563 100.645L244.439 100.645L244.439 98.2277L241.575 98.2277C223.629 96.5294 221.082 81.0156 221.082 81.0156L221.082 77.2794C222.805 80.5692 226.572 85.2628 234.096 85.3601Z" fill="#1A1919"/>
</svg>
