<svg width="280" height="394" viewBox="0 0 280 394" fill="none" xmlns="http://www.w3.org/2000/svg">
<rect x="0.5" y="0.5" width="279" height="393" rx="19.5" fill="#F2F2F2" stroke="#D2D2D2"/>
<path d="M78.4375 138.641C71.3542 138.641 64.8177 137.339 58.8281 134.734C52.8385 132.078 48.0729 128.328 44.5312 123.484C41.0417 118.589 39.375 112.833 39.5312 106.219L39.6875 105.906L63.9062 104.422C63.9062 109.161 65.2344 112.885 67.8906 115.594C70.5469 118.25 74.0625 119.578 78.4375 119.578C83.3854 119.578 86.9792 117.781 89.2187 114.187C91.4583 110.594 92.5781 106.062 92.5781 100.594C92.5781 94.2917 91.3542 89.2656 88.9062 85.5156C86.5104 81.7135 82.7604 79.8125 77.6562 79.8125C73.8542 79.8125 70.8594 80.5937 68.6719 82.1562C66.4844 83.7187 64.9219 85.724 63.9844 88.1719L41.6406 86.8437L48.2031 23.25H115.312V50.2031H100.469L98.2812 42.9375H68.6719L65.5469 67.4687C66.9531 66.4792 68.5417 65.5937 70.3125 64.8125C72.1354 64.0312 74.1146 63.4062 76.25 62.9375C78.3854 62.4687 80.599 62.2344 82.8906 62.2344C90.2865 62.0781 96.5625 63.5104 101.719 66.5312C106.875 69.5 110.781 73.875 113.437 79.6562C116.094 85.3854 117.422 92.3125 117.422 100.437C117.422 107.625 115.911 114.109 112.891 119.891C109.922 125.672 105.521 130.255 99.6875 133.641C93.9062 136.974 86.8229 138.641 78.4375 138.641Z" fill="#F24822"/>
<path fill-rule="evenodd" clip-rule="evenodd" d="M60 279.539L140 362.08L220 279.539L140 197L60 279.539Z" fill="#F24822"/>
<path fill-rule="evenodd" clip-rule="evenodd" d="M190 60.9522L220 91.9048L250 60.9522L220 30L190 60.9522Z" fill="#F24822"/>
</svg>
