<svg width="283" height="396" viewBox="0 0 283 396" fill="none" xmlns="http://www.w3.org/2000/svg">
<rect x="2.62059" y="0.502687" width="279" height="393" rx="19.5" transform="rotate(0.308765 2.62059 0.502687)" fill="#F2F2F2" stroke="#D2D2D2"/>
<path d="M79.8125 139.061C72.7293 139.023 66.1999 137.686 60.2245 135.049C54.2493 132.361 49.5039 128.585 45.9884 123.723C42.5253 118.808 40.8896 113.044 41.0815 106.43L41.2395 106.119L65.4659 104.765C65.4403 109.504 66.7484 113.235 69.39 115.958C72.0319 118.628 75.5403 119.975 79.9152 119.999C84.8631 120.026 88.4664 118.248 90.7254 114.667C92.9843 111.085 94.1285 106.56 94.1579 101.091C94.1919 94.7892 92.9951 89.7566 90.5674 85.9935C88.1921 82.1785 84.4524 80.2573 79.3483 80.2298C75.5463 80.2093 72.5473 80.9744 70.3514 82.5251C68.1555 84.0758 66.5822 86.0726 65.6316 88.5154L43.2953 87.0669L50.2004 23.5094L117.309 23.8711L117.164 50.8238L102.32 50.7438L100.172 43.4665L70.5628 43.3069L67.3056 67.821C68.7172 66.839 70.3105 65.9621 72.0855 65.1905C73.9126 64.419 75.8951 63.8047 78.033 63.3475C80.1709 62.8902 82.3857 62.6678 84.6773 62.6801C92.0739 62.5638 98.3421 64.0298 103.482 67.0784C108.622 70.0749 112.505 74.4709 115.13 80.2664C117.755 86.0098 119.046 92.9439 119.002 101.069C118.963 108.256 117.418 114.732 114.366 120.497C111.366 126.262 106.941 130.822 101.089 134.176C95.29 137.478 88.1978 139.106 79.8125 139.061Z" fill="#F24822"/>
<path fill-rule="evenodd" clip-rule="evenodd" d="M178.742 180.961C147.795 181.269 141.454 216.466 141.454 216.466C141.454 216.466 134.503 181.198 103.561 180.555C72.6188 179.912 53.4294 206.946 63.7495 235.566C74.0688 264.187 84.4696 270.67 100.802 291.467C117.133 312.265 140.863 348.219 140.698 356.668C140.625 348.217 163.75 312.517 180.306 291.896C196.861 271.276 207.331 264.905 217.958 236.397C228.585 207.89 209.689 180.651 178.742 180.961Z" fill="#F24822"/>
<path fill-rule="evenodd" clip-rule="evenodd" d="M236.055 31.2634C224.45 31.3792 222.072 44.5778 222.072 44.5778C222.072 44.5778 219.465 31.3524 207.862 31.1115C196.259 30.8703 189.063 41.0078 192.933 51.7406C196.802 62.4731 200.703 64.9044 206.827 72.7034C212.952 80.5027 221.85 93.9852 221.788 97.1536C221.761 93.9847 230.433 80.5969 236.641 72.8641C242.85 65.1315 246.776 62.7424 250.761 52.0522C254.746 41.3617 247.66 31.1473 236.055 31.2634Z" fill="#F24822"/>
</svg>
