<svg width="283" height="396" viewBox="0 0 283 396" fill="none" xmlns="http://www.w3.org/2000/svg">
<rect x="2.62059" y="0.502687" width="279" height="393" rx="19.5" transform="rotate(0.308765 2.62059 0.502687)" fill="#F2F2F2" stroke="#D2D2D2"/>
<path d="M84.0312 139.084C75.9063 139.04 68.7287 137.179 62.4985 133.499C56.3206 129.768 51.5054 124.455 48.0529 117.562C44.6528 110.616 42.9784 102.378 43.0298 92.8468L43.1451 71.4408C43.201 61.0764 45.228 52.207 49.2261 44.8326C53.2242 37.4582 58.7235 31.8107 65.7239 27.89C72.7764 23.9696 80.8598 22.034 89.9743 22.0831C94.4013 22.107 98.3835 22.5191 101.921 23.3194C105.458 24.1197 109.202 25.3638 113.151 27.0518L108.835 45.1538C105.923 44.2006 102.932 43.4032 99.863 42.7617C96.7938 42.0681 93.7227 41.713 90.6498 41.6964C83.3062 41.6568 77.799 43.9449 74.1282 48.5606C70.5096 53.1766 68.6762 59.9376 68.6282 68.8438L68.8605 69.2356C71.2706 66.5923 74.4067 64.5519 78.2686 63.1144C82.1309 61.6247 86.4057 60.8926 91.0931 60.9178C97.968 60.9549 103.818 62.6531 108.644 66.0125C113.522 69.3201 117.221 73.8974 119.742 79.7444C122.315 85.5916 123.581 92.2913 123.54 99.8432C123.499 107.395 121.77 114.131 118.353 120.05C114.988 125.969 110.327 130.632 104.371 134.037C98.4673 137.443 91.6873 139.125 84.0312 139.084ZM83.587 120.019C86.6078 120.035 89.217 119.112 91.4146 117.248C93.6122 115.385 95.3444 112.895 96.6112 109.776C97.8783 106.606 98.5222 103.094 98.543 99.2398C98.5739 93.5107 97.2187 88.8679 94.4774 85.3114C91.7364 81.7028 87.7617 79.8845 82.5535 79.8565C80.5743 79.8458 78.6719 80.096 76.8462 80.607C75.0208 81.0659 73.3504 81.76 71.8349 82.6894C70.3195 83.6187 69.0373 84.7576 67.9883 86.1062L67.9496 93.2936C67.9038 101.783 69.3007 108.353 72.1403 113.004C75.032 117.655 78.8475 119.993 83.587 120.019Z" fill="#F24822"/>
<path fill-rule="evenodd" clip-rule="evenodd" d="M178.742 180.961C147.795 181.269 141.454 216.466 141.454 216.466C141.454 216.466 134.503 181.198 103.561 180.555C72.6188 179.912 53.4294 206.946 63.7495 235.566C74.0688 264.187 84.4696 270.67 100.802 291.467C117.133 312.265 140.863 348.219 140.698 356.668C140.625 348.217 163.75 312.517 180.306 291.896C196.861 271.276 207.331 264.905 217.958 236.397C228.585 207.89 209.689 180.651 178.742 180.961Z" fill="#F24822"/>
<path fill-rule="evenodd" clip-rule="evenodd" d="M236.055 31.2634C224.45 31.3792 222.072 44.5778 222.072 44.5778C222.072 44.5778 219.465 31.3524 207.862 31.1115C196.259 30.8703 189.063 41.0078 192.933 51.7406C196.802 62.4731 200.703 64.9044 206.827 72.7034C212.952 80.5027 221.85 93.9852 221.788 97.1536C221.761 93.9847 230.433 80.5969 236.641 72.8641C242.85 65.1315 246.776 62.7424 250.761 52.0522C254.746 41.3617 247.66 31.1473 236.055 31.2634Z" fill="#F24822"/>
</svg>
