<svg width="280" height="394" viewBox="0 0 280 394" fill="none" xmlns="http://www.w3.org/2000/svg">
<rect x="0.5" y="0.5" width="279" height="393" rx="19.5" fill="#F2F2F2" stroke="#D2D2D2"/>
<path d="M82.6562 138.641C74.5312 138.641 67.3438 136.818 61.0938 133.172C54.8958 129.474 50.0521 124.188 46.5625 117.312C43.125 110.385 41.4062 102.156 41.4062 92.625V71.2188C41.4062 60.8542 43.3854 51.974 47.3438 44.5781C51.3021 37.1823 56.7708 31.5052 63.75 27.5469C70.7812 23.5885 78.8542 21.6094 87.9688 21.6094C92.3958 21.6094 96.3802 22 99.9219 22.7812C103.464 23.5625 107.214 24.7865 111.172 26.4531L106.953 44.5781C104.036 43.6406 101.042 42.8594 97.9688 42.2344C94.8958 41.5573 91.8229 41.2188 88.75 41.2188C81.4062 41.2188 75.9115 43.5365 72.2656 48.1719C68.6719 52.8073 66.875 59.5781 66.875 68.4844L67.1094 68.875C69.5052 66.2188 72.6302 64.1615 76.4844 62.7031C80.3385 61.1927 84.6094 60.4375 89.2969 60.4375C96.1719 60.4375 102.031 62.1042 106.875 65.4375C111.771 68.7188 115.495 73.276 118.047 79.1094C120.651 84.9427 121.953 91.6354 121.953 99.1875C121.953 106.74 120.26 113.484 116.875 119.422C113.542 125.359 108.906 130.047 102.969 133.484C97.0833 136.922 90.3125 138.641 82.6562 138.641ZM82.1094 119.578C85.1302 119.578 87.7344 118.641 89.9219 116.766C92.1094 114.891 93.8281 112.391 95.0781 109.266C96.3281 106.089 96.9531 102.573 96.9531 98.7188C96.9531 92.9896 95.5729 88.3542 92.8125 84.8125C90.0521 81.2188 86.0677 79.4219 80.8594 79.4219C78.8802 79.4219 76.9792 79.6823 75.1562 80.2031C73.3333 80.6719 71.6667 81.375 70.1562 82.3125C68.6458 83.25 67.3698 84.3958 66.3281 85.75V92.9375C66.3281 101.427 67.7604 107.99 70.625 112.625C73.5417 117.26 77.3698 119.578 82.1094 119.578Z" fill="black"/>
<path fill-rule="evenodd" clip-rule="evenodd" d="M177.59 323.627C208.539 324.026 227.578 301.253 217.106 277.281C206.633 253.309 196.193 247.915 179.754 230.536C163.306 213.156 139.39 183.091 139.503 176C139.624 183.091 116.693 213.156 100.246 230.536C83.8061 247.915 73.3741 253.309 62.8935 277.281C52.4211 301.253 71.4685 324.026 102.409 323.627C123.653 323.352 133.213 309.336 137.113 300.573L137.113 312.042C137.113 312.042 130.331 353.412 82.4658 357.941L74.8355 357.941L74.8355 364.387L205.172 364.387L205.172 357.941L197.534 357.941C149.677 353.412 142.886 312.042 142.886 312.042L142.886 302.079C147.481 310.851 157.525 323.368 177.59 323.627Z" fill="#1A1919"/>
<path fill-rule="evenodd" clip-rule="evenodd" d="M234.096 85.3601C245.702 85.5099 252.842 76.9697 248.915 67.9804C244.987 58.9908 241.072 56.9682 234.908 50.4509C228.74 43.9335 219.771 32.6593 219.814 30C219.859 32.6593 211.26 43.9335 205.092 50.4509C198.927 56.9682 195.015 58.9908 191.085 67.9804C187.158 76.9697 194.301 85.5099 205.904 85.3601C213.87 85.2571 217.455 80.0009 218.917 76.7147L218.917 81.0156C218.917 81.0156 216.374 96.5294 198.425 98.2277L195.563 98.2277L195.563 100.645L244.439 100.645L244.439 98.2277L241.575 98.2277C223.629 96.5294 221.082 81.0156 221.082 81.0156L221.082 77.2794C222.805 80.5692 226.572 85.2628 234.096 85.3601Z" fill="#1A1919"/>
</svg>
