<svg width="280" height="394" viewBox="0 0 280 394" fill="none" xmlns="http://www.w3.org/2000/svg">
<rect x="0.5" y="0.5" width="279" height="393" rx="19.5" fill="#F2F2F2" stroke="#D2D2D2"/>
<path d="M60.1562 137L61.1719 125.672C62.3177 114.734 64.3229 104.344 67.1875 94.5C70.1042 84.6562 73.9323 75.3854 78.6719 66.6875C83.4115 57.9896 89.0885 49.8906 95.7031 42.3906H57.8125L57.0312 53.1719H38.2031V23.25H119.609V42.3906C113.724 49.2656 108.828 55.8542 104.922 62.1562C101.068 68.4583 97.9167 74.8646 95.4688 81.375C93.0729 87.8333 91.1458 94.6562 89.6875 101.844C88.2812 109.031 87.1094 116.974 86.1719 125.672L85.1562 137H60.1562Z" fill="black"/>
<path fill-rule="evenodd" clip-rule="evenodd" d="M177.59 323.627C208.539 324.026 227.578 301.253 217.106 277.281C206.633 253.309 196.193 247.915 179.754 230.536C163.306 213.156 139.39 183.091 139.503 176C139.624 183.091 116.693 213.156 100.246 230.536C83.8061 247.915 73.3741 253.309 62.8935 277.281C52.4211 301.253 71.4685 324.026 102.409 323.627C123.653 323.352 133.213 309.336 137.113 300.573L137.113 312.042C137.113 312.042 130.331 353.412 82.4658 357.941L74.8355 357.941L74.8355 364.387L205.172 364.387L205.172 357.941L197.534 357.941C149.677 353.412 142.886 312.042 142.886 312.042L142.886 302.079C147.481 310.851 157.525 323.368 177.59 323.627Z" fill="#1A1919"/>
<path fill-rule="evenodd" clip-rule="evenodd" d="M234.096 85.3601C245.702 85.5099 252.842 76.9697 248.915 67.9804C244.987 58.9908 241.072 56.9682 234.908 50.4509C228.74 43.9335 219.771 32.6593 219.814 30C219.859 32.6593 211.26 43.9335 205.092 50.4509C198.927 56.9682 195.015 58.9908 191.085 67.9804C187.158 76.9697 194.301 85.5099 205.904 85.3601C213.87 85.2571 217.455 80.0009 218.917 76.7147L218.917 81.0156C218.917 81.0156 216.374 96.5294 198.425 98.2277L195.563 98.2277L195.563 100.645L244.439 100.645L244.439 98.2277L241.575 98.2277C223.629 96.5294 221.082 81.0156 221.082 81.0156L221.082 77.2794C222.805 80.5692 226.572 85.2628 234.096 85.3601Z" fill="#1A1919"/>
</svg>
