<svg width="280" height="394" viewBox="0 0 280 394" fill="none" xmlns="http://www.w3.org/2000/svg">
<rect x="0.5" y="0.5" width="279" height="393" rx="19.5" fill="#F2F2F2" stroke="#D2D2D2"/>
<path d="M79.0625 138.641C71.25 138.641 64.375 137.391 58.4375 134.891C52.5521 132.339 47.9427 128.615 44.6094 123.719C41.276 118.771 39.6094 112.807 39.6094 105.828C39.6094 99.7344 41.3021 94.3698 44.6875 89.7344C48.0729 85.0469 52.6823 81.401 58.5156 78.7969C53.3594 76.2969 49.3229 72.8854 46.4062 68.5625C43.5417 64.1875 42.1094 59.1875 42.1094 53.5625C42.1094 46.7917 43.6198 41.0365 46.6406 36.2969C49.7135 31.5052 54.0104 27.8594 59.5312 25.3594C65.1042 22.8594 71.5625 21.6094 78.9062 21.6094C86.25 21.6094 92.6823 22.8594 98.2031 25.3594C103.776 27.8594 108.099 31.5052 111.172 36.2969C114.245 41.0365 115.781 46.7917 115.781 53.5625C115.781 59.1875 114.297 64.1875 111.328 68.5625C108.411 72.8854 104.401 76.2969 99.2969 78.7969C105.182 81.401 109.792 85.0469 113.125 89.7344C116.51 94.4219 118.203 99.7865 118.203 105.828C118.203 112.807 116.562 118.771 113.281 123.719C110 128.615 105.417 132.339 99.5312 134.891C93.6458 137.391 86.8229 138.641 79.0625 138.641ZM79.0625 119.578C81.875 119.578 84.349 118.953 86.4844 117.703C88.6198 116.401 90.2865 114.578 91.4844 112.234C92.6823 109.891 93.2812 107.104 93.2812 103.875C93.2812 100.698 92.6562 97.9635 91.4062 95.6719C90.2083 93.3281 88.5156 91.5312 86.3281 90.2812C84.1927 89.0312 81.7187 88.4062 78.9062 88.4062C76.0417 88.4062 73.5417 89.0312 71.4062 90.2812C69.2708 91.5312 67.6042 93.3281 66.4062 95.6719C65.2083 97.9635 64.6094 100.698 64.6094 103.875C64.6094 108.719 65.9115 112.547 68.5156 115.359C71.1719 118.172 74.6875 119.578 79.0625 119.578ZM79.0625 69.1094C81.5104 69.1094 83.5937 68.5365 85.3125 67.3906C87.0833 66.1927 88.4375 64.526 89.375 62.3906C90.3125 60.2552 90.7812 57.7031 90.7812 54.7344C90.7812 51.9219 90.3125 49.474 89.375 47.3906C88.4375 45.2552 87.0833 43.6146 85.3125 42.4687C83.5417 41.3229 81.4062 40.75 78.9062 40.75C75.1042 40.75 72.1875 42 70.1562 44.5C68.125 47 67.1094 50.4115 67.1094 54.7344C67.1094 59.2135 68.125 62.7292 70.1562 65.2812C72.2396 67.8333 75.2083 69.1094 79.0625 69.1094Z" fill="#050505"/>
<path fill-rule="evenodd" clip-rule="evenodd" d="M183.375 239.408C178.391 239.408 173.641 240.496 169.31 242.459C173.377 236.037 175.764 228.257 175.764 219.866C175.764 197.849 159.365 180 139.138 180C118.911 180 102.513 197.849 102.513 219.866C102.513 227.854 104.68 235.288 108.397 241.525C104.701 240.16 100.744 239.408 96.6249 239.408C76.397 239.408 60 257.257 60 279.274C60 301.291 76.397 319.14 96.6249 319.14C101.193 319.14 105.563 318.221 109.596 316.558C109.595 316.567 126.641 311.557 137.846 289.358V302.724C137.846 302.724 132.101 344.857 91.598 349.469H85.1342V356.035H195.44V349.469H188.977C148.474 344.857 142.729 302.724 142.729 302.724V290.257C144.816 295.26 156.354 319.719 182.287 319.112C182.649 319.121 183.01 319.14 183.375 319.14C203.603 319.14 220 301.291 220 279.274C220 257.257 203.603 239.408 183.375 239.408Z" fill="#1A1919"/>
<path fill-rule="evenodd" clip-rule="evenodd" d="M236.266 52.2781C234.397 52.2781 232.615 52.6861 230.991 53.4222C232.516 51.0139 233.411 48.0962 233.411 44.9497C233.411 36.6933 227.262 30 219.677 30C212.092 30 205.942 36.6933 205.942 44.9497C205.942 47.9454 206.755 50.7329 208.149 53.0718C206.763 52.5599 205.279 52.2781 203.734 52.2781C196.149 52.2781 190 58.9713 190 67.2277C190 75.4841 196.149 82.1774 203.734 82.1774C205.447 82.1774 207.086 81.8331 208.598 81.2092C208.598 81.2127 214.99 79.3338 219.192 71.0091V76.0215C219.192 76.0215 217.038 91.8213 201.849 93.5508H199.425V96.013H240.79V93.5508H238.366C223.178 91.8213 221.023 76.0215 221.023 76.0215V71.3465C221.806 73.2225 226.133 82.3947 235.858 82.167C235.993 82.1705 236.129 82.1774 236.266 82.1774C243.851 82.1774 250 75.4841 250 67.2277C250 58.9713 243.851 52.2781 236.266 52.2781Z" fill="#1A1919"/>
</svg>
