<svg width="280" height="394" viewBox="0 0 280 394" fill="none" xmlns="http://www.w3.org/2000/svg">
<rect x="0.5" y="0.5" width="279" height="393" rx="19.5" fill="#F2F2F2" stroke="#D2D2D2"/>
<path d="M79.0625 138.641C71.25 138.641 64.375 137.391 58.4375 134.891C52.5521 132.339 47.9427 128.615 44.6094 123.719C41.276 118.771 39.6094 112.807 39.6094 105.828C39.6094 99.7344 41.3021 94.3698 44.6875 89.7344C48.0729 85.0469 52.6823 81.401 58.5156 78.7969C53.3594 76.2969 49.3229 72.8854 46.4062 68.5625C43.5417 64.1875 42.1094 59.1875 42.1094 53.5625C42.1094 46.7917 43.6198 41.0365 46.6406 36.2969C49.7135 31.5052 54.0104 27.8594 59.5312 25.3594C65.1042 22.8594 71.5625 21.6094 78.9062 21.6094C86.25 21.6094 92.6823 22.8594 98.2031 25.3594C103.776 27.8594 108.099 31.5052 111.172 36.2969C114.245 41.0365 115.781 46.7917 115.781 53.5625C115.781 59.1875 114.297 64.1875 111.328 68.5625C108.411 72.8854 104.401 76.2969 99.2969 78.7969C105.182 81.401 109.792 85.0469 113.125 89.7344C116.51 94.4219 118.203 99.7865 118.203 105.828C118.203 112.807 116.562 118.771 113.281 123.719C110 128.615 105.417 132.339 99.5312 134.891C93.6458 137.391 86.8229 138.641 79.0625 138.641ZM79.0625 119.578C81.875 119.578 84.349 118.953 86.4844 117.703C88.6198 116.401 90.2865 114.578 91.4844 112.234C92.6823 109.891 93.2812 107.104 93.2812 103.875C93.2812 100.698 92.6562 97.9635 91.4062 95.6719C90.2083 93.3281 88.5156 91.5312 86.3281 90.2812C84.1927 89.0312 81.7187 88.4062 78.9062 88.4062C76.0417 88.4062 73.5417 89.0312 71.4062 90.2812C69.2708 91.5312 67.6042 93.3281 66.4062 95.6719C65.2083 97.9635 64.6094 100.698 64.6094 103.875C64.6094 108.719 65.9115 112.547 68.5156 115.359C71.1719 118.172 74.6875 119.578 79.0625 119.578ZM79.0625 69.1094C81.5104 69.1094 83.5937 68.5365 85.3125 67.3906C87.0833 66.1927 88.4375 64.526 89.375 62.3906C90.3125 60.2552 90.7812 57.7031 90.7812 54.7344C90.7812 51.9219 90.3125 49.474 89.375 47.3906C88.4375 45.2552 87.0833 43.6146 85.3125 42.4687C83.5417 41.3229 81.4062 40.75 78.9062 40.75C75.1042 40.75 72.1875 42 70.1562 44.5C68.125 47 67.1094 50.4115 67.1094 54.7344C67.1094 59.2135 68.125 62.7292 70.1562 65.2812C72.2396 67.8333 75.2083 69.1094 79.0625 69.1094Z" fill="#F24822"/>
<path fill-rule="evenodd" clip-rule="evenodd" d="M60 279.539L140 362.08L220 279.539L140 197L60 279.539Z" fill="#F24822"/>
<path fill-rule="evenodd" clip-rule="evenodd" d="M190 60.9522L220 91.9048L250 60.9522L220 30L190 60.9522Z" fill="#F24822"/>
</svg>
