<svg width="280" height="394" viewBox="0 0 280 394" fill="none" xmlns="http://www.w3.org/2000/svg">
<rect x="0.5" y="0.5" width="279" height="393" rx="19.5" fill="#F2F2F2" stroke="#D2D2D2"/>
<path d="M73.9062 138.641C69.9479 138.641 65.8594 138.224 61.6406 137.391C57.4219 136.609 53.5156 135.437 49.9219 133.875L52.5781 115.906C55.8594 117.052 59.2448 117.964 62.7344 118.641C66.276 119.266 69.5833 119.578 72.6562 119.578C79.0625 119.578 84.0885 117.469 87.7344 113.25C91.4323 109.031 93.3073 102.573 93.3594 93.875L93.2812 91.7656C90.5729 94.9948 87.4479 97.4167 83.9062 99.0312C80.4167 100.646 76.5885 101.453 72.4219 101.453C65.9115 101.453 60.1562 99.8906 55.1562 96.7656C50.2083 93.5885 46.3542 89.0833 43.5937 83.25C40.8333 77.3646 39.4531 70.3854 39.4531 62.3125C39.4531 54.6562 41.1198 47.7812 44.4531 41.6875C47.7865 35.5417 52.3958 30.6719 58.2812 27.0781C64.2187 23.4323 70.9635 21.6094 78.5156 21.6094C86.224 21.6094 93.0469 23.4583 98.9844 27.1562C104.922 30.8021 109.557 36.0885 112.891 43.0156C116.224 49.8906 117.891 58.1458 117.891 67.7812V93.7187C117.891 102.937 115.99 110.906 112.187 117.625C108.437 124.344 103.255 129.526 96.6406 133.172C90.026 136.818 82.4479 138.641 73.9062 138.641ZM78.8281 83.4844C81.6406 83.4844 84.2969 82.9115 86.7969 81.7656C89.2969 80.6198 91.3542 79.0573 92.9687 77.0781V64.8125C92.9687 56.9479 91.6406 50.9844 88.9844 46.9219C86.3281 42.8073 82.8646 40.75 78.5937 40.75C75.7292 40.75 73.2292 41.7396 71.0937 43.7187C69.0104 45.6979 67.3698 48.3281 66.1719 51.6094C65.026 54.8385 64.4531 58.4062 64.4531 62.3125C64.4531 66.5833 64.974 70.3073 66.0156 73.4844C67.0573 76.6615 68.6198 79.1354 70.7031 80.9062C72.8385 82.625 75.5469 83.4844 78.8281 83.4844Z" fill="#050505"/>
<path fill-rule="evenodd" clip-rule="evenodd" d="M183.375 239.408C178.391 239.408 173.641 240.496 169.31 242.459C173.377 236.037 175.764 228.257 175.764 219.866C175.764 197.849 159.365 180 139.138 180C118.911 180 102.513 197.849 102.513 219.866C102.513 227.854 104.68 235.288 108.397 241.525C104.701 240.16 100.744 239.408 96.6249 239.408C76.397 239.408 60 257.257 60 279.274C60 301.291 76.397 319.14 96.6249 319.14C101.193 319.14 105.563 318.221 109.596 316.558C109.595 316.567 126.641 311.557 137.846 289.358V302.724C137.846 302.724 132.101 344.857 91.598 349.469H85.1342V356.035H195.44V349.469H188.977C148.474 344.857 142.729 302.724 142.729 302.724V290.257C144.816 295.26 156.354 319.719 182.287 319.112C182.649 319.121 183.01 319.14 183.375 319.14C203.603 319.14 220 301.291 220 279.274C220 257.257 203.603 239.408 183.375 239.408Z" fill="#1A1919"/>
<path fill-rule="evenodd" clip-rule="evenodd" d="M236.266 52.2781C234.397 52.2781 232.615 52.6861 230.991 53.4222C232.516 51.0139 233.411 48.0962 233.411 44.9497C233.411 36.6933 227.262 30 219.677 30C212.092 30 205.942 36.6933 205.942 44.9497C205.942 47.9454 206.755 50.7329 208.149 53.0718C206.763 52.5599 205.279 52.2781 203.734 52.2781C196.149 52.2781 190 58.9713 190 67.2277C190 75.4841 196.149 82.1774 203.734 82.1774C205.447 82.1774 207.086 81.8331 208.598 81.2092C208.598 81.2127 214.99 79.3338 219.192 71.0091V76.0215C219.192 76.0215 217.038 91.8213 201.849 93.5508H199.425V96.013H240.79V93.5508H238.366C223.178 91.8213 221.023 76.0215 221.023 76.0215V71.3465C221.806 73.2225 226.133 82.3947 235.858 82.167C235.993 82.1705 236.129 82.1774 236.266 82.1774C243.851 82.1774 250 75.4841 250 67.2277C250 58.9713 243.851 52.2781 236.266 52.2781Z" fill="#1A1919"/>
</svg>
