<svg width="280" height="394" viewBox="0 0 280 394" fill="none" xmlns="http://www.w3.org/2000/svg">
<rect x="0.5" y="0.5" width="279" height="393" rx="19.5" fill="#F2F2F2" stroke="#D2D2D2"/>
<path d="M73.9062 138.641C69.9479 138.641 65.8594 138.224 61.6406 137.391C57.4219 136.609 53.5156 135.438 49.9219 133.875L52.5781 115.906C55.8594 117.052 59.2448 117.964 62.7344 118.641C66.276 119.266 69.5833 119.578 72.6562 119.578C79.0625 119.578 84.0885 117.469 87.7344 113.25C91.4323 109.031 93.3073 102.573 93.3594 93.875L93.2812 91.7656C90.5729 94.9948 87.4479 97.4167 83.9062 99.0312C80.4167 100.646 76.5885 101.453 72.4219 101.453C65.9115 101.453 60.1562 99.8906 55.1562 96.7656C50.2083 93.5885 46.3542 89.0833 43.5938 83.25C40.8333 77.3646 39.4531 70.3854 39.4531 62.3125C39.4531 54.6562 41.1198 47.7812 44.4531 41.6875C47.7865 35.5417 52.3958 30.6719 58.2812 27.0781C64.2188 23.4323 70.9635 21.6094 78.5156 21.6094C86.224 21.6094 93.0469 23.4583 98.9844 27.1562C104.922 30.8021 109.557 36.0885 112.891 43.0156C116.224 49.8906 117.891 58.1458 117.891 67.7812V93.7188C117.891 102.938 115.99 110.906 112.188 117.625C108.438 124.344 103.255 129.526 96.6406 133.172C90.026 136.818 82.4479 138.641 73.9062 138.641ZM78.8281 83.4844C81.6406 83.4844 84.2969 82.9115 86.7969 81.7656C89.2969 80.6198 91.3542 79.0573 92.9688 77.0781V64.8125C92.9688 56.9479 91.6406 50.9844 88.9844 46.9219C86.3281 42.8073 82.8646 40.75 78.5938 40.75C75.7292 40.75 73.2292 41.7396 71.0938 43.7188C69.0104 45.6979 67.3698 48.3281 66.1719 51.6094C65.026 54.8385 64.4531 58.4062 64.4531 62.3125C64.4531 66.5833 64.974 70.3073 66.0156 73.4844C67.0573 76.6615 68.6198 79.1354 70.7031 80.9062C72.8385 82.625 75.5469 83.4844 78.8281 83.4844Z" fill="black"/>
<path fill-rule="evenodd" clip-rule="evenodd" d="M177.59 323.627C208.539 324.026 227.578 301.253 217.106 277.281C206.633 253.309 196.193 247.915 179.754 230.536C163.306 213.156 139.39 183.091 139.503 176C139.624 183.091 116.693 213.156 100.246 230.536C83.8061 247.915 73.3741 253.309 62.8935 277.281C52.4211 301.253 71.4685 324.026 102.409 323.627C123.653 323.352 133.213 309.336 137.113 300.573L137.113 312.042C137.113 312.042 130.331 353.412 82.4658 357.941L74.8355 357.941L74.8355 364.387L205.172 364.387L205.172 357.941L197.534 357.941C149.677 353.412 142.886 312.042 142.886 312.042L142.886 302.079C147.481 310.851 157.525 323.368 177.59 323.627Z" fill="#1A1919"/>
<path fill-rule="evenodd" clip-rule="evenodd" d="M234.096 85.3601C245.702 85.5099 252.842 76.9697 248.915 67.9804C244.987 58.9908 241.072 56.9682 234.908 50.4509C228.74 43.9335 219.771 32.6593 219.814 30C219.859 32.6593 211.26 43.9335 205.092 50.4509C198.927 56.9682 195.015 58.9908 191.085 67.9804C187.158 76.9697 194.301 85.5099 205.904 85.3601C213.87 85.2571 217.455 80.0009 218.917 76.7147L218.917 81.0156C218.917 81.0156 216.374 96.5294 198.425 98.2277L195.563 98.2277L195.563 100.645L244.439 100.645L244.439 98.2277L241.575 98.2277C223.629 96.5294 221.082 81.0156 221.082 81.0156L221.082 77.2794C222.805 80.5692 226.572 85.2628 234.096 85.3601Z" fill="#1A1919"/>
</svg>
