<svg width="283" height="396" viewBox="0 0 283 396" fill="none" xmlns="http://www.w3.org/2000/svg">
<rect x="2.62059" y="0.502687" width="279" height="393" rx="19.5" transform="rotate(0.308765 2.62059 0.502687)" fill="#F2F2F2" stroke="#D2D2D2"/>
<path d="M80.7501 139.066C72.3648 139.021 65.0546 137.602 58.8196 134.807C52.6367 132.014 47.7895 127.795 44.2782 122.151C40.8193 116.455 38.957 109.257 38.6914 100.558L38.8502 100.09L62.2092 100.216C62.6381 107.614 64.2513 112.701 67.0489 115.477C69.8468 118.2 73.4853 119.574 77.9644 119.598C80.7247 119.613 83.2279 119.027 85.4739 117.841C87.772 116.656 89.6309 114.817 91.0506 112.325C92.4703 109.832 93.1906 106.659 93.2113 102.805L93.5443 41.0089L78.167 38.5041L78.247 23.6606L130.512 23.9422L130.432 38.7857L118.388 41.1427L118.055 102.939C118.015 110.387 116.521 116.837 113.575 122.29C110.682 127.691 106.466 131.861 100.93 134.8C95.3932 137.687 88.6667 139.109 80.7501 139.066Z" fill="#F24822"/>
<path fill-rule="evenodd" clip-rule="evenodd" d="M178.742 180.961C147.795 181.269 141.453 216.466 141.453 216.466C141.453 216.466 134.503 181.198 103.561 180.555C72.6187 179.912 53.4293 206.946 63.7493 235.566C74.0687 264.187 84.4695 270.67 100.802 291.467C117.133 312.265 140.863 348.219 140.698 356.668C140.625 348.217 163.75 312.517 180.305 291.896C196.861 271.276 207.331 264.905 217.958 236.397C228.585 207.89 209.689 180.651 178.742 180.961Z" fill="#F24822"/>
<path fill-rule="evenodd" clip-rule="evenodd" d="M236.055 31.2634C224.45 31.3792 222.072 44.5778 222.072 44.5778C222.072 44.5778 219.465 31.3524 207.862 31.1115C196.259 30.8703 189.063 41.0078 192.933 51.7406C196.803 62.4731 200.703 64.9044 206.827 72.7034C212.952 80.5027 221.85 93.9852 221.789 97.1536C221.761 93.9847 230.433 80.5969 236.641 72.8641C242.85 65.1315 246.776 62.7424 250.761 52.0522C254.746 41.3617 247.66 31.1473 236.055 31.2634Z" fill="#F24822"/>
</svg>
