<svg width="280" height="394" viewBox="0 0 280 394" fill="none" xmlns="http://www.w3.org/2000/svg">
<rect x="0.5" y="0.5" width="279" height="393" rx="19.5" fill="#F2F2F2" stroke="#D2D2D2"/>
<path d="M69.8437 110.594L57.0312 95.9062L113.203 39.1875L113.359 39.0312L101.328 38.0937V23.25H151.094V38.0937L140.391 40.2812L69.8437 110.594ZM38.75 137V122.234L50.7812 119.812V40.5156L38.75 38.0937V23.25H86.9531V38.0937L75.7812 40.5156V119.812L86.9531 122.234V137H38.75ZM103.75 137V122.234L114.766 121.297H114.844L86.7187 82.625L103.75 66.6094L143.828 120.281L155.234 122.234V137H103.75Z" fill="#F24822"/>
<path fill-rule="evenodd" clip-rule="evenodd" d="M60 279.539L140 362.08L220 279.539L140 197L60 279.539Z" fill="#F24822"/>
<path fill-rule="evenodd" clip-rule="evenodd" d="M190 60.9522L220 91.9048L250 60.9522L220 30L190 60.9522Z" fill="#F24822"/>
</svg>
