<svg width="280" height="394" viewBox="0 0 280 394" fill="none" xmlns="http://www.w3.org/2000/svg">
<rect x="0.5" y="0.5" width="279" height="393" rx="19.5" fill="#F2F2F2" stroke="#D2D2D2"/>
<path d="M137.344 159.734L103.828 137.625C101.953 137.885 100.104 138.12 98.2812 138.328C96.4583 138.536 94.6354 138.641 92.8125 138.641C85.0521 138.641 77.9427 137.208 71.4844 134.344C65.026 131.479 59.4531 127.469 54.7656 122.312C50.0781 117.104 46.4583 111.01 43.9062 104.031C41.4062 97 40.1562 89.3177 40.1562 80.9844V79.1875C40.1562 70.9583 41.4062 63.3542 43.9062 56.375C46.4583 49.3437 50.0781 43.224 54.7656 38.0156C59.4531 32.8073 65 28.7708 71.4062 25.9062C77.8646 23.0417 84.974 21.6094 92.7344 21.6094C100.443 21.6094 107.526 23.0417 113.984 25.9062C120.443 28.7708 126.042 32.8073 130.781 38.0156C135.573 43.224 139.271 49.3437 141.875 56.375C144.531 63.3542 145.859 70.9583 145.859 79.1875V80.9844C145.859 90.724 143.906 99.6823 140 107.859C136.094 116.036 130.99 122.703 124.687 127.859L149.297 142.703L137.344 159.734ZM92.8125 119.5C99.0104 119.5 104.193 117.885 108.359 114.656C112.526 111.427 115.651 106.948 117.734 101.219C119.87 95.4375 120.937 88.6927 120.937 80.9844V79.0312C120.937 71.4792 119.844 64.8385 117.656 59.1094C115.521 53.3802 112.344 48.901 108.125 45.6719C103.958 42.4427 98.8281 40.8281 92.7344 40.8281C86.4323 40.8281 81.25 42.4427 77.1875 45.6719C73.125 48.849 70.1042 53.3021 68.125 59.0312C66.1458 64.7083 65.1562 71.375 65.1562 79.0312V80.9844C65.1562 88.6927 66.1719 95.4375 68.2031 101.219C70.2344 107 73.3073 111.505 77.4219 114.734C81.5365 117.911 86.6667 119.5 92.8125 119.5Z" fill="#050505"/>
<path fill-rule="evenodd" clip-rule="evenodd" d="M183.375 239.408C178.391 239.408 173.641 240.496 169.31 242.459C173.377 236.037 175.764 228.257 175.764 219.866C175.764 197.849 159.365 180 139.138 180C118.911 180 102.513 197.849 102.513 219.866C102.513 227.854 104.68 235.288 108.397 241.525C104.701 240.16 100.744 239.408 96.6249 239.408C76.397 239.408 60 257.257 60 279.274C60 301.291 76.397 319.14 96.6249 319.14C101.193 319.14 105.563 318.221 109.596 316.558C109.595 316.567 126.641 311.557 137.846 289.358V302.724C137.846 302.724 132.101 344.857 91.598 349.469H85.1342V356.035H195.44V349.469H188.977C148.474 344.857 142.729 302.724 142.729 302.724V290.257C144.816 295.26 156.354 319.719 182.287 319.112C182.649 319.121 183.01 319.14 183.375 319.14C203.603 319.14 220 301.291 220 279.274C220 257.257 203.603 239.408 183.375 239.408Z" fill="#1A1919"/>
<path fill-rule="evenodd" clip-rule="evenodd" d="M236.266 52.2781C234.397 52.2781 232.615 52.6861 230.991 53.4222C232.516 51.0139 233.411 48.0962 233.411 44.9497C233.411 36.6933 227.262 30 219.677 30C212.092 30 205.942 36.6933 205.942 44.9497C205.942 47.9454 206.755 50.7329 208.149 53.0718C206.763 52.5599 205.279 52.2781 203.734 52.2781C196.149 52.2781 190 58.9713 190 67.2277C190 75.4841 196.149 82.1774 203.734 82.1774C205.447 82.1774 207.086 81.8331 208.598 81.2092C208.598 81.2127 214.99 79.3338 219.192 71.0091V76.0215C219.192 76.0215 217.038 91.8213 201.849 93.5508H199.425V96.013H240.79V93.5508H238.366C223.178 91.8213 221.023 76.0215 221.023 76.0215V71.3465C221.806 73.2225 226.133 82.3947 235.858 82.167C235.993 82.1705 236.129 82.1774 236.266 82.1774C243.851 82.1774 250 75.4841 250 67.2277C250 58.9713 243.851 52.2781 236.266 52.2781Z" fill="#1A1919"/>
</svg>
