<svg width="283" height="396" viewBox="0 0 283 396" fill="none" xmlns="http://www.w3.org/2000/svg">
<rect x="2.62059" y="0.502687" width="279" height="393" rx="19.5" transform="rotate(0.308765 2.62059 0.502687)" fill="#F2F2F2" stroke="#D2D2D2"/>
<path d="M138.604 160.472L105.208 138.183C103.332 138.433 101.482 138.657 99.6578 138.856C97.8338 139.054 96.0103 139.149 94.1874 139.139C86.4271 139.097 79.3256 137.626 72.8828 134.727C66.4399 131.828 60.8887 127.787 56.2291 122.606C51.5697 117.372 47.9828 111.259 45.4684 104.266C43.0063 97.2217 41.7977 89.5328 41.8426 81.1996L41.8523 79.4027C41.8967 71.1737 43.1876 63.5764 45.7252 56.6108C48.3151 49.5934 51.9678 43.4932 56.6833 38.3102C61.3988 33.1272 66.9674 29.1207 73.389 26.2907C79.8627 23.4609 86.9797 22.067 94.74 22.1088C102.448 22.1503 109.524 23.6208 115.966 26.5201C122.409 29.4195 127.986 33.486 132.698 38.7198C137.461 43.9539 141.126 50.0935 143.693 57.1387C146.311 64.1321 147.598 71.7433 147.554 79.9724L147.544 81.7692C147.492 91.5087 145.49 100.456 141.54 108.612C137.59 116.768 132.45 123.407 126.12 128.529L150.649 143.506L138.604 160.472ZM94.2906 119.998C100.488 120.032 105.679 118.445 109.863 115.239C114.047 112.032 117.196 107.57 119.311 101.852C121.477 96.0821 122.581 89.3431 122.623 81.6349L122.633 79.6818C122.674 72.1298 121.616 65.4834 119.459 59.7425C117.355 54.002 114.202 49.5057 110.001 46.2539C105.851 43.0023 100.73 41.3601 94.6364 41.3273C88.3344 41.2933 83.1435 42.8799 79.0636 46.0872C74.9841 49.2423 71.9393 53.6791 69.9293 59.3975C67.9195 65.0638 66.8941 71.7251 66.8528 79.3812L66.8423 81.3343C66.8007 89.0425 67.78 95.7927 69.7801 101.585C71.7801 107.377 74.8287 111.899 78.9258 115.15C83.0232 118.349 88.1448 119.965 94.2906 119.998Z" fill="#F24822"/>
<path fill-rule="evenodd" clip-rule="evenodd" d="M178.742 180.961C147.795 181.269 141.453 216.466 141.453 216.466C141.453 216.466 134.503 181.198 103.561 180.555C72.6187 179.912 53.4293 206.946 63.7493 235.566C74.0687 264.187 84.4695 270.67 100.802 291.467C117.133 312.265 140.863 348.219 140.698 356.668C140.625 348.217 163.75 312.517 180.305 291.896C196.861 271.276 207.331 264.905 217.958 236.397C228.585 207.89 209.689 180.651 178.742 180.961Z" fill="#F24822"/>
<path fill-rule="evenodd" clip-rule="evenodd" d="M236.055 31.2634C224.45 31.3792 222.072 44.5778 222.072 44.5778C222.072 44.5778 219.465 31.3524 207.862 31.1115C196.259 30.8703 189.063 41.0078 192.933 51.7406C196.803 62.4731 200.703 64.9044 206.827 72.7034C212.952 80.5027 221.85 93.9852 221.789 97.1536C221.761 93.9847 230.433 80.5969 236.641 72.8641C242.85 65.1315 246.776 62.7424 250.761 52.0522C254.746 41.3617 247.66 31.1473 236.055 31.2634Z" fill="#F24822"/>
</svg>
