<svg width="280" height="394" viewBox="0 0 280 394" fill="none" xmlns="http://www.w3.org/2000/svg">
<rect x="0.5" y="0.5" width="279" height="393" rx="19.5" fill="#F2F2F2" stroke="#D2D2D2"/>
<path d="M26.75 137V122.234L46.4375 119.812V45.2031L26.5937 45.125V31.0625L71.4375 23.25V119.812L91.125 122.234V137H26.75ZM141.516 138.641C129.432 138.641 119.849 134.734 112.766 126.922C105.734 119.109 102.219 107.625 102.219 92.4687V67.8594C102.219 52.7031 105.734 41.2187 112.766 33.4062C119.797 25.5417 129.328 21.6094 141.359 21.6094C153.286 21.6094 162.792 25.5417 169.875 33.4062C176.958 41.2187 180.5 52.7031 180.5 67.8594V92.4687C180.5 107.677 176.984 119.187 169.953 127C162.922 134.76 153.443 138.641 141.516 138.641ZM141.516 119.578C146.099 119.578 149.589 117.599 151.984 113.641C154.432 109.682 155.656 103.25 155.656 94.3437V65.8281C155.656 57.026 154.406 50.6458 151.906 46.6875C149.458 42.7292 145.943 40.75 141.359 40.75C136.672 40.75 133.104 42.7292 130.656 46.6875C128.26 50.5937 127.062 56.974 127.062 65.8281V94.3437C127.062 103.302 128.286 109.76 130.734 113.719C133.182 117.625 136.776 119.578 141.516 119.578Z" fill="#050505"/>
<path fill-rule="evenodd" clip-rule="evenodd" d="M183.375 239.408C178.391 239.408 173.641 240.496 169.31 242.459C173.377 236.037 175.764 228.257 175.764 219.866C175.764 197.849 159.365 180 139.138 180C118.911 180 102.513 197.849 102.513 219.866C102.513 227.854 104.68 235.288 108.397 241.525C104.701 240.16 100.744 239.408 96.6249 239.408C76.397 239.408 60 257.257 60 279.274C60 301.291 76.397 319.14 96.6249 319.14C101.193 319.14 105.563 318.221 109.596 316.558C109.595 316.567 126.641 311.557 137.846 289.358V302.724C137.846 302.724 132.101 344.857 91.598 349.469H85.1342V356.035H195.44V349.469H188.977C148.474 344.857 142.729 302.724 142.729 302.724V290.257C144.816 295.26 156.354 319.719 182.287 319.112C182.649 319.121 183.01 319.14 183.375 319.14C203.603 319.14 220 301.291 220 279.274C220 257.257 203.603 239.408 183.375 239.408Z" fill="#1A1919"/>
<path fill-rule="evenodd" clip-rule="evenodd" d="M246.266 52.2781C244.397 52.2781 242.615 52.6861 240.991 53.4222C242.516 51.0139 243.411 48.0962 243.411 44.9497C243.411 36.6933 237.262 30 229.677 30C222.092 30 215.942 36.6933 215.942 44.9497C215.942 47.9454 216.755 50.7329 218.149 53.0718C216.763 52.5599 215.279 52.2781 213.734 52.2781C206.149 52.2781 200 58.9713 200 67.2277C200 75.4842 206.149 82.1774 213.734 82.1774C215.447 82.1774 217.086 81.8331 218.598 81.2092C218.598 81.2127 224.99 79.3338 229.192 71.0091V76.0215C229.192 76.0215 227.038 91.8213 211.849 93.5508H209.425V96.013H250.79V93.5508H248.366C233.178 91.8213 231.023 76.0215 231.023 76.0215V71.3465C231.806 73.2225 236.133 82.3947 245.858 82.167C245.993 82.1705 246.129 82.1774 246.266 82.1774C253.851 82.1774 260 75.4842 260 67.2277C260 58.9713 253.851 52.2781 246.266 52.2781Z" fill="#1A1919"/>
</svg>
