<svg width="280" height="394" viewBox="0 0 280 394" fill="none" xmlns="http://www.w3.org/2000/svg">
<rect x="0.5" y="0.5" width="279" height="393" rx="19.5" fill="#F2F2F2" stroke="#D2D2D2"/>
<path d="M24.75 137V122.234L44.4375 119.812V45.2031L24.5937 45.125V31.0625L69.4375 23.25V119.812L89.125 122.234V137H24.75ZM139.516 138.641C127.432 138.641 117.849 134.734 110.766 126.922C103.734 119.109 100.219 107.625 100.219 92.4687V67.8594C100.219 52.7031 103.734 41.2187 110.766 33.4062C117.797 25.5417 127.328 21.6094 139.359 21.6094C151.286 21.6094 160.792 25.5417 167.875 33.4062C174.958 41.2187 178.5 52.7031 178.5 67.8594V92.4687C178.5 107.677 174.984 119.187 167.953 127C160.922 134.76 151.443 138.641 139.516 138.641ZM139.516 119.578C144.099 119.578 147.589 117.599 149.984 113.641C152.432 109.682 153.656 103.25 153.656 94.3437V65.8281C153.656 57.026 152.406 50.6458 149.906 46.6875C147.458 42.7292 143.943 40.75 139.359 40.75C134.672 40.75 131.104 42.7292 128.656 46.6875C126.26 50.5937 125.062 56.974 125.062 65.8281V94.3437C125.062 103.302 126.286 109.76 128.734 113.719C131.182 117.625 134.776 119.578 139.516 119.578Z" fill="#F24822"/>
<path fill-rule="evenodd" clip-rule="evenodd" d="M60 279.539L140 362.08L220 279.539L140 197L60 279.539Z" fill="#F24822"/>
<path fill-rule="evenodd" clip-rule="evenodd" d="M200 60.9522L230 91.9048L260 60.9522L230 30L200 60.9522Z" fill="#F24822"/>
</svg>
