<svg width="283" height="396" viewBox="0 0 283 396" fill="none" xmlns="http://www.w3.org/2000/svg">
<rect x="2.62059" y="0.502687" width="279" height="393" rx="19.5" transform="rotate(0.308765 2.62059 0.502687)" fill="#F2F2F2" stroke="#D2D2D2"/>
<path d="M23.2139 137.052L23.2935 122.286L42.9937 119.97L43.3958 45.3622L23.5527 45.1771L23.6285 31.1148L68.5137 23.5441L67.9934 120.105L87.6675 122.633L87.5879 137.399L23.2139 137.052ZM137.969 139.311C125.886 139.246 116.324 135.288 109.283 127.437C102.294 119.587 98.8398 108.084 98.9215 92.9277L99.0541 68.3187C99.1358 53.1626 102.713 41.6974 109.787 33.9229C116.86 26.0963 126.412 22.2154 138.443 22.2803C150.37 22.3446 159.854 26.328 166.895 34.2306C173.936 42.0812 177.416 53.5845 177.334 68.7405L177.202 93.3496C177.12 108.558 173.542 120.049 166.469 127.823C159.396 135.546 149.896 139.375 137.969 139.311ZM138.072 120.248C142.655 120.273 146.155 118.313 148.572 114.367C151.042 110.422 152.3 103.997 152.348 95.0906L152.502 66.5754C152.549 57.7735 151.334 51.3866 148.855 47.4149C146.428 43.4434 142.924 41.4453 138.34 41.4206C133.653 41.3954 130.075 43.3553 127.605 47.3004C125.188 51.1936 123.956 57.5673 123.908 66.4213L123.755 94.9366C123.707 103.895 124.896 110.36 127.322 114.331C129.749 118.25 133.332 120.223 138.072 120.248Z" fill="#F24822"/>
<path fill-rule="evenodd" clip-rule="evenodd" d="M178.742 180.961C147.795 181.269 141.453 216.466 141.453 216.466C141.453 216.466 134.503 181.198 103.561 180.555C72.6187 179.912 53.4293 206.946 63.7493 235.566C74.0687 264.187 84.4695 270.67 100.802 291.467C117.133 312.265 140.863 348.219 140.698 356.668C140.625 348.217 163.75 312.517 180.305 291.896C196.861 271.276 207.331 264.905 217.958 236.397C228.585 207.89 209.689 180.651 178.742 180.961Z" fill="#F24822"/>
<path fill-rule="evenodd" clip-rule="evenodd" d="M244.096 30.24C232.491 30.3558 230.113 43.5544 230.113 43.5544C230.113 43.5544 227.506 30.3289 215.903 30.088C204.3 29.8468 197.104 39.9843 200.974 50.7171C204.844 61.4497 208.744 63.881 214.868 71.68C220.993 79.4792 229.891 92.9617 229.83 96.1302C229.802 92.9612 238.474 79.5734 244.682 71.8406C250.891 64.1081 254.817 61.719 258.802 51.0288C262.787 40.3383 255.701 30.1238 244.096 30.24Z" fill="#F24822"/>
</svg>
