<svg width="280" height="394" viewBox="0 0 280 394" fill="none" xmlns="http://www.w3.org/2000/svg">
<rect x="0.5" y="0.5" width="279" height="393" rx="19.5" fill="#F2F2F2" stroke="#D2D2D2"/>
<path d="M20.75 137V122.234L40.4375 119.812V45.2031L20.5938 45.125V31.0625L65.4375 23.25V119.812L85.125 122.234V137H20.75ZM135.516 138.641C123.432 138.641 113.849 134.734 106.766 126.922C99.7344 119.109 96.2188 107.625 96.2188 92.4688V67.8594C96.2188 52.7031 99.7344 41.2188 106.766 33.4062C113.797 25.5417 123.328 21.6094 135.359 21.6094C147.286 21.6094 156.792 25.5417 163.875 33.4062C170.958 41.2188 174.5 52.7031 174.5 67.8594V92.4688C174.5 107.677 170.984 119.188 163.953 127C156.922 134.76 147.443 138.641 135.516 138.641ZM135.516 119.578C140.099 119.578 143.589 117.599 145.984 113.641C148.432 109.682 149.656 103.25 149.656 94.3438V65.8281C149.656 57.026 148.406 50.6458 145.906 46.6875C143.458 42.7292 139.943 40.75 135.359 40.75C130.672 40.75 127.104 42.7292 124.656 46.6875C122.26 50.5938 121.062 56.974 121.062 65.8281V94.3438C121.062 103.302 122.286 109.76 124.734 113.719C127.182 117.625 130.776 119.578 135.516 119.578Z" fill="black"/>
<path fill-rule="evenodd" clip-rule="evenodd" d="M177.59 323.627C208.539 324.026 227.578 301.253 217.106 277.281C206.633 253.309 196.193 247.915 179.754 230.536C163.306 213.156 139.39 183.091 139.503 176C139.624 183.091 116.693 213.156 100.246 230.536C83.8061 247.915 73.3741 253.309 62.8935 277.281C52.4211 301.253 71.4685 324.026 102.409 323.627C123.653 323.352 133.213 309.336 137.113 300.573L137.113 312.042C137.113 312.042 130.331 353.412 82.4658 357.941L74.8355 357.941L74.8355 364.387L205.172 364.387L205.172 357.941L197.534 357.941C149.677 353.412 142.886 312.042 142.886 312.042L142.886 302.079C147.481 310.851 157.525 323.368 177.59 323.627Z" fill="#1A1919"/>
<path fill-rule="evenodd" clip-rule="evenodd" d="M244.096 85.3601C255.702 85.5099 262.842 76.9697 258.915 67.9804C254.987 58.9908 251.072 56.9682 244.908 50.4509C238.74 43.9335 229.771 32.6593 229.814 30C229.859 32.6593 221.26 43.9335 215.092 50.4509C208.927 56.9682 205.015 58.9908 201.085 67.9804C197.158 76.9697 204.301 85.5099 215.904 85.3601C223.87 85.2571 227.455 80.0009 228.917 76.7147L228.917 81.0156C228.917 81.0156 226.374 96.5294 208.425 98.2277L205.563 98.2277L205.563 100.645L254.439 100.645L254.439 98.2277L251.575 98.2277C233.629 96.5294 231.082 81.0156 231.082 81.0156L231.082 77.2794C232.805 80.5692 236.572 85.2628 244.096 85.3601Z" fill="#1A1919"/>
</svg>
